<svg xmlns="http://www.w3.org/2000/svg">
<defs>
<font id="SRRojeeNP" horiz-adv-x="0" >
  <font-face 
    font-family="SR Rojee NP"
    font-weight="500"
    font-stretch="normal"
    units-per-em="1000"
    panose-1="2 0 0 0 0 0 0 0 0 0"
    ascent="800"
    descent="-200"
    x-height="330"
    cap-height="503"
    bbox="-392 -459 770.182 888"
    underline-thickness="20"
    underline-position="-153"
    unicode-range="U+0020-25CC"
  />
<missing-glyph horiz-adv-x="750" 
d="M125 0v625h500v-625h-500zM146 16h458q5 0 5 5v583q0 5 -5 5h-458q-5 0 -5 -5v-583q0 -5 5 -5zM349 -1h-1v0h1h-1v0h1zM375 -1v-1h-1v1h1zM375 -2v1h-1v-1h1zM381 -1v0v0v-1v1h-2v-1v1h1v0h1zM380 -1h1v0h-1v0zM390 -1h-2v-1h2v1h-1h1v-1h-2v1h2zM390 -1v0h2v0v-1v1h-2
v-1v1zM350 0v-2h-3v2h3zM350 -2v2h-3v-2h3zM357 -1v-1h-1v1h1zM357 -2v1h-1v-1h1zM376 -1v-1h1h-1v1zM412 -1v-1h-2v1h2v0zM412 -2v1h-2v-1h2zM407 -1v-1h1v1v-1h-1v1zM392 -1h2h-1v-1v1h-1zM370 -1h1v-1h-1v1h1v0h-1zM370 -2h1v1h-1v-1zM374 -1v0h-2v-1v1h2zM372 -1h2v0h-2
v0zM388 -1v0v0zM388 -1v-1v1zM354 -2h-2h2zM354 -1v0h-2v-1v1h2v0h-2h2zM331 -1h-2v-1h2h-2v1h2zM355 -1v-1h-1v1h1zM355 -2v1h-1v-1h1zM334 -1v0h-1v-1v1h1zM333 -1h1v0h-1v0zM333 -1v-1h-2v1h2zM333 -2v1h-2v-1h2zM364 -1v0h2v0v0h-1v-1v1h-1v0zM383 -1v-1h1h-1v1zM382 -1
v-1h1h-1v1zM368 -2v1h1v-1v1h-1v-1zM398 -1v0h1v-1v1h-2v-1v1h1zM397 -1h1v0h-1v0zM372 -1v0v0zM372 -1v-1v1zM341 -1h-1v-1h1v1h-1h1v-1h-1v1h1zM342 -1v0h1v0v-1v1h-1v-1v1zM344 -1h2h-1v-1v1h-1zM339 -1v-1v1v0zM338 -1v0h1v-1v1h-2v-1v1h1zM337 -1h1v0h-1v0zM406 -1v0h1
v-1v1h-2v-1v1h1zM405 -1h1v0h-1v0zM408 -2h2h-2zM408 -1h2h-2zM408 -1h2h-2zM362 -2h1h-1zM363 -1v0v0v-1v1h-1v-1v1v0h1zM362 -1h1v0h-1v0zM405 -2h-2h2zM403 -1h2h-2zM403 -1h2h-2zM401 -1h2v-1h-2h2v1h-2zM401 -1h2h-2v0v0zM358 -1h1v-1h-1h1v1h-1zM358 -1h1h-1v0v0z
M399 -2h2h-2zM399 -1h2h-2zM399 -1h2h-2zM387 -1v0v0v-1v1h-1v-1v1h1zM386 -1h1v0h-1v0zM335 -1v0h2v0v0h-1v-1v1h-1v0zM395 -1h1v-1h-1h1v1h-1zM395 -1h1h-1v0v0z" />
    <glyph glyph-name="quotedblleft" unicode="&#x91;&#x91;" horiz-adv-x="168" 
d="M239 450q0 -3 -9.5 -12t-22.5 -20.5t-25 -24.5t-18 -23q-5 -8 0 -20.5l9 -22.5q-4 -2 -6 -5t-12 -3q-6 0 -21 6.5t-31.5 15.5t-30 19t-15.5 17q0 2 -1.5 5.5t-1.5 9.5t2.5 9.5t0.5 5.5q4 6 5 14.5t2.5 17.5t5 18t12.5 15h20q16 -6 18 -15.5t-0.5 -20t-4.5 -19.5t7 -15
q6 4 12.5 13t15.5 18.5t20 18t26 12.5q4 1 24 1q8 0 13.5 -5t5.5 -10z" />
    <glyph glyph-name="quotedblright" unicode="&#x92;&#x92;" horiz-adv-x="254" 
d="M226 436q0 -4 -6.5 -14.5t-15.5 -25t-19.5 -31.5t-19.5 -35l-7.5 -7.5t-14.5 -5.5q-10 0 -15 5t-5 13q0 1 7 17.5t17 37.5t21.5 40t19.5 27h32q0 -3 3 -8t3 -13zM138 456q0 -6 -9 -27.5t-21 -45.5t-24.5 -43t-19.5 -19q-8 0 -16 7.5t-8 12.5q0 4 7.5 18.5t17.5 34t21 40
t19 35.5h27q0 -3 3 -4t3 -9z" />
    <glyph glyph-name="copyright2" unicode="&#x3b;&#x3b;For&#x20;Education&#x20;Used&#x20;Only&#x3b;&#x3b;" horiz-adv-x="370" 
d="M321 297q0 -4 -1.5 -18t-4.5 -23q-4 -10 -13.5 -26t-20.5 -32t-22.5 -28t-18.5 -13q-2 0 -4 -4.5t-5 -6.5q-8 -5 -20.5 -5.5t-16.5 -0.5q-20 0 -29.5 3t-23.5 11q-12 6 -25.5 20t-25.5 32t-20 36t-8 32t7 33t19.5 37t29 32t34.5 18q7 2 15.5 3t16.5 3q6 1 17 1h15
q1 0 9 -0.5t17.5 -2t20 -3.5t18.5 -5q5 -2 12.5 -8.5t12.5 -11.5q11 -12 9.5 -27t2.5 -26q1 -4 2 -9.5t1 -10.5zM303 301q0 6 -1 15t-4 18t-7.5 17t-11.5 11q-9 5 -24 7t-19 2q-5 0 -19 -5.5t-24 -11.5q9 3 15 -0.5t9.5 -9.5t5.5 -12.5t2 -9.5q0 -5 -3 -18t-7 -22
q-5 -8 -11 -15t-9 -13q6 -8 16.5 -9.5t22.5 -1.5t24 -0.5t21 -6.5q10 19 17 34t7 31zM197 317q-2 2 -3.5 4t-6.5 2q-3 0 -5 -5.5t-3.5 -12.5t-2.5 -14t-1 -10q5 9 12 18.5t10 17.5zM181 357q-2 4 -6 7.5t-9 3.5q-15 0 -29.5 -11t-26 -26t-18.5 -31.5t-7 -28.5q0 -31 43 -70
q0 2 -1 4l-2 4q8 30 18.5 62.5t9.5 57.5q8 8 15 14t13 14zM254 210q-17 -2 -24 -2h-11q-25 0 -36.5 13t-21.5 35q0 -8 -4 -16t-6 -15q-2 -5 -1 -11.5t0 -11.5q-1 -4 -3 -8t-2 -8q11 -5 24 -10.5t24 -5.5q7 0 16.5 3t18.5 8.5t16.5 13t9.5 15.5z" />
    <glyph glyph-name="registered2" unicode="&#x3b;&#x3b;Registered&#x3b;&#x3b;" horiz-adv-x="370" 
d="M321 297q0 -4 -1.5 -18t-4.5 -23q-4 -10 -13.5 -26t-20.5 -32t-22.5 -28t-18.5 -13q-2 0 -4 -4.5t-5 -6.5q-8 -5 -20.5 -5.5t-16.5 -0.5q-20 0 -29.5 3t-23.5 11q-12 6 -25.5 20t-25.5 32t-20 36t-8 32t7 33t19.5 37t29 32t34.5 18q7 2 15.5 3t16.5 3q6 1 17 1h15
q1 0 9 -0.5t17.5 -2t20 -3.5t18.5 -5q5 -2 12.5 -8.5t12.5 -11.5q11 -12 9.5 -27t2.5 -26q1 -4 2 -9.5t1 -10.5zM303 301q0 6 -1 15t-4 18t-7.5 17t-11.5 11q-9 5 -24 7t-19 2q-5 0 -19 -5.5t-24 -11.5q9 3 15 -0.5t9.5 -9.5t5.5 -12.5t2 -9.5q0 -5 -3 -18t-7 -22
q-5 -8 -11 -15t-9 -13q6 -8 16.5 -9.5t22.5 -1.5t24 -0.5t21 -6.5q10 19 17 34t7 31zM197 317q-2 2 -3.5 4t-6.5 2q-3 0 -5 -5.5t-3.5 -12.5t-2.5 -14t-1 -10q5 9 12 18.5t10 17.5zM181 357q-2 4 -6 7.5t-9 3.5q-15 0 -29.5 -11t-26 -26t-18.5 -31.5t-7 -28.5q0 -31 43 -70
q0 2 -1 4l-2 4q8 30 18.5 62.5t9.5 57.5q8 8 15 14t13 14zM254 210q-17 -2 -24 -2h-11q-25 0 -36.5 13t-21.5 35q0 -8 -4 -16t-6 -15q-2 -5 -1 -11.5t0 -11.5q-1 -4 -3 -8t-2 -8q11 -5 24 -10.5t24 -5.5q7 0 16.5 3t18.5 8.5t16.5 13t9.5 15.5z" />
    <glyph glyph-name="trademark2" unicode="&#x3b;&#x3b;Trademark&#x3b;&#x3b;" horiz-adv-x="370" 
d="M321 297q0 -4 -1.5 -18t-4.5 -23q-4 -10 -13.5 -26t-20.5 -32t-22.5 -28t-18.5 -13q-2 0 -4 -4.5t-5 -6.5q-8 -5 -20.5 -5.5t-16.5 -0.5q-20 0 -29.5 3t-23.5 11q-12 6 -25.5 20t-25.5 32t-20 36t-8 32t7 33t19.5 37t29 32t34.5 18q7 2 15.5 3t16.5 3q6 1 17 1h15
q1 0 9 -0.5t17.5 -2t20 -3.5t18.5 -5q5 -2 12.5 -8.5t12.5 -11.5q11 -12 9.5 -27t2.5 -26q1 -4 2 -9.5t1 -10.5zM303 301q0 6 -1 15t-4 18t-7.5 17t-11.5 11q-9 5 -24 7t-19 2q-5 0 -19 -5.5t-24 -11.5q9 3 15 -0.5t9.5 -9.5t5.5 -12.5t2 -9.5q0 -5 -3 -18t-7 -22
q-5 -8 -11 -15t-9 -13q6 -8 16.5 -9.5t22.5 -1.5t24 -0.5t21 -6.5q10 19 17 34t7 31zM197 317q-2 2 -3.5 4t-6.5 2q-3 0 -5 -5.5t-3.5 -12.5t-2.5 -14t-1 -10q5 9 12 18.5t10 17.5zM181 357q-2 4 -6 7.5t-9 3.5q-15 0 -29.5 -11t-26 -26t-18.5 -31.5t-7 -28.5q0 -31 43 -70
q0 2 -1 4l-2 4q8 30 18.5 62.5t9.5 57.5q8 8 15 14t13 14zM254 210q-17 -2 -24 -2h-11q-25 0 -36.5 13t-21.5 35q0 -8 -4 -16t-6 -15q-2 -5 -1 -11.5t0 -11.5q-1 -4 -3 -8t-2 -8q11 -5 24 -10.5t24 -5.5q7 0 16.5 3t18.5 8.5t16.5 13t9.5 15.5z" />
    <glyph glyph-name="multiply2" unicode="&#x3b;&#x3b;Multiply&#x3b;&#x3b;" horiz-adv-x="370" 
d="M321 297q0 -4 -1.5 -18t-4.5 -23q-4 -10 -13.5 -26t-20.5 -32t-22.5 -28t-18.5 -13q-2 0 -4 -4.5t-5 -6.5q-8 -5 -20.5 -5.5t-16.5 -0.5q-20 0 -29.5 3t-23.5 11q-12 6 -25.5 20t-25.5 32t-20 36t-8 32t7 33t19.5 37t29 32t34.5 18q7 2 15.5 3t16.5 3q6 1 17 1h15
q1 0 9 -0.5t17.5 -2t20 -3.5t18.5 -5q5 -2 12.5 -8.5t12.5 -11.5q11 -12 9.5 -27t2.5 -26q1 -4 2 -9.5t1 -10.5zM303 301q0 6 -1 15t-4 18t-7.5 17t-11.5 11q-9 5 -24 7t-19 2q-5 0 -19 -5.5t-24 -11.5q9 3 15 -0.5t9.5 -9.5t5.5 -12.5t2 -9.5q0 -5 -3 -18t-7 -22
q-5 -8 -11 -15t-9 -13q6 -8 16.5 -9.5t22.5 -1.5t24 -0.5t21 -6.5q10 19 17 34t7 31zM197 317q-2 2 -3.5 4t-6.5 2q-3 0 -5 -5.5t-3.5 -12.5t-2.5 -14t-1 -10q5 9 12 18.5t10 17.5zM181 357q-2 4 -6 7.5t-9 3.5q-15 0 -29.5 -11t-26 -26t-18.5 -31.5t-7 -28.5q0 -31 43 -70
q0 2 -1 4l-2 4q8 30 18.5 62.5t9.5 57.5q8 8 15 14t13 14zM254 210q-17 -2 -24 -2h-11q-25 0 -36.5 13t-21.5 35q0 -8 -4 -16t-6 -15q-2 -5 -1 -11.5t0 -11.5q-1 -4 -3 -8t-2 -8q11 -5 24 -10.5t24 -5.5q7 0 16.5 3t18.5 8.5t16.5 13t9.5 15.5z" />
    <glyph glyph-name="divide2" unicode="&#x3b;&#x3b;Divide&#x3b;&#x3b;" horiz-adv-x="374" 
d="M228 314q0 -9 -6 -15t-14 -10.5t-15 -6.5t-8 -2q-12 0 -18.5 12t-9.5 26q10 11 22.5 18.5t22.5 7.5q6 0 16 -11t10 -19zM345 220q0 -8 -3 -20t-7 -23q-8 0 -17 2.5t-18 2.5q-48 0 -85 -6.5t-64 -14t-45 -13.5t-27 -6q-11 0 -23 10.5t-12 24.5q0 12 13.5 22t33.5 17.5
t44 13t45 9.5t36.5 5.5t18.5 1.5q4 0 14.5 -1t24 -2.5t28.5 -3.5t27 -5q4 -2 8 -6zM228 93q0 -9 -6 -15t-14 -10.5t-15 -6.5t-8 -2q-12 0 -18.5 12t-9.5 26q10 11 22.5 18.5t22.5 7.5q6 0 16 -11t10 -19z" />
    <glyph glyph-name="rulakkhangyao" unicode="&#xc4;&#xd2;" horiz-adv-x="639" 
d="M329 231q0 -4 -3.5 -33.5t-8.5 -70t-11 -83t-10 -72.5q-5 -28 -13.5 -59.5t-16.5 -65.5q-1 -2 -2 -3q-3 -3 -10 -3q-5 0 -11 8.5t-11 19t-8.5 20t-3.5 11.5q0 4 3 14t7 22t8 25t6 23q7 32 14.5 75t14 82.5t10.5 68.5t4 34q0 32 -16 55t-48 23q-9 0 -26.5 -2t-29.5 -10
q-8 -5 -13.5 -15.5t-9.5 -22.5t-6 -23t-3 -18q-2 -16 -9 -31t-3 -30q2 -11 8 -26.5t2 -26.5q-4 -13 -16 -33t-23 -36q-15 9 -30 16t-15 25q0 4 5 28t12.5 56.5t16 66.5t16.5 59q2 7 5.5 18t6.5 23.5t5 23.5t2 18l6 8t13 4t14.5 -7.5t14.5 -7.5t29.5 5t29.5 5q9 0 27 -8
t32 -15q8 -5 21 -18.5t16 -27.5q3 -9 4.5 -22.5t2 -26.5t1 -24t0.5 -16zM585 299q0 -25 -8 -62.5t-19.5 -81t-24.5 -88t-23 -84t-15 -69t-1 -42.5q-5 0 -5.5 -3.5t-11.5 -3.5q-9 0 -14.5 5.5t-8.5 13t-4 14.5t-1 10t6.5 31.5t17 69.5t22 87.5t22 87.5t17 69t6.5 32
q0 10 -2.5 15t-7.5 14q-30 -18 -59.5 -36.5t-51.5 -48.5q-5 0 -10.5 3t-8.5 5q-2 7 -8 16.5t-6 17.5q0 22 18 43.5t43 39t52.5 28.5t45.5 11q15 0 23.5 -12.5t12 -29t4 -31.5t0.5 -21z" />
    <glyph glyph-name="lulakkhangyao" unicode="&#xc6;&#xd2;" horiz-adv-x="672" 
d="M369 306q0 -4 -2 -20.5t-5.5 -38.5t-8.5 -46t-10 -44q-19 -71 -42.5 -141t-43.5 -140q0 -2 -2 -6.5t-5 -9.5t-7 -9t-9 -4h-18q0 5 -6 9.5t-6 15.5q0 4 11 35t26 73.5t30.5 89.5t24.5 83q3 11 6 30.5t5.5 39t4.5 35.5t2 21q0 4 -1 11t-3 14t-5.5 11.5t-9.5 4.5
q-19 0 -31.5 -20.5t-23 -51t-20.5 -66t-23.5 -66t-33 -51t-47.5 -20.5q-11 0 -23 10.5t-21.5 24t-15.5 25.5t-6 14q0 10 6.5 30.5t11.5 37.5h36q0 -11 -2 -24.5t-2 -24.5q0 -9 2.5 -14l6.5 -13h15q16 8 28.5 21.5t21 29t14 31.5t9.5 31q2 11 4.5 28t6.5 28q1 3 7.5 22t17 40
t23.5 38t28 17q4 0 13.5 -5t20 -12.5t21.5 -16.5t20 -17q-1 -8 4.5 -19t5.5 -21zM607 298q0 -25 -8 -62.5t-19.5 -81t-24.5 -88t-23 -84t-15 -69t-1 -42.5q-5 0 -5.5 -3.5t-11.5 -3.5q-9 0 -14.5 5.5t-8.5 13t-4 14.5t-1 10t6.5 31.5t17 69.5t22 87.5t22 87.5t17 69t6.5 32
q0 10 -2.5 15t-7.5 14q-30 -18 -59.5 -36.5t-51.5 -48.5q-5 0 -10.5 3t-8.5 5q-2 7 -8 16.5t-6 17.5q0 22 18 43.5t43 39t52.5 28.5t45.5 11q15 0 23.5 -12.5t12 -29t4 -31.5t0.5 -21z" />
    <glyph glyph-name=".notdef" horiz-adv-x="750" 
d="M125 0v625h500v-625h-500zM146 16h458q5 0 5 5v583q0 5 -5 5h-458q-5 0 -5 -5v-583q0 -5 5 -5zM349 -1h-1v0h1h-1v0h1zM375 -1v-1h-1v1h1zM375 -2v1h-1v-1h1zM381 -1v0v0v-1v1h-2v-1v1h1v0h1zM380 -1h1v0h-1v0zM390 -1h-2v-1h2v1h-1h1v-1h-2v1h2zM390 -1v0h2v0v-1v1h-2
v-1v1zM350 0v-2h-3v2h3zM350 -2v2h-3v-2h3zM357 -1v-1h-1v1h1zM357 -2v1h-1v-1h1zM376 -1v-1h1h-1v1zM412 -1v-1h-2v1h2v0zM412 -2v1h-2v-1h2zM407 -1v-1h1v1v-1h-1v1zM392 -1h2h-1v-1v1h-1zM370 -1h1v-1h-1v1h1v0h-1zM370 -2h1v1h-1v-1zM374 -1v0h-2v-1v1h2zM372 -1h2v0h-2
v0zM388 -1v0v0zM388 -1v-1v1zM354 -2h-2h2zM354 -1v0h-2v-1v1h2v0h-2h2zM331 -1h-2v-1h2h-2v1h2zM355 -1v-1h-1v1h1zM355 -2v1h-1v-1h1zM334 -1v0h-1v-1v1h1zM333 -1h1v0h-1v0zM333 -1v-1h-2v1h2zM333 -2v1h-2v-1h2zM364 -1v0h2v0v0h-1v-1v1h-1v0zM383 -1v-1h1h-1v1zM382 -1
v-1h1h-1v1zM368 -2v1h1v-1v1h-1v-1zM398 -1v0h1v-1v1h-2v-1v1h1zM397 -1h1v0h-1v0zM372 -1v0v0zM372 -1v-1v1zM341 -1h-1v-1h1v1h-1h1v-1h-1v1h1zM342 -1v0h1v0v-1v1h-1v-1v1zM344 -1h2h-1v-1v1h-1zM339 -1v-1v1v0zM338 -1v0h1v-1v1h-2v-1v1h1zM337 -1h1v0h-1v0zM406 -1v0h1
v-1v1h-2v-1v1h1zM405 -1h1v0h-1v0zM408 -2h2h-2zM408 -1h2h-2zM408 -1h2h-2zM362 -2h1h-1zM363 -1v0v0v-1v1h-1v-1v1v0h1zM362 -1h1v0h-1v0zM405 -2h-2h2zM403 -1h2h-2zM403 -1h2h-2zM401 -1h2v-1h-2h2v1h-2zM401 -1h2h-2v0v0zM358 -1h1v-1h-1h1v1h-1zM358 -1h1h-1v0v0z
M399 -2h2h-2zM399 -1h2h-2zM399 -1h2h-2zM387 -1v0v0v-1v1h-1v-1v1h1zM386 -1h1v0h-1v0zM335 -1v0h2v0v0h-1v-1v1h-1v0zM395 -1h1v-1h-1h1v1h-1zM395 -1h1h-1v0v0z" />
    <glyph glyph-name=".null" 
 />
    <glyph glyph-name="nonmarkingreturn" horiz-adv-x="283" 
 />
    <glyph glyph-name="space" unicode=" " horiz-adv-x="337" 
 />
    <glyph glyph-name="exclam" unicode="!" horiz-adv-x="261" 
d="M211 403q0 -3 -1 -12t-3.5 -21t-5.5 -25.5t-6 -23.5q-6 -18 -13 -41t-14.5 -47.5t-15.5 -49t-17 -45.5q-1 -3 1 -8t2 -8q-3 -3 -4.5 -6t-9.5 -3t-8 0.5t-7 4.5q0 2 -2 6.5t-2 12.5q0 3 3 15t7.5 28.5t9.5 35t8 33.5q1 5 5 14t6 19q8 36 13.5 76t11.5 80h16q12 0 19 -12.5
t7 -22.5zM134 19q0 -15 -9.5 -17.5t-11.5 -2.5q-13 0 -23.5 9.5t-10.5 14.5q0 11 7.5 24t20.5 13q5 0 10 -5.5t8.5 -12t6 -13.5t2.5 -10z" />
    <glyph glyph-name="quotedbl" unicode="&#x22;" horiz-adv-x="219" 
d="M205 421q0 -3 -5.5 -13t-13 -24t-17 -30.5t-16.5 -32.5l-7 -7t-13 -5q-17 0 -17 17q0 1 6 16.5t15 35t18.5 38t16.5 25.5h28q0 -3 2.5 -8t2.5 -12zM129 440q0 -5 -7.5 -25.5t-18 -43t-21 -40.5t-16.5 -18q-8 0 -15 7t-7 12q0 3 6.5 17t15.5 32.5t18.5 38t15.5 33.5h24
q0 -3 2.5 -4.5t2.5 -8.5z" />
    <glyph glyph-name="numbersign" unicode="#" horiz-adv-x="390" 
d="M372 273q0 -8 -6 -13t-13 -7q-11 -2 -28 -1.5t-31 -6.5t-25.5 -23.5t-11.5 -25.5q0 -10 7 -13.5t17 -5.5t21 -4t19 -9v-23q-8 -11 -19 -13.5t-22.5 -2.5h-22.5t-18 -6q-11 -8 -17 -27.5t-11 -36.5q0 -2 -0.5 -10.5t-1.5 -18.5t-3.5 -18t-8.5 -8q-8 0 -9 2.5t-7 2.5
q0 4 -2.5 8t-2.5 13q0 5 1.5 14t4 20t5.5 22.5t6 20.5q-3 4 -4 8.5t-9 4.5q-18 0 -26.5 -13t-11.5 -30t-2.5 -32.5t2.5 -19.5q-3 -4 -7 -8t-12 -4q-12 0 -16.5 9t-4 21t3.5 24.5t6 20.5l-11 13q-9 -4 -20.5 -12t-19.5 -8q-5 0 -8.5 5t-6.5 11t-4.5 12t-1.5 9q0 15 13 25
t29 17t30.5 11.5t17.5 7.5q15 14 20 39q-6 5 -15 10.5l-18 11t-15.5 10.5t-6.5 10q0 13 10 20t23 10t23.5 3.5t12.5 1.5q8 4 15 25.5t14.5 46t16.5 44t21 19.5q8 0 15 -9t7 -18q0 -5 -5.5 -16.5t-12 -24t-12 -24.5t-5.5 -16v-20q4 -3 5.5 -3h9.5q20 0 29 16t15.5 35t13.5 35
t23 16q6 0 9.5 -3.5t6 -7.5t3.5 -8t1 -5q0 -9 -7.5 -25t-14.5 -31q9 -9 21 -10t17 -4q2 -2 12 -2.5t10 -7.5v-20zM227 220q-3 4 -7 6t-8 6q-6 -4 -13.5 -8.5t-13.5 -12.5v-27h19q10 8 13.5 18t9.5 18z" />
    <glyph glyph-name="dollar" unicode="$" horiz-adv-x="344" 
d="M312 286q-2 -7 -8 -14.5t-14.5 -13.5t-18 -10t-18.5 -4t-20 8t-20 8q-5 0 -6 -0.5t-1 -1.5t-0.5 -1.5t-5.5 -0.5q-9 0 -15 7.5t-15 7.5t-21.5 -7.5t-12.5 -13.5q0 -4 16 -13t34.5 -19.5t34.5 -20t16 -12.5t-2 -10t-5 -16t-7.5 -18.5t-9.5 -17.5q-2 -3 -8.5 -8.5
t-8.5 -10.5q-2 -3 1.5 -8t5.5 -11q-9 -16 -16 -29t-12 -26.5t-6 -28.5t2 -35q-2 -3 -7 -8.5t-9 -8.5q-17 5 -23 18t-7 29.5t2 34.5t4 34q1 0 1 1q-2 2 -10 2q-9 0 -21 -9.5t-24 -9.5q-11 0 -19 6.5t-8 14.5q0 14 7 20q29 20 61 36t60 36q-5 8 -20.5 14.5t-26.5 11.5
q-29 15 -41.5 34.5t-12.5 33.5q0 15 15 32t34 27q13 7 32 13.5t33 14.5q3 10 4 22.5t2 25.5t4 25t11 23h35q0 -21 -5 -37t-5 -37q0 -7 5 -18.5t2 -22.5q14 -9 32.5 -19.5t35.5 -18.5z" />
    <glyph glyph-name="percent" unicode="%" horiz-adv-x="566" 
d="M405 426q0 -7 -11 -22t-24.5 -30.5t-25.5 -29t-15 -17.5q-28 -34 -55.5 -71t-51.5 -74.5t-42.5 -73.5t-27.5 -68q-4 -16 -16.5 -27.5t-29.5 -11.5q-11 0 -19.5 9.5t-8.5 18.5q0 3 17 36t44.5 80t61 101t66.5 99.5t61.5 76t45.5 30.5t24 -7.5t7 -18.5zM190 305
q0 -9 -7 -15t-17.5 -10t-22 -6t-19.5 -3q-4 11 -8.5 23t-4.5 21q0 8 3 13t4 17h21q11 0 20.5 -4.5t16 -11t10.5 -13.5t4 -11zM360 98q0 -8 -8 -19l-16 -22q-4 0 -13 2.5t-17 3.5q-5 13 -12.5 29t-7.5 25l7 14h18q5 0 13 -3t16 -7.5t14 -10.5t6 -12z" />
    <glyph glyph-name="ampersand" unicode="&#x26;" horiz-adv-x="412" 
d="M390 256q-39 -20 -80.5 -43.5t-73.5 -49.5q-5 -3 -3.5 -14t-0.5 -17q-4 -15 -7 -31.5t-9 -33.5t-16 -34t-27 -33q-14 12 -19 27t-5 31.5t2 33t1 31.5q-1 4 -5 8t-12 4t-8 -2.5t-7 -2.5q-12 0 -22 10.5t-17.5 23.5t-12 25t-4.5 15q0 10 10.5 23.5t24 26.5t25.5 22t14 10
q6 2 17.5 3.5t16.5 4.5q12 5 18.5 25.5t11 43.5t9 41.5t12.5 18.5q15 0 20 -15.5t5 -24.5q0 -4 -4.5 -22.5t-10.5 -40t-10.5 -40t-4.5 -22.5q0 -8 6 -12t14 -4q4 0 23 7t41 16t41.5 16t23.5 7h18q0 -7 2.5 -15t2.5 -17zM167 222l-6 6q-8 -2 -17 -11.5t-11 -16.5h20
q3 4 6.5 5.5t7.5 4.5v12z" />
    <glyph glyph-name="quotesingle" unicode="'" horiz-adv-x="115" 
d="M145 430q0 -26 -17.5 -58.5t-48.5 -61.5h-18q0 4 -2 8t-2 13q0 4 5.5 16.5t13.5 29t17 34.5t15 32q2 3 8 8t13 8q2 -8 9 -14t7 -15z" />
    <glyph glyph-name="parenleft" unicode="(" horiz-adv-x="318" 
d="M280 510q0 -11 -5 -19t-11.5 -14t-13.5 -10.5t-10 -9.5q-33 -54 -58 -98.5t-41 -90t-24 -96t-8 -115.5q0 -28 0.5 -51t6 -46t17 -48.5t34.5 -56.5q4 -5 7 -19t3 -27h-30q-8 -1 -17 9.5t-14 18.5q-11 20 -22.5 46.5t-16.5 54.5q-3 18 -6 41t-5.5 45.5t-3.5 40.5t-1 26
q0 7 2.5 24t5.5 37.5t6 42.5t3 40q1 18 8.5 49.5t19.5 67.5t28 73t34 67t36.5 49t36.5 19q14 0 26.5 -14.5t12.5 -35.5z" />
    <glyph glyph-name="parenright" unicode=")" horiz-adv-x="289" 
d="M240 353q0 -7 -1.5 -24t-3.5 -37.5t-5 -41.5t-6 -37q-3 -17 -8.5 -38.5t-11.5 -44t-12.5 -43t-11.5 -35.5q-1 -4 -10 -23t-21.5 -45.5t-27 -56t-28.5 -54.5t-25.5 -41.5t-16.5 -16.5q-11 0 -12.5 5t-9.5 5q0 6 -3.5 9t-3.5 19q0 3 12.5 28t32 63.5t41.5 87t41.5 98.5
t32 98.5t12.5 86.5q0 14 -2.5 35t-7.5 39q-4 13 -10 27t-13.5 26t-14.5 20t-12 8t-7 -1.5t-3 -3t-3 -2.5t-7 -1t-12.5 6t-15 14t-13 16.5t-5.5 13.5q0 20 5.5 30.5t13.5 15t17.5 5t17.5 0.5q36 0 59 -19.5t36 -50t18 -67.5t5 -73z" />
    <glyph glyph-name="asterisk" unicode="*" horiz-adv-x="327" 
d="M281 298q-5 -5 -9 -8.5t-11 -3.5q-3 0 -12.5 2.5t-20 6t-20.5 6t-13 2.5q-6 0 -7 -1.5t-3 -3.5q0 -13 0.5 -26.5t0.5 -26.5q0 -5 6.5 -13t6.5 -14t-4 -9t-4 -5h-15q-14 21 -13 42t0 47q-3 0 -3 1.5t-6 1.5q-3 0 -12 -6.5t-19.5 -15t-19.5 -15t-12 -6.5q-5 0 -13 8.5
t-8 14.5q0 9 7.5 16.5t17 14t17 12.5t7.5 12t-3 7t-6 3q-3 1 -12 7t-18 15t-16.5 18t-7.5 16q0 6 6 10.5t12 4.5q3 0 12.5 -5.5t21 -13t24 -16.5t22.5 -15q3 0 4 2t3 4q1 5 1.5 11t1.5 12q2 11 4 28t6 32q1 4 3.5 10.5t5.5 12.5t6 10t6 4t7 -4.5t7.5 -9.5t6 -10t2.5 -6
q0 -6 -7.5 -20.5t-12.5 -27.5v-8q7 0 17 0.5t18 3.5q5 2 10 9t12 7q5 0 9 -2l4 -2q0 -2 1.5 -5t1.5 -9q0 -3 -6.5 -10t-15.5 -15.5t-19.5 -18t-17.5 -16.5q8 -10 18 -13.5t19.5 -6.5t18 -8t13.5 -18z" />
    <glyph glyph-name="plus" unicode="+" horiz-adv-x="349" 
d="M296 253q0 -8 -11.5 -13t-26 -9.5t-27.5 -9.5t-16 -12q-8 -23 -9 -46.5t-6 -46.5q-3 -14 -6.5 -31t-7.5 -33q-3 3 -12.5 10.5t-9.5 14.5q0 4 2.5 19.5t5 33.5t5 33.5t2.5 19.5q0 6 -4.5 11.5t-12.5 5.5t-20.5 -2t-20.5 -2q-11 0 -28 1.5t-28 15.5q1 6 -2.5 12t-3.5 14
q0 12 12.5 18t18.5 6q7 0 17 -4t18 -4q5 0 15 2t20 5t18 5.5l8 2.5q9 28 12 65q1 3 4 8.5t6 8.5h16q7 0 7 -7.5v-13.5q0 -10 -4.5 -22.5t-4.5 -20.5q0 -6 3.5 -9t7.5 -4t8 -1h5q8 0 13.5 2t13.5 2q14 0 18.5 -8.5t4.5 -16.5z" />
    <glyph glyph-name="comma" unicode="," horiz-adv-x="121" 
d="M85 35q0 -7 -1.5 -11.5t-1.5 -10.5t-11 -23.5t-26 -36.5t-30.5 -34t-23.5 -15q-6 0 -7 2t-6 2q0 3 -2 9t-2 10q7 6 16.5 16.5t18 21t14.5 19.5t6 13q0 3 -4 7.5t-9.5 9.5t-9.5 10t-4 9q0 7 3.5 13.5t7.5 11.5q8 10 23 15.5t21 5.5q10 0 15.5 -5t8.5 -12t3.5 -14.5
t0.5 -12.5z" />
    <glyph glyph-name="hyphen" unicode="-" horiz-adv-x="349" 
d="M317 218q0 -9 -9 -23q-6 0 -14 1t-16 1q-42 0 -75 -3.5t-57.5 -7t-40.5 -7t-24 -3.5q-9 0 -20 5.5t-11 13.5q0 7 12 12t29.5 9.5t39 7.5t40 4.5t32 2.5t16.5 1q8 0 35 -2t50 -4q7 -4 13 -8z" />
    <glyph glyph-name="period" unicode="." horiz-adv-x="156" 
d="M124 47q0 -7 -6.5 -15t-15 -15t-17.5 -12t-14 -5q-12 0 -18 7t-8 16.5t-2.5 20t-3.5 17.5q1 3 7.5 6.5t14.5 6.5t15.5 5t10.5 2q6 0 12.5 -5.5t11.5 -11.5q6 -8 13 -17z" />
    <glyph glyph-name="slash" unicode="/" horiz-adv-x="354" 
d="M336 448q-21 -37 -43.5 -81.5t-44.5 -90.5t-43 -92t-39.5 -86.5t-33 -74t-23.5 -54.5q-5 -12 -10.5 -16t-13.5 -4q-10 0 -18 8.5t-8 13.5q0 2 13 26t31 56t36.5 66.5t29.5 58.5q11 25 24.5 57t28 66t30 69t30.5 67q2 6 11 14.5t15 8.5q7 0 14.5 -5t13.5 -7z" />
    <glyph glyph-name="zero" unicode="0" horiz-adv-x="302" 
d="M271 341q0 -13 -4 -18l-8 -10q4 -21 4.5 -49.5t-4.5 -53.5q-1 -6 -6.5 -23.5t-14.5 -41t-21.5 -49t-27.5 -47t-31.5 -35.5t-34.5 -14q-20 0 -39.5 16.5t-34.5 39.5t-24 46.5t-9 38.5q0 6 2 18t5.5 26t7.5 28.5t8 25.5q5 15 16 37.5t26 39.5q10 12 26.5 26.5t33 27
t31 21.5t20.5 9q10 0 23.5 -6.5t26 -16t21 -19.5t8.5 -17zM202 248q0 15 -7 27t-17 22q-11 -11 -27.5 -23t-21.5 -21q-6 -11 -14 -26t-14.5 -31t-11 -29t-4.5 -19q4 -17 9 -29q5 -11 10.5 -20t11.5 -9q17 0 32.5 22t27.5 49.5t19 53t7 33.5z" />
    <glyph glyph-name="one" unicode="1" horiz-adv-x="237" 
d="M156 347q0 -5 -13.5 -30.5t-31 -59t-35 -70.5t-24.5 -64q-5 -18 -2.5 -43t11.5 -47q0 -2 2 -5q2 -2 3.5 -5.5t4.5 -5.5q-7 -4 -11.5 -14t-16.5 -10t-23.5 11.5t-20.5 25.5t-14.5 27.5t-5.5 16.5q0 5 3.5 26.5t9.5 49t13 56t14 47.5q1 2 10.5 25t24 49.5t30.5 48t30 21.5
t22.5 -7t13 -16t5.5 -17t1 -10z" />
    <glyph glyph-name="two" unicode="2" horiz-adv-x="317" 
d="M294 158q0 -11 -8.5 -19.5t-19 -15.5t-21 -12t-14.5 -8q-5 -5 -26.5 -22t-47.5 -36t-51.5 -33.5t-39.5 -14.5q-9 0 -20 6t-21 15t-17 18.5t-7 16.5q0 8 8.5 25t21.5 39t29 46.5t32 48t29 43.5t21 33v15q-2 2 -2.5 3t-1.5 1h-3h-7q-20 0 -30.5 -9.5t-18 -21.5t-15 -21.5
t-21.5 -9.5q-9 0 -16 5.5t-11.5 13t-6.5 15t-2 11.5q0 18 20.5 37t47 34.5t51.5 25.5t33 10q9 0 16 -3t14 -5q5 -8 9 -18.5t6.5 -21t3.5 -19.5t1 -15q0 -15 -14 -44t-32.5 -60t-36 -58.5t-24.5 -39.5l9 -9q12 9 31.5 22t40.5 26t41.5 22t35.5 9q10 0 22 -7t12 -18z" />
    <glyph glyph-name="three" unicode="3" horiz-adv-x="301" 
d="M228 195q0 -8 -6 -25t-11 -27q-2 -4 -21.5 -26.5t-45 -48t-50 -46.5t-36.5 -21q-8 0 -21 8t-13 16t5 18.5t10 15.5q29 26 64.5 53t61.5 62q1 4 -3.5 7.5t-13.5 3.5q-5 0 -18 -7.5t-28 -16.5t-28.5 -16.5t-17.5 -7.5t-9.5 3.5t-10.5 8.5t-8.5 10t-3.5 9q0 10 13.5 29.5
t31 40.5t33 39.5t19.5 26.5l-3 17q-12 -7 -26 -20.5t-22 -13.5q-7 0 -13 5t-10 11t-6 11.5t-2 6.5q0 17 11.5 30.5t27.5 23t33 14.5t29 5q16 0 25 -7t13 -17.5t5 -22t1 -19.5q0 -4 -3 -12t-7.5 -17.5t-9.5 -19.5l-9 -18q5 -6 16.5 -8t21.5 -7q18 -11 26.5 -25.5t8.5 -25.5z
" />
    <glyph glyph-name="four" unicode="4" horiz-adv-x="269" 
d="M205 178q-1 -8 -12.5 -10.5t-27 -3.5t-31 -3.5t-25.5 -11.5q-7 -6 -11.5 -15.5t-8.5 -21l-8 -23t-9 -20.5q-4 -8 -2 -16t4 -16.5t1 -17t-10 -16.5q-15 7 -23.5 23t-8.5 29q0 3 2.5 15t6 25.5t6 25.5t2.5 16q0 3 -8 14.5t-18 24.5t-18 25t-8 16q0 5 4 20.5t11 35.5
t17 41.5t22 39.5t25 30t27 12q8 0 18 -9.5t10 -16.5q0 -8 -2.5 -10.5t-4.5 -5.5q-5 -3 -18.5 -20t-28 -37t-26 -39t-11.5 -28q0 -11 12 -17.5t16 -6.5q5 0 13.5 11t17 25t15 26t7.5 14q2 5 6 15.5t9 19.5q2 3 9 5t14 5q4 -3 7.5 -8.5t3.5 -13.5q0 -6 -3.5 -19t-8.5 -26.5
t-10.5 -24.5t-8.5 -14q4 -3 6 -7t10 -4q4 0 6.5 1t6.5 1t12 -1.5t24 -5.5v-27v0z" />
    <glyph glyph-name="five" unicode="5" horiz-adv-x="285" 
d="M285 357q-23 -4 -55 -14t-64 -23.5t-58.5 -30t-38.5 -32.5q19 -15 36 -18.5t30 -6t20 -9t7 -28.5q0 -9 -10 -27t-25 -39.5t-33.5 -44.5t-36 -41.5t-32 -30.5t-20.5 -12q-7 0 -14 7.5t-7 13.5q0 8 2.5 12.5t3.5 6.5q12 10 29.5 28t36 38t35 40t25.5 35v15q-8 -3 -22.5 0.5
t-28.5 11.5t-24 20t-10 27q0 5 4.5 24t12 40t18.5 37.5t24 16.5q8 0 13 -6t12 -6q4 0 21 6t36.5 13t36.5 13t21 6q8 0 27 -2.5t32 -2.5z" />
    <glyph glyph-name="six" unicode="6" horiz-adv-x="285" 
d="M217 173q0 -12 -14 -40t-33.5 -57t-41 -51t-36.5 -22q-12 0 -20 9.5t-13.5 22t-7.5 25t-2 18.5q0 11 5.5 39.5t15 64t22 74t25.5 70.5t26 52.5t24 20.5q16 0 20 -10t4 -16q0 -8 -10.5 -22t-18.5 -29q-9 -18 -15.5 -37.5t-14.5 -39.5q-5 -11 -10.5 -26.5t-12.5 -29.5v-15
q23 10 44 22.5t29 12.5q6 0 12.5 -4t11.5 -10t8 -12t3 -10zM132 105q-11 -10 -23.5 -18.5t-15.5 -18.5q10 3 20.5 15t18.5 22z" />
    <glyph glyph-name="seven" unicode="7" horiz-adv-x="285" 
d="M269 228q0 -12 -6.5 -19t-15 -11t-17.5 -6.5t-14 -6.5q-12 -10 -20 -21.5t-13.5 -24t-10 -24t-9.5 -21.5q-13 -22 -27 -47t-25 -48q-4 1 -11 3.5t-13.5 6t-11 7.5t-4.5 9t7 18.5t16.5 31t20.5 36.5t19 35q-6 0 -13 -2.5t-14.5 -5.5t-14 -6t-11.5 -3q-8 0 -14 7t-9.5 15.5
t-5.5 16t-2 8.5q0 22 19.5 32.5t44 17.5t47 14t28.5 23q3 7 7.5 19t4.5 22q0 13 -9 18.5t-17 5.5q-19 0 -36.5 -7.5t-32.5 -16t-27 -16t-19 -7.5q-4 0 -9.5 5t-10 11.5t-8 13.5t-3.5 11q0 9 7 18t15 16q25 21 59.5 33t64.5 12h18.5t20.5 -4t18 -13t12 -27q5 -22 0 -48
q-2 -13 -4 -23.5t-1 -22.5q7 -8 18.5 -16t11.5 -19z" />
    <glyph glyph-name="eight" unicode="8" horiz-adv-x="285" 
d="M278 295q0 -9 -7 -20.5t-13 -17.5q-23 -23 -50.5 -46t-53.5 -49q9 -8 21.5 -22.5t12.5 -25.5q0 -8 -9 -25.5t-16 -29.5t-21.5 -22t-30.5 -18t-31 -12.5t-22 -4.5q-8 0 -15.5 5.5t-14.5 13t-11 16t-4 15.5q0 6 4.5 17t10 23t10 23t4.5 16t-10.5 16.5t-23.5 26t-23.5 31.5
t-10.5 33q0 24 13.5 52.5t34.5 53.5t45 41.5t45 16.5q9 0 19.5 -0.5t20 -6t18 -17.5t14.5 -35q2 -10 0 -23.5t-4 -25.5t-2.5 -20t4.5 -8t14.5 5.5t21 13t24 15t23.5 11.5q4 -4 8.5 -4.5t4.5 -11.5zM165 252q-12 17 -21.5 34.5t-14.5 33.5q-3 2 -6 5t-14 3q-13 0 -27 -12
t-25.5 -28t-19 -32t-7.5 -23q0 -5 6.5 -13.5t15 -16.5t17.5 -15.5t15 -11.5q17 17 38.5 38t42.5 38z" />
    <glyph glyph-name="nine" unicode="9" horiz-adv-x="269" 
d="M200 221q0 -5 -7 -23.5t-16 -41t-19 -45t-16 -34.5t-17 -32t-17 -40q-4 -4 -4.5 -5t-10.5 -1q-5 0 -10 3.5t-10 9t-8 11t-3 9.5q0 5 6.5 21.5t16.5 37.5t20.5 43.5t18.5 39.5q1 0 1 1q0 2 -9 2q-5 0 -13.5 -6.5t-19.5 -14t-22.5 -13.5t-21.5 -6q-9 0 -18 6t-15.5 15
t-10.5 19t-4 18q0 9 6.5 28t18 41.5t26 47t30 44t31 32.5t28.5 13q12 0 21 -7.5t15 -19t9.5 -24t3.5 -22.5q0 -8 -5 -18t-13 -10q-5 0 -8.5 4t-7 8.5t-7 8.5t-8.5 4q-8 0 -21.5 -15t-27.5 -34.5t-25 -38t-15 -26.5q-1 -1 -1 -2t9 -1q13 0 27 9.5t28.5 21t28.5 21t28 9.5
q15 0 26.5 -16.5t11.5 -31.5z" />
    <glyph glyph-name="colon" unicode=":" horiz-adv-x="156" 
d="M132 346q0 -13 -6 -21.5t-14 -14t-15 -7.5t-9 -2q-12 0 -20 8.5t-13.5 19t-8 20.5t-2.5 13q0 11 1 17.5t6 16.5h20q61 0 61 -50zM126 35q0 -12 -3.5 -16.5t-3.5 -14.5h-54q-8 7 -18 24t-10 29q0 4 2.5 11t7.5 14t11 11.5t14 4.5q9 0 19 -8t17.5 -19t12.5 -21.5t5 -14.5z
" />
    <glyph glyph-name="semicolon" unicode=";" horiz-adv-x="227" 
d="M156 336q0 -17 -11 -25t-23 -8q-8 0 -14 7.5t-10.5 17t-7 19t-2.5 13.5q0 3 1.5 10.5t5 15.5t8.5 14t12 6t14.5 -10t13.5 -22t9.5 -23.5t3.5 -14.5zM160 108q0 -31 -18 -67.5t-43 -72t-50 -67.5t-39 -53h-36q-4 5 -5.5 10t-5.5 10q24 33 52 70.5t51 73.5t35.5 68t4.5 56
q1 5 1.5 11t0.5 15h21q6 0 11.5 -5.5t10 -13.5t7 -17.5t2.5 -17.5z" />
    <glyph glyph-name="less" unicode="&#x3c;" horiz-adv-x="321" 
d="M325 361q0 -8 -9 -16t-15 -16q-25 -29 -45 -51.5t-39.5 -43.5t-41 -43t-49.5 -49q11 -14 34 -29.5t46.5 -30.5t41 -29.5t17.5 -26.5q0 -16 -10.5 -25.5t-18.5 -9.5q-12 0 -24.5 7t-25.5 17.5t-27 22.5t-27 21q-18 13 -45 26.5t-48 21.5q-2 6 -7 16.5t-5 18.5q0 10 6.5 16
t15.5 9.5t18.5 6t15.5 6.5q29 23 56.5 50t55.5 58q13 15 25 32.5t24.5 32.5t25 25t25.5 10q18 0 24 -11t6 -16z" />
    <glyph glyph-name="equal" unicode="=" horiz-adv-x="395" 
d="M341 292q0 -8 -6 -12t-11 -12q-20 -2 -42 -6t-40 -12q-8 -3 -19 -10t-22 -10t-25.5 -6t-28 -5t-24.5 -3t-16 -1h-25q-9 0 -16 13t-7 22q0 7 6.5 14.5t10.5 13.5q27 2 63 8t69.5 12t58.5 10.5t30 4.5q4 0 11.5 -1t15 -3.5t12.5 -6.5t5 -10zM361 189q0 -9 -1 -11.5t-5 -9.5
q-16 -1 -38 -3.5t-46.5 -7t-49 -11t-46.5 -13.5q-8 -3 -20 -8t-24.5 -10t-23 -9t-14.5 -4q-19 0 -23.5 10t-4.5 20q0 13 12 24t30 20t40 15.5t41.5 11t34 6.5t18.5 2q8 0 16.5 4t16.5 4q7 0 21.5 -1t29 -4.5t25.5 -9.5t11 -15z" />
    <glyph glyph-name="greater" unicode="&#x3e;" horiz-adv-x="320" 
d="M296 188q0 -9 -3 -14t-7 -9q-10 -8 -20.5 -11t-20.5 -9q-11 -7 -21 -16.5t-21 -17.5q-26 -20 -53.5 -40.5t-53.5 -42.5q-5 -4 -13 -10t-16 -11t-15.5 -9t-11.5 -4h-19q-3 4 -6.5 6t-3.5 10t4.5 12.5t5.5 10.5q9 6 26.5 19.5t38.5 30.5t42.5 35t39.5 34.5t29.5 28.5
t11.5 16t-7 15.5t-17.5 27.5t-23 35t-23.5 38q-7 12 -21.5 23.5t-25.5 22.5q-7 7 -7 27q0 23 26 23q13 0 25.5 -10t22.5 -23.5t16.5 -28t7.5 -23.5l8.5 -8.5t7.5 -9.5q7 -14 17 -31t25 -33q8 -8 22.5 -16t22.5 -16q2 -2 6.5 -8.5t4.5 -13.5z" />
    <glyph glyph-name="question" unicode="?" horiz-adv-x="378" 
d="M323 485q0 -27 -11 -56t-26 -59.5t-31.5 -61t-27.5 -59.5q-8 -21 -11.5 -50.5t-8.5 -54.5q-9 3 -16.5 10t-12.5 14.5t-7.5 14t-2.5 8.5q0 33 17 74t37 80t35.5 70.5t12.5 45.5q-2 6 2.5 11.5t4.5 14.5q0 19 -20 19q-6 0 -27 -7.5t-39 -18.5t-25.5 -25t13.5 -26v-21
q-24 1 -38.5 6.5t-22.5 12t-10.5 14t-2.5 13.5q0 19 17.5 39.5t42 36.5t51 26.5t44.5 10.5q25 0 38 -8.5t18.5 -21t6 -26.5t0.5 -26zM243 39q-10 -20 -16.5 -32.5t-26.5 -12.5q-19 0 -28.5 15.5t-9.5 26.5q0 9 3.5 12.5t3.5 10.5q16 -1 36.5 -2t37.5 -18z" />
    <glyph glyph-name="at" unicode="@" horiz-adv-x="462" 
d="M391 286q0 -6 -3.5 -22t-5.5 -27q-7 -24 -12 -48t-13 -47t-22.5 -44t-40.5 -37q-4 -2 -10.5 -1t-11.5 -1q-32 -20 -58 -36.5t-54 -16.5q-20 0 -35.5 8.5t-26.5 21.5t-17 28.5t-6 29.5q0 22 3.5 38t19.5 42q9 14 21.5 30.5t26.5 34t29.5 35t29.5 33.5q33 37 60 49.5
t56 12.5q22 0 39 -12t22 -29q2 -11 5.5 -23.5t3.5 -18.5zM359 284q0 20 -8 29t-30 9q-10 0 -23 -4.5t-18 -12.5q15 -5 20 -13.5t5 -19.5q0 -7 -3 -23.5t-7 -28.5q-2 -6 -6 -17.5t-8.5 -24.5t-8 -26t-3.5 -22q0 -15 5 -20h12q23 15 33.5 35.5t15.5 34.5q4 13 8.5 29.5t8 32
t5.5 27.5t2 15zM248 83q-3 5 -9 14.5t-11 9.5q-6 0 -14.5 -7.5t-17.5 -7.5q-10 0 -20.5 10.5t-10.5 23.5q0 14 11 38.5t24.5 49.5t26 45.5t15.5 26.5q-15 -11 -38 -34.5t-44.5 -52t-36.5 -58t-15 -52.5q0 -20 11 -32t34 -12q10 0 24.5 4t28.5 9.5t25.5 12t16.5 12.5z" />
    <glyph glyph-name="A" unicode="A" horiz-adv-x="472" 
d="M363 201q0 -14 -6 -21t-14 -12.5t-16.5 -13t-13.5 -22.5q-4 -12 -1 -25.5t4.5 -28.5t-2 -30t-18.5 -29q-24 7 -34 21t-11.5 30.5t0.5 33t2 27.5q-5 5 -6 5h-13q-44 0 -71 -10t-43.5 -25.5t-25.5 -33t-16 -33t-16.5 -25.5t-25.5 -10q-11 0 -18 6.5t-11 15t-5.5 16.5
t-1.5 11q0 17 17 36t40 50q15 21 38.5 56.5t50.5 77t55.5 84t53 76.5t43 56t26.5 22q13 0 17 -5t7 -10q3 -11 6 -27.5t5 -33.5t3 -31t1 -20q0 -5 -5 -19.5t-11 -31.5t-11 -32t-5 -21q0 -20 5 -30t11 -16t11 -11.5t5 -16.5zM254 317q-2 -8 -7.5 -17.5t-11 -19.5t-10 -19
t-4.5 -15t6 -7.5t14.5 -1t17 2t13.5 1.5q0 9 3 25t3 51h-24z" />
    <glyph glyph-name="B" unicode="B" horiz-adv-x="336" 
d="M304 257q0 -23 -16.5 -49t-39 -50t-46.5 -43.5t-40 -27.5q-6 -3 -14 -12t-16 -19t-15.5 -20t-12.5 -15q-13 -11 -29.5 -17t-30.5 -6t-24.5 11t-17.5 24.5t-10.5 25t-3.5 12.5q0 6 2.5 23.5t6.5 41.5t8.5 51.5t7.5 52.5q3 21 8.5 44.5t10.5 48t8 49t2 48.5q2 5 6.5 14.5
t5.5 12.5q19 1 45.5 6t53 11t47 10.5t27.5 4.5q15 0 28.5 -4.5t24.5 -12.5t17.5 -18t6.5 -21q0 -7 -5.5 -21.5t-12 -30t-12 -30t-5.5 -20.5q0 -12 11.5 -21.5t17.5 -20.5q-1 -5 2.5 -11.5t3.5 -20.5zM199 373q-3 2 -6.5 4t-5.5 4q-4 2 -6 2q-14 -8 -27.5 -12t-25 -11
t-21 -19t-13.5 -36q12 -9 26 -1.5t28 20.5t27 28t24 21zM166 214q-15 -10 -34 -15.5t-35.5 -12t-27.5 -16t-11 -25.5q0 -11 4.5 -20.5t4.5 -14.5q26 21 59 48.5t65 55.5h-25z" />
    <glyph glyph-name="C" unicode="C" horiz-adv-x="410" 
d="M371 138q-5 -11 -14 -26.5t-17 -21.5q-10 -8 -31.5 -17.5t-39.5 -20.5q-8 -5 -15.5 -15.5t-18.5 -14.5q-15 -5 -38.5 -10t-35.5 -5q-29 0 -52 14.5t-39 36t-24.5 47t-8.5 46.5q0 15 12 47t31.5 70t45 78.5t52 73.5t52.5 54t47 21q16 0 26.5 -11t16.5 -24.5t8.5 -25.5
t2.5 -13q0 -22 -8 -35t-14.5 -28t-8.5 -36.5t10 -59.5q-5 0 -11 -7.5t-18 -7.5q-11 0 -19 14t-15 32t-12 34t-8 21q-20 -16 -38.5 -39t-34 -47.5t-26.5 -47.5t-16 -38q-3 -8 -5.5 -15.5t-2.5 -19.5q0 -14 7.5 -24t17 -17t19 -10t13.5 -3q6 0 32.5 11.5t57 25.5t57.5 25.5
t33 11.5q13 0 19 -9t11 -14z" />
    <glyph glyph-name="D" unicode="D" horiz-adv-x="368" 
d="M344 358q0 -51 -19.5 -95t-50 -85.5t-66.5 -83t-69 -87.5h-33q-12 0 -16 14t-11 25q1 11 0 25t-2 28.5t-2 27t-1 19.5v18t0.5 26t1.5 28.5t3 26.5q2 14 7.5 31t11 36t10.5 39t7 40q1 11 -5 22t-2 22q1 7 7.5 18.5t19.5 17.5q20 10 45.5 14t39.5 4q36 0 60 -13t38 -32.5
t20 -42.5t6 -43zM286 358q0 10 -16 19.5t-32 9.5q-15 0 -26 -4t-13 -8q-8 -14 -17.5 -36.5t-17 -45t-12 -40.5t-4.5 -24v-83q12 6 35 33.5t46 62t40 67.5t17 49z" />
    <glyph glyph-name="E" unicode="E" horiz-adv-x="397" 
d="M438 461q0 -11 -15.5 -20t-39 -17t-52.5 -16.5t-56 -18t-48.5 -21t-30.5 -25.5l10 -9q12 8 27.5 13t26.5 5q15 0 30 -6t15 -21q0 -10 -4 -23.5t-9 -25.5q-15 -4 -34.5 -9.5t-40.5 -13.5t-40.5 -19t-34.5 -26q-6 -7 -11.5 -17.5t-10 -21.5t-7 -21t-2.5 -16v-41
q4 0 4.5 -2.5t11.5 -2.5q8 0 23 8t33 20t37 26.5t34.5 26.5t26 20t12.5 8q10 0 20 -11t10 -22q0 -12 -11 -28t-28.5 -33.5t-37.5 -34.5t-38.5 -30.5t-32 -22.5t-17.5 -10q-11 -3 -29.5 -2t-33.5 0q-5 5 -13 17.5t-16.5 27.5t-14.5 30t-6 25q0 4 4.5 18.5t10.5 34t13 41.5
t12 40q4 13 9.5 30.5t12 35.5t13 35.5t11.5 31.5q3 7 5 18.5t5.5 24.5t9.5 24t17 17q24 13 60.5 21t71 12t61 5t32.5 1q17 0 31 -9.5t14 -20.5z" />
    <glyph glyph-name="F" unicode="F" horiz-adv-x="350" 
d="M352 409q-18 -5 -40.5 -6t-42.5 0q-26 1 -48 -12t-39 -32.5t-26.5 -43t-9.5 -44.5q0 -11 7 -14t19 -3q6 0 15 3t18.5 7t18.5 7t15 3q13 0 14.5 -4t11.5 -4q0 -5 4 -9t4 -16q0 -23 -23.5 -40t-52.5 -29.5t-54 -21t-29 -14.5q-14 -23 -15 -36t3.5 -22.5t10.5 -18.5t6 -22
q0 -12 -4 -15.5t-4 -13.5q-5 0 -7 -4t-15 -4q-15 0 -24.5 11t-15 24.5t-8 25t-2.5 13.5q0 6 1 17.5t2.5 25.5t3.5 28.5t4 25.5q11 67 32.5 132.5t47.5 128.5q7 16 24.5 27.5t37.5 19t38 11.5t26 4q5 0 19 -3t29.5 -8.5t29.5 -11.5t18 -12v-50v0z" />
    <glyph glyph-name="G" unicode="G" horiz-adv-x="376" 
d="M310 224q0 -15 -8.5 -36.5t-22.5 -46t-32.5 -48.5t-38 -43.5t-39.5 -31.5t-37 -12q-21 0 -37 17t-26.5 39.5t-15.5 45t-5 32.5q0 13 6.5 45t18.5 72t28 82.5t35 78t40.5 58.5t43.5 23q19 0 30.5 -9.5t18 -22.5t8.5 -26.5t2 -22.5q0 -10 -3.5 -24.5t-3.5 -24.5q0 -2 -2 -4
q-3 -3 -13 -3q-11 0 -17.5 13.5t-20.5 30.5q-17 -10 -37 -44t-37.5 -76.5t-29 -85t-11.5 -69.5q0 -7 2 -16t5.5 -16.5t8.5 -12.5t12 -5q6 0 15.5 8t21 20t24 26.5t24.5 28.5q-8 5 -17 1.5t-21 -3.5q-10 0 -17 6t-11.5 14t-6.5 14.5t-2 8.5q0 9 12.5 21t28 23t30 19t18.5 10
q8 2 20.5 2h24.5q10 0 16.5 -8t10.5 -18.5t5.5 -19.5t1.5 -10z" />
    <glyph glyph-name="H" unicode="H" horiz-adv-x="406" 
d="M402 443q0 -5 -4 -15.5t-10 -22.5t-12.5 -24t-10.5 -22q0 -5 3 -14t5.5 -19t3 -20t-3.5 -19q-14 -5 -28.5 -14t-21.5 -24q-19 -38 -30 -87.5t-24 -97.5q-1 -4 -7 -15t-17 -20q-17 9 -26 23t-9 25q0 6 3.5 21.5t8.5 35.5t12 41t14 38v17q-2 3 -2.5 4t-1.5 1h-3.5h-8.5
q-5 0 -21 -8t-36 -19.5t-42 -23.5t-38 -19q-2 -14 -4.5 -32.5t-2.5 -32.5q0 -6 4 -14t8.5 -16.5t8.5 -16.5t4 -14q0 -11 -9 -20t-19 -15q-18 2 -29 15.5t-17 30t-7.5 33.5t-1.5 26q0 22 11 67.5t27 95t33.5 91.5t29.5 57q3 3 6 11t7 17.5t9.5 20t12.5 19.5q5 2 7 2.5t14 0.5
q17 0 29.5 -13.5t12.5 -24.5q0 -10 -12.5 -24.5t-25.5 -31.5q-12 -18 -20 -40t-13 -41q3 -3 3 -4v-1l2 0.5t8 0.5t19 3t28.5 7.5t31 10.5t26.5 12q13 8 22.5 22.5t18 33t16.5 38.5t20 39h36q0 -5 6.5 -14.5t6.5 -20.5z" />
    <glyph glyph-name="I" unicode="I" horiz-adv-x="273" 
d="M272 444q0 -4 -7 -18.5t-18.5 -35t-26 -45.5t-29 -51t-28 -50t-22.5 -43q-8 -16 -13 -44l-10 -56q-2 -14 -1.5 -33.5t4.5 -36.5q-3 -7 -9.5 -17t-22.5 -10q-14 0 -23.5 12.5t-15.5 28t-9 29.5t-3 16q0 10 10.5 44.5t27.5 80t37.5 96.5t40.5 93.5t36.5 70.5t26.5 28
q13 0 23.5 -8t17.5 -18t10.5 -20t3.5 -13z" />
    <glyph glyph-name="J" unicode="J" horiz-adv-x="356" 
d="M322 445q0 -6 -5.5 -18t-14 -27t-17 -31.5t-14.5 -29.5q-4 -9 -5.5 -22t-6.5 -23q-11 -18 -23 -46.5t-25.5 -61.5t-29 -65.5t-33.5 -59.5t-39 -43.5t-45 -16.5q-20 0 -33.5 11t-22 28t-13 37.5t-6.5 40.5t-2.5 35.5t-0.5 23.5q0 34 2 69t22 68h34q2 -3 7 -7t10.5 -9
t10 -11t4.5 -13t-4.5 -18t-10.5 -23t-10.5 -23t-4.5 -18q0 -14 7 -39t13 -48q24 12 44.5 37.5t38 58.5t33 72t29.5 78t27 76t26 66h49q0 -11 4.5 -22.5t4.5 -25.5z" />
    <glyph glyph-name="K" unicode="K" horiz-adv-x="542" 
d="M484 433q-27 -27 -58.5 -47t-63 -40.5t-61 -46t-51.5 -62.5q19 -16 42.5 -25.5t48 -16.5t47 -14t39.5 -18t26.5 -27t8.5 -41q-11 -5 -19 -7t-25 -2q-6 0 -29.5 2.5t-55 7.5t-65 12.5t-59.5 16.5q-6 2 -12.5 8t-12.5 13.5t-11 15t-8 13.5h-25q0 -17 -3 -33t-3 -30
q0 -7 5.5 -16.5t12.5 -20t12.5 -20t5.5 -16.5q0 -12 -15 -22.5t-29 -10.5q-23 0 -35 9t-17 22t-5.5 27.5t-0.5 25.5q0 13 5 45.5t14 65.5q6 19 17 48.5t24.5 62.5t28 65.5t28.5 58.5t25.5 42.5t18.5 16.5q21 0 24.5 -12.5t0.5 -32t-7.5 -42.5t1.5 -44q16 14 38 31.5
t46.5 33.5t49 26.5t47.5 10.5q13 0 29 -11t26 -22z" />
    <glyph glyph-name="L" unicode="L" horiz-adv-x="458" 
d="M408 181q-10 -16 -29 -35.5t-43 -39t-50.5 -38t-51.5 -33t-47 -23t-36 -8.5q-44 0 -58 21.5t-14 60.5q0 13 6 39t14.5 54t16.5 52.5t11 35.5q16 52 33.5 111.5t34.5 119.5q11 1 24 -4.5t22 -10.5q2 -11 6 -28.5t4 -31.5q0 -5 -9.5 -29.5t-23 -57.5t-28 -68.5t-23.5 -60.5
q-2 -6 -5 -16t-5.5 -21t-4 -21t-1.5 -16q0 -22 18 -22q7 0 36 14.5t62.5 32.5t62.5 32.5t36 14.5q6 0 11 -3.5t10 -8t10 -8.5t11 -4z" />
    <glyph glyph-name="M" unicode="M" horiz-adv-x="496" 
d="M465 394q0 -29 -13 -64.5t-31 -73.5t-37 -75.5t-30 -69.5q-5 -13 -1.5 -34t10.5 -32q2 -4 -1.5 -13.5t-3.5 -20.5q-5 0 -9 -4t-18 -4q-11 0 -20 9t-15.5 21t-10 24.5t-3.5 19.5q0 16 5.5 34.5t12 39.5t12.5 44t7 48q-20 -20 -41.5 -48t-55.5 -58q-9 8 -15 20.5t-10.5 26
t-8 27t-9.5 25.5q-18 -20 -28 -36.5t-15.5 -32t-8 -30.5t-6.5 -32q-2 -10 -11 -22t-14 -23q-10 5 -20 15t-17.5 20t-12 18t-4.5 10q0 6 10.5 31.5t28 61.5t39.5 78t45 81.5t45 72t39 48.5q22 -6 30 -21.5t10 -35.5t3 -42t8 -42q7 8 22.5 26.5t32.5 38t33.5 34t26.5 14.5
q16 0 26 -8.5t15.5 -20t7 -24t1.5 -21.5z" />
    <glyph glyph-name="N" unicode="N" horiz-adv-x="457" 
d="M475 459q0 -6 -10 -21l-23 -34.5t-25.5 -41.5t-18.5 -41q-9 -29 -21.5 -64.5t-21.5 -64.5q-1 -2 -6.5 -17t-15 -36t-21 -45t-24.5 -44t-26 -33.5t-24 -13.5q-8 0 -15 7t-13.5 18t-11.5 24t-8 25q-7 32 -11.5 63.5t-9.5 63.5q-21 -17 -32.5 -41t-18.5 -49t-12 -48t-13 -39
q-11 -1 -23 -3t-23 -7q-6 11 -11.5 27.5t-5.5 30.5q0 4 5 20t13.5 40t19.5 53.5t22.5 59t22.5 56.5t20 48q2 6 12.5 15t24.5 9q6 0 15 -2t17 -8t15 -16.5t9 -26.5q5 -38 12 -74t13 -74q15 10 30.5 39.5t31 68.5t31 82t31 79t31.5 59.5t33 23.5q9 0 16 -9t11.5 -21t6.5 -23
t2 -15z" />
    <glyph glyph-name="O" unicode="O" horiz-adv-x="374" 
d="M288 418q0 -11 -3.5 -33.5t-8.5 -39.5q-4 -14 -6.5 -29t-6.5 -30q0 -1 -8 -21.5t-21.5 -51.5t-31.5 -67t-38 -67t-40.5 -51.5t-39.5 -20.5q-17 0 -29 18.5t-20.5 42t-12.5 45t-4 26.5t4.5 29.5t11 56t14.5 65t14 57.5q6 23 18.5 56t32.5 57q7 9 20 19t27 17.5t27 12.5
t19 5q24 0 40 -10t25 -24.5t13 -31.5t4 -30zM228 401q-6 -2 -14 -3t-15.5 -1.5t-13.5 -1t-8 -3.5q-32 -38 -48.5 -72.5t-24.5 -67.5t-11 -66t-8 -67q9 5 23 21t30 38t32 48.5t29 51.5t21 46t8 34v43z" />
    <glyph glyph-name="P" unicode="P" horiz-adv-x="433" 
d="M401 420q0 -44 -25 -79t-62.5 -63t-81 -49t-81.5 -36q-7 -3 -13.5 -10.5t-11.5 -17.5t-8 -20t-3 -18q0 -10 -4 -19t-2 -19l3 -8q-5 -10 -1.5 -19.5t4.5 -19.5q-2 -8 -7 -15.5t-10.5 -13.5t-10.5 -9.5t-6 -3.5q-15 0 -22.5 8.5t-11.5 19t-4.5 20.5t-0.5 14q0 25 8.5 59
t20 69.5t23 69t17.5 57.5q9 32 20 75.5t30 81.5q5 9 16.5 15t24.5 6q12 0 27.5 -6.5t27.5 -6.5q14 0 21 6.5t18 6.5q15 0 33.5 -4t34 -13t26.5 -23t11 -35zM235 397q-11 0 -21 -12.5t-17.5 -28t-12 -30t-4.5 -18.5v-21q11 4 31.5 16t41 28t37 33.5t19.5 32.5h-74z" />
    <glyph glyph-name="Q" unicode="Q" horiz-adv-x="382" 
d="M398 427q0 -14 -7.5 -36t-19.5 -48t-25 -52.5t-25 -49t-19.5 -37.5t-7.5 -18q0 -6 5.5 -19t11.5 -27.5t11.5 -28t5.5 -19.5q0 -12 -5.5 -19.5t-9.5 -18.5h-24q-16 15 -27 31.5t-24 16.5q-7 0 -26 -15.5t-41 -33.5t-41 -33.5t-25 -15.5q-16 0 -31 15.5t-27 36t-19 41
t-7 29.5q0 7 8.5 37.5t23.5 72t34.5 88t41.5 85.5t45.5 65t45.5 26q12 0 16 -7t16 -7q6 0 16.5 3.5t21.5 7t21.5 7t16.5 3.5q19 0 32.5 -8.5t22 -21t12 -26.5t3.5 -24zM335 401q-17 4 -35.5 -6t-37 -26t-35.5 -34t-30 -29q-14 -14 -31.5 -21t-23.5 -17q-9 -15 -18.5 -35.5
t-16.5 -41t-11.5 -36.5t-4.5 -22q0 -11 7.5 -23t17.5 -15q21 13 35.5 31.5t22.5 38t9 39t-4 34.5q7 18 31 18t46 -14q22 33 43 77.5t36 81.5z" />
    <glyph glyph-name="R" unicode="R" horiz-adv-x="356" 
d="M384 32h-35t-39.5 -0.5t-35 -0.5h-21.5t-15.5 2.5t-20.5 5.5t-22.5 7t-20.5 7q-5 1 -17.5 17t-25 36t-22.5 40.5t-10 31.5q0 5 2.5 14.5t6.5 20.5t9 22.5t10 20.5q7 11 21 27.5t28 34.5t25 35.5t11 30.5q0 6 -1 8t-2 3t-2 2.5t-1 6.5h-37q-23 0 -36.5 -19.5t-21 -44
t-11 -46.5t-4.5 -27q-9 -27 -19.5 -62.5t-16.5 -70.5q-2 -11 -2.5 -26l-1 -30t-2 -28.5t-4.5 -22.5q-2 -5 -10 -13.5t-21 -8.5t-26.5 11.5t-13.5 24.5q0 5 2 15.5t5 23.5l6 26t5 22q4 20 10.5 51t15 66.5l17 71t16.5 64.5q2 9 0 20t0 20q5 22 22.5 37.5t39.5 25.5t44.5 14.5
t36.5 4.5q28 0 45 -10.5t26 -25t12 -30.5t3 -27q0 -38 -16.5 -71.5t-36.5 -62.5t-36.5 -53.5t-16.5 -44.5q0 -14 11.5 -24.5t29 -18.5t38.5 -13t41 -9t35.5 -7t21.5 -5q5 -3 14 -11.5t14 -13.5v-44v0z" />
    <glyph glyph-name="S" unicode="S" horiz-adv-x="257" 
d="M189 261q0 -23 -16 -53t-35.5 -58.5t-36.5 -49.5t-19 -26q-4 -8 -4 -23.5t-7 -24.5q-8 -11 -16.5 -16.5t-21.5 -5.5q-6 0 -14.5 4.5t-15.5 11t-12 14.5t-5 14q0 16 14.5 40t35 50t42.5 52t37 47q-14 14 -35 29t-38 37q-3 4 -7 13.5t-7 20t-5.5 20.5t-2.5 16q0 10 10.5 33
t26.5 46.5t36 41t38 17.5q24 0 44 -22v-62q0 -6 -4.5 -7t-11 -0.5t-14 1.5t-12.5 0q-5 -6 -13 -14l-15.5 -15.5t-12.5 -14t-5 -11.5q0 -17 16 -25.5t35 -17.5t35 -22.5t16 -39.5z" />
    <glyph glyph-name="T" unicode="T" horiz-adv-x="378" 
d="M405 432q0 -11 -9 -16.5t-22.5 -8t-30 -4t-32 -3t-28 -4.5t-18.5 -10q-23 -27 -44.5 -63.5t-39.5 -76t-32 -80.5t-22 -78l7 -5q0 -12 -5 -37t-10 -46h-39q-4 11 -13 23.5t-9 24.5q0 5 1.5 15t3.5 21.5l4 23t3 20.5q2 16 11 37t16 40q13 36 29 75.5t36 81.5
q-19 14 -42.5 17t-43 7.5t-31 17t-7.5 45.5q5 5 11.5 10t11.5 9q16 1 45 4.5t59 7.5t55 7.5t32 3.5q12 0 37.5 -2t51 -8.5t45 -18t19.5 -30.5z" />
    <glyph glyph-name="U" unicode="U" horiz-adv-x="482" 
d="M480 457q0 -6 -5.5 -22.5t-13 -37.5t-16 -43t-14.5 -39q-2 -5 -9 -30t-19.5 -60t-29 -74.5t-36.5 -73t-44 -55.5t-50 -22h-22.5t-25.5 4t-29.5 14.5t-33.5 30.5q-12 13 -23.5 35.5t-20.5 45.5t-14.5 42t-5.5 26q0 13 9 34.5t11 38.5q0 5 3 22t8 39.5t12.5 47.5t17 45.5
t21 34t25.5 13.5q6 0 14 -6t15 -14t12 -17.5t5 -16.5t-11 -26.5t-23.5 -48t-23.5 -63t-11 -71.5q0 -14 5 -32t16 -34t27.5 -26.5t39.5 -10.5q12 0 21 9.5t16.5 22t12.5 24.5t10 18q11 15 23 35.5t22 40.5q3 6 9 26.5t14 47t17.5 55.5t20 53.5t20.5 40.5t20 16q13 0 20 -5
t10 -12t3.5 -13t0.5 -9z" />
    <glyph glyph-name="V" unicode="V" horiz-adv-x="334" 
d="M411 499q0 -6 -7 -18.5t-17 -27.5t-21 -30.5t-19 -27.5q-2 -3 -15.5 -33.5t-34 -74.5t-45 -94.5t-49 -93t-46.5 -71t-37 -28.5q-24 0 -38.5 21.5t-22 48.5t-9.5 50.5t-2 26.5q0 7 2 31.5t6 57t11 68.5t16 66t21 49.5t27 19.5q14 0 16 -4.5t13 -4.5q0 -5 4.5 -10t4.5 -19
q0 -13 -9.5 -26t-11.5 -24q-4 -20 -8.5 -44t-8 -47t-5.5 -41.5t-2 -25.5q0 -13 -0.5 -18t4.5 -16q38 37 66 81.5t52.5 92.5t49 97.5t57.5 98.5h50q0 -6 4 -11t4 -19z" />
    <glyph glyph-name="W" unicode="W" horiz-adv-x="447" 
d="M488 458q0 -6 -5 -16.5t-12.5 -22.5t-15 -24.5t-11.5 -23.5q-16 -42 -26.5 -87t-25 -87.5t-37.5 -81t-65 -68.5q-11 3 -22 19t-21 36.5t-18.5 40.5t-14.5 31q-15 -8 -23 -23.5t-24 -35.5q-1 -1 -9.5 -19t-20.5 -39t-25 -38t-24 -17q-7 0 -15.5 7t-16 17t-12.5 21t-5 18
q0 6 2 25t5 43t6.5 50.5t6.5 47.5q4 26 8 63t10 72.5t15.5 61.5t25.5 30l15 -9q4 -18 5 -38.5t0.5 -41.5t-1 -41.5t0.5 -38.5q-2 -5 -3 -14.5t-6 -14.5q3 -3 3.5 -5t1.5 -3.5t3.5 -2t9.5 -0.5q6 0 16.5 14.5t22.5 35.5t25 44t24 40q7 1 19.5 -6.5t17.5 -18.5q5 -39 10.5 -82
t16.5 -88q7 -1 11.5 6.5t10.5 21.5q28 66 50 140.5t51 153.5h33q11 -11 22 -24.5t11 -27.5z" />
    <glyph glyph-name="X" unicode="X" horiz-adv-x="398" 
d="M411 460q0 -11 -8 -27t-16 -30q-14 -7 -31.5 -23t-35.5 -36t-35 -41t-30.5 -38.5t-22 -29.5l-8.5 -12q0 -11 19 -31.5t42 -43.5t43 -45t23 -35q-5 -5 -13 -10.5t-21 -5.5q-14 0 -34 11.5t-41 26.5t-41 31t-34 25q-11 -7 -23.5 -30.5t-27.5 -49.5t-31 -46.5t-32 -20.5
q-6 0 -13 3.5t-14 9t-11.5 12t-4.5 12.5t8 20.5t19.5 32t23 34t18.5 26.5q5 8 16.5 16.5t19.5 19.5q2 4 5.5 9.5t3.5 18.5q0 6 -7.5 27t-16 45t-16 45t-7.5 27q0 11 3.5 24t10.5 24.5t17 19.5t22 8q11 0 21.5 -7t13.5 -16q-4 -18 -8.5 -33t-5.5 -29t5.5 -29t24.5 -33
q15 6 30.5 24t31 41t32 48.5t32.5 46.5t32 34.5t32 13.5q7 0 14.5 -4.5t13 -10.5t9 -11.5t3.5 -7.5z" />
    <glyph glyph-name="Y" unicode="Y" horiz-adv-x="310" 
d="M315 411q0 -5 -5.5 -11.5t-13.5 -14t-16 -16t-13 -17.5q-14 -25 -29.5 -52.5t-31.5 -57t-30 -59.5t-24 -60q-4 -12 -2.5 -28t3 -32.5t0 -31.5t-11.5 -25h-25q-10 15 -16.5 36t-11.5 38q-2 9 -1 21t2.5 25t2.5 25.5t-1 21.5q-6 25 -14.5 50t-14.5 51q-5 22 -16.5 51.5
t-23 57t-20.5 49.5t-9 29q0 22 10 30.5t26 8.5q14 0 18 -2t7 -7q17 -44 34.5 -98t38.5 -108h20q2 3 9.5 18.5t18 36t22.5 44t24 43t23 32.5t18 13q14 0 19.5 -4.5t11.5 -6.5q6 -9 14 -23.5t8 -26.5z" />
    <glyph glyph-name="Z" unicode="Z" horiz-adv-x="458" 
d="M456 99q-6 -5 -13 -17t-18 -14q-42 -3 -87.5 -1.5t-86.5 -7.5q-21 -5 -51 -16t-58.5 -22.5t-50.5 -20t-29 -8.5q-6 0 -12.5 7.5t-12 17.5t-9.5 20.5t-4 16.5q0 8 15.5 31t38.5 53.5t50.5 66t50.5 68t38.5 60t15.5 42.5q0 11 -3.5 15.5t-8.5 6t-10.5 0.5t-8.5 -1
q-7 0 -20.5 -3.5t-28.5 -7t-29 -7t-20 -3.5t-15 5t-17 12.5t-14 16.5t-6 18q0 6 4 14t9.5 15.5t12 13t11.5 6.5q18 4 40 6t43 3t37.5 1h23.5q9 0 28.5 -1.5t39.5 -7t35 -16t15 -27.5q0 -14 -9.5 -36.5t-25 -49.5t-33.5 -55.5t-35 -54t-30.5 -45.5t-19.5 -30q30 -13 67 -15.5
l74 -5t68 -11t49 -32.5z" />
    <glyph glyph-name="bracketleft" unicode="[" horiz-adv-x="426" 
d="M394 494q-5 -3 -13 -8t-15 -7q-28 -5 -60 -11t-64 -23q-11 -6 -18 -14.5t-11.5 -19t-8 -21.5t-7.5 -20q-5 -12 -9.5 -30.5t-9.5 -31.5q-5 -17 -15.5 -39t-15.5 -39q-7 -24 -15.5 -53.5t-16 -57t-13 -48t-5.5 -25.5q0 -16 9 -21t17 -5q5 0 20 1.5t32 3.5t32 3.5t20 1.5
q12 0 28 1t30 -2t23 -13t8 -32q-6 -12 -19.5 -17t-28.5 -7t-29.5 -2.5t-23.5 -2.5q-20 -4 -45.5 -8.5t-35.5 -4.5h-50q-9 0 -17 6.5t-14 15.5t-9.5 18.5t-3.5 16.5q0 4 2 14l4.5 22.5t6 27t6.5 27.5q6 26 15 59t19 67.5t20 68t18 60t13 44.5t5 21q0 4 -5 14.5t-10.5 21.5
t-10.5 20.5t-5 13.5q0 10 5.5 14.5t5.5 8.5q41 -3 67 3.5t47 15t43 16t56 7.5q12 0 21 -0.5t15 -5.5t9.5 -15.5t6.5 -29.5z" />
    <glyph glyph-name="backslash" unicode="\" horiz-adv-x="209" 
d="M241 27q0 -9 -2.5 -11t-2.5 -10q-3 0 -10.5 -2.5t-15.5 -2.5q-4 0 -12.5 15.5t-18 34.5t-17.5 36t-10 20l-26 52t-29.5 57t-31.5 57t-30 52q-2 3 -15 23.5t-28.5 46t-28 50t-12.5 36.5q0 4 3 10.5t7 12.5t9 10.5t10 4.5q7 0 17.5 -10t20.5 -23t17.5 -24.5t8.5 -15.5
q2 -6 -2 -17t0 -21q13 -30 32 -62t35 -66q4 -9 11.5 -20t16 -23l17 -24t14.5 -23q10 -19 22.5 -45t24 -51t19 -44t7.5 -23z" />
    <glyph glyph-name="bracketright" unicode="]" horiz-adv-x="337" 
d="M258 499q0 -4 -4.5 -33.5t-11.5 -72.5t-14.5 -92.5t-14.5 -92.5t-11.5 -73t-4.5 -33q0 -5 3.5 -13.5t7.5 -17.5t7.5 -17.5t3.5 -13.5t-5 -13t-11.5 -17t-13.5 -18t-11 -16q-8 5 -15 11t-16 6q-11 0 -15.5 -9t-8.5 -12q-7 -2 -16.5 -7l-19 -10t-19.5 -9t-17 -4
q-11 0 -15.5 3.5t-7.5 9.5t-5.5 13t-9.5 15v25q16 9 33 13t33.5 10t32 15.5t27.5 28.5q9 15 8.5 39t2.5 44q5 35 9.5 71.5t12.5 74.5q2 9 5 23t6.5 28.5t6 26.5t2.5 17v59q-29 0 -45.5 -1t-25 -2t-13 -2t-9.5 -1q-14 0 -31 3t-32 9.5t-25 18.5t-10 30q0 11 1 12.5t6 9.5
q9 0 25 -1t32 -1.5t29.5 -1.5t18.5 -1t20 2.5t34 6.5t38.5 7.5t34.5 5.5q8 -13 13 -27.5t5 -25.5z" />
    <glyph glyph-name="asciicircum" unicode="^" horiz-adv-x="352" 
d="M303 303q0 -11 -5 -25.5t-10 -23.5q-17 7 -26 18.5t-16.5 25t-16 28t-22.5 26.5q-18 -18 -37.5 -45.5t-36.5 -52.5t-30 -43t-19 -18q-7 0 -14 8t-13 18t-9.5 19t-3.5 10q0 6 17.5 33.5t42 64.5t51 77t44.5 70h29q11 -23 24 -53t24.5 -58.5t19 -50.5t7.5 -28z" />
    <glyph glyph-name="underscore" unicode="_" horiz-adv-x="375" 
d="M375 -50q-5 -7 -9.5 -14.5t-8.5 -14.5q-8 0 -20 2t-23 2q-4 0 -23 -1.5t-46 -4t-58 -5t-58 -5t-46.5 -4t-22.5 -1.5q-35 0 -48 6t-13 15q0 8 13 10t21 2q11 0 16.5 -1t15.5 -1q4 0 23.5 1.5t47.5 4.5t59.5 5.5t59.5 5.5t47.5 4.5t23.5 1.5q20 0 49 -8z" />
    <glyph glyph-name="grave" unicode="`" horiz-adv-x="250" 
d="M190 382q-5 0 -9.5 -3t-17.5 -3q-15 0 -38.5 10t-46 22t-39 23t-17.5 14q-2 7 -12 18t-10 19q0 9 7.5 14.5t7.5 13.5h37q36 -27 69.5 -54t68.5 -51v-23v0z" />
    <glyph glyph-name="a" unicode="a" horiz-adv-x="302" 
d="M272 77q0 -12 -7.5 -21t-17.5 -15.5t-20 -10t-16 -3.5q-12 0 -21.5 5.5t-18.5 14t-18 17.5t-18 16q-5 -6 -15.5 -19.5t-23.5 -27.5t-27 -24.5t-26 -10.5q-21 0 -33.5 11t-19.5 25.5t-9 28.5t-2 20q0 5 4.5 26.5t13 50.5t21 61.5t28 59.5t34 45t40.5 18q10 0 17.5 -4.5
t14.5 -10.5q1 -2 6 -8t11.5 -13.5t14 -15t15.5 -10.5q1 -8 5 -21.5t4 -25.5q0 -5 -4 -21t-8.5 -34.5t-8 -34.5t-3.5 -21q0 -10 9 -19t18 -14q2 1 9 3q5 1 16 2t28 1q5 -5 6.5 -7t1.5 -13zM143 241q0 11 -3 13t-3 7h-22q-6 -8 -19.5 -30.5t-28 -49t-25 -52.5t-10.5 -40
q0 -6 1 -8.5t3 -4.5t4 -2q27 18 43.5 47.5t27.5 53.5q9 18 20.5 37t11.5 29z" />
    <glyph glyph-name="b" unicode="b" horiz-adv-x="275" 
d="M243 254q0 -18 -2 -33.5t-9 -33t-19 -38.5t-33 -48q-3 -3 -18 -19.5t-34 -35t-37 -33t-28 -14.5q-5 0 -13.5 10.5t-17.5 23.5t-15.5 24.5t-6.5 12.5q0 4 3 12.5t6.5 18.5t7.5 20t6 18q8 26 12 55.5t9 55.5q2 17 8.5 37t11.5 39q2 10 5 24.5t5 25.5q5 24 11 46t9 45
q1 5 4 13t7.5 16t9.5 13.5t11 5.5q10 0 15 -5t7.5 -11t3 -12.5t0.5 -9.5q0 -5 -5.5 -23.5t-12.5 -39.5t-12.5 -39.5t-5.5 -23.5v-35q9 -4 19 -2.5t19 4.5t17.5 6.5t15.5 3.5q8 0 20.5 -8t17.5 -13q7 -9 7.5 -25.5t0.5 -27.5zM201 251q-4 0 -7 3q-2 1 -4 3q-23 -11 -44.5 -19
t-47.5 -19q-3 -15 -8.5 -31t-11 -30t-9 -25t-3.5 -15v-7t1.5 -9.5t6.5 -8t14 -3.5q10 0 25.5 15.5t31.5 35.5t28.5 39.5t16.5 27.5q5 9 8.5 22t2.5 21z" />
    <glyph glyph-name="c" unicode="c" horiz-adv-x="311" 
d="M293 124q0 -5 -10.5 -18.5t-26.5 -29.5t-33.5 -31t-31.5 -23q-7 -4 -19 -8t-24.5 -7.5t-24 -6t-17.5 -2.5q-19 0 -38 10t-34.5 25t-25.5 32t-10 31q0 9 7 30t19 48t29 56t36.5 53t41.5 39.5t45 15.5q9 0 18 -0.5t15 -8.5q11 -14 17 -36t6 -33q0 -5 -5.5 -19t-13 -32
t-15.5 -36.5t-13 -33.5q-3 -5 -7.5 -9t-15.5 -4q-10 0 -23 13t-13 23q0 2 6 12.5t13 25t12.5 29.5t3.5 25q-8 -4 -18.5 -12t-15.5 -15q-12 -14 -26 -33t-25.5 -38t-19.5 -34.5t-8 -20.5q0 -23 9 -32t27 -9q15 0 36.5 7t45.5 18t49 26t46 32h19q5 -5 9 -7t4 -12z" />
    <glyph glyph-name="d" unicode="d" horiz-adv-x="334" 
d="M329 473q0 -9 -1 -18t-7 -17q-26 -34 -46 -71.5t-27 -64.5q-5 -20 -12.5 -44.5t-14.5 -49t-11 -48.5t-1 -44q1 -8 5 -15t6.5 -14.5t1 -16.5t-11.5 -21q-2 -1 -3.5 -1.5t-12.5 -0.5q-9 0 -14 3t-16 3q-5 0 -17.5 -7.5t-26.5 -17t-26.5 -17t-17.5 -7.5q-18 0 -31.5 14
t-22 31.5t-13 33t-4.5 19.5q0 10 7 29.5t19 43t27 47.5t32 44t34 32.5t32 12.5q9 0 18.5 -6t17.5 -6q0 1 5 17t14 39.5t20.5 50.5t24 50t25 38t23.5 15q14 0 19.5 -12.5t5.5 -23.5zM170 207q0 10 -3 16t-3 10h-20q-2 -2 -15 -19t-28.5 -39t-28 -44t-12.5 -34q0 -11 4 -14
t8 -8q22 -2 40.5 11t31 34t19.5 44.5t7 42.5z" />
    <glyph glyph-name="e" unicode="e" horiz-adv-x="315" 
d="M276 307q0 -15 -10.5 -32t-26.5 -34t-35 -32.5t-35 -27.5q-4 -3 -11 -5.5t-15 -5.5t-16 -5.5t-14 -4.5q-7 -2 -12 -11.5t-8 -20t-4.5 -20.5t-1.5 -13q0 -33 15 -44.5t35 -11.5q14 0 25.5 3.5t24 10.5t26.5 16t32 20h25q-29 -54 -65 -71.5t-74 -17.5q-11 0 -31 5.5
t-39 16.5t-33 27t-14 38q0 28 17.5 65.5t44 74.5t58 67t60.5 44q8 4 21 3.5t22 -0.5q13 0 20.5 -4t11.5 -9t5.5 -11t1.5 -10zM190 273q-5 0 -11.5 -5t-13 -12.5t-12.5 -16t-10 -14.5q17 8 35 21t31 27h-19z" />
    <glyph glyph-name="f" unicode="f" horiz-adv-x="293" 
d="M299 456q0 -16 -6.5 -39t-15.5 -47t-19 -45t-17 -32q-8 3 -21 13t-13 20q0 9 6 22t14 24v14q1 0 1 1q0 2 -8 2q-9 0 -20 -14t-21 -31q-11 -19 -23 -44q0 -6 7 -10t17 -7t20 -5.5t16 -5.5q4 -20 -4.5 -27.5t-22.5 -11t-29 -8t-24 -18.5q-5 -10 -5 -22v-23q0 -7 -2 -17.5
t-4 -23.5q-1 -11 1.5 -26.5l5 -31t1.5 -30.5t-10 -26q-8 8 -21 17t-15 21q-5 38 -3.5 76t-0.5 76q-8 6 -18.5 10t-19.5 8.5t-15.5 12t-6.5 19.5q0 21 10 25t23 3t26.5 0t20.5 16q8 16 15.5 40.5t18.5 46.5q5 10 18.5 31.5t31 43.5t37 38t36.5 16q14 0 22 -6.5t11.5 -15
t4.5 -17t1 -12.5z" />
    <glyph glyph-name="g" unicode="g" horiz-adv-x="260" 
d="M195 283q0 -8 -4.5 -20.5t-6.5 -20.5q-2 -10 -1.5 -23.5t0.5 -27.5t-1.5 -28.5t-5.5 -26.5q-2 -5 0.5 -11.5t0.5 -12.5q-1 -7 -7.5 -14t-9.5 -14q-4 -9 -13 -30.5t-20.5 -47.5t-26 -54t-29 -51t-29 -38t-27.5 -15q-5 0 -9 5t-7 12t-4.5 13t-1.5 8q0 17 16 48t37 63
t42.5 60.5t32.5 40.5q3 3 7 11.5t7.5 17.5t5.5 17.5t2 12.5q0 8 -2 9.5t-5 4.5q-8 -6 -18 -16.5t-20.5 -21t-21 -18.5t-20.5 -8q-14 0 -23 7.5t-14 18t-7.5 21t-2.5 15.5q0 21 9.5 44t23.5 44.5t30.5 41t30.5 32.5q7 6 17.5 8t18.5 2q15 0 25.5 -7.5t17 -17t10 -19.5
t3.5 -14zM142 282q-8 5 -13.5 4t-13.5 -7q-2 -2 -12.5 -14t-22 -27.5t-21 -32.5t-9.5 -28q0 -8 1 -9.5t4 -4.5q16 5 31.5 20t28 33t20 36t7.5 30z" />
    <glyph glyph-name="h" unicode="h" horiz-adv-x="303" 
d="M264 232q0 -7 -5 -23.5t-9 -27.5q-7 -24 -25 -57t-31 -61q-5 -10 -7.5 -24.5t-5.5 -25.5q-1 -4 -7 -10.5t-14 -6.5q-6 0 -11 5t-9 11.5t-6 13t-2 8.5q0 6 9 25.5t19.5 43t18.5 46t6 35.5q-42 -42 -79 -88.5t-72 -84.5q-2 1 -5 1q-6 0 -8 1q-4 7 -10 15.5t-6 18.5
q0 4 7.5 24.5t18 49.5t21.5 62t17 60q11 51 18 108.5t18 120.5q0 1 2.5 7t6.5 13t9.5 12.5t11.5 5.5q9 0 18.5 -12t9.5 -21t-2.5 -14t-4.5 -12q-5 -23 -11.5 -49t-13 -54t-13 -55t-10.5 -51q-3 -18 -3 -48q15 12 31 29t32 33.5t32 28t31 11.5q10 0 14.5 -4t6.5 -8
q2 -11 7 -27.5t5 -24.5z" />
    <glyph glyph-name="i" unicode="i" horiz-adv-x="242" 
d="M258 479q0 -15 -3.5 -33.5t-3.5 -32.5q-5 -5 -5.5 -6.5t-12.5 -1.5q-9 0 -18 5.5t-16 14.5t-11.5 19.5t-4.5 20.5q0 8 8 19.5t13 20.5q5 -2 11.5 -1.5t13.5 -1t14 -6.5t15 -17zM189 333q0 -23 -10.5 -52.5t-25.5 -62.5t-30.5 -68t-25.5 -68q-3 -8 3.5 -20.5t7.5 -22.5
q1 -9 -5 -16.5t-13.5 -13t-15 -8.5t-10.5 -3q-5 0 -12.5 5t-14.5 12.5t-12 15.5t-5 14q0 3 5.5 19.5t14.5 41t20 54.5t22.5 61t22.5 60.5t19 52.5q3 9 10 18t21 9t24 -10t10 -18z" />
    <glyph glyph-name="j" unicode="j" horiz-adv-x="241" 
d="M248 423q-12 -5 -17 -10.5t-7 -11.5t-3 -13t-5 -16h-17q-15 9 -23.5 28.5t-8.5 36.5q0 11 3.5 23.5t9.5 23t14.5 17t18.5 6.5q18 0 24.5 -8t7.5 -20.5t0 -27.5t3 -28zM156 208q0 -25 -12 -62t-31 -77t-44 -80t-51.5 -72t-52 -51.5t-45.5 -19.5q-15 0 -25 8.5t-16.5 21
t-9.5 27t-3 25.5q0 28 13.5 58.5t23.5 62.5h34q0 -5 2.5 -8t2.5 -14q0 -5 -4.5 -17.5t-10.5 -26t-10.5 -26t-4.5 -17.5v-17q4 -4 3.5 -6.5t9.5 -2.5q15 0 31.5 13t33 33t31.5 43.5t27 45t19.5 36.5t8.5 19q6 19 18.5 42t14.5 48q2 17 -2.5 33.5t-4.5 32.5q0 9 5.5 18t13.5 9
q13 0 20 -10.5t10.5 -24.5t4 -27t0.5 -17z" />
    <glyph glyph-name="k" unicode="k" horiz-adv-x="353" 
d="M307 270q-20 -6 -49 -23.5t-56 -40t-46 -46.5t-19 -43q0 -10 11.5 -14.5t19.5 -7.5q29 -9 62 -19.5t66 -23.5v-37q-33 0 -68.5 -1t-77.5 2q-8 1 -17.5 11t-20.5 10q-5 0 -14 -6t-18 -13.5t-17.5 -13.5t-13.5 -6q-6 0 -13 4t-13 10t-9.5 12.5t-3.5 12.5q0 3 9.5 29
t25.5 65.5t36 89.5t40 101t39 100t33 88h25q18 -18 18 -41q0 -5 -9 -27t-22 -52t-27.5 -62.5t-24.5 -57.5v-19q14 10 32 20.5t34.5 19.5t29 15t17.5 6q10 0 22 -7t19 -35z" />
    <glyph glyph-name="l" unicode="l" horiz-adv-x="192" 
d="M208 482q0 -6 -7 -27t-18.5 -50t-25 -63.5t-26.5 -66.5t-23 -59t-15 -42q-5 -17 -12 -37.5t-13.5 -42.5t-11.5 -46t-6 -49q-8 -1 -16.5 2t-15 7.5t-11 10t-4.5 8.5q0 4 8.5 32t20.5 65t25.5 77t22.5 69q19 60 45 122t58 116h18q7 -8 7 -26z" />
    <glyph glyph-name="m" unicode="m" horiz-adv-x="429" 
d="M396 269q0 -14 -8.5 -42.5t-19 -58t-20.5 -54t-14 -31.5q-5 -10 -6 -28.5t0 -32.5q0 -5 -7.5 -13.5t-18.5 -8.5q-12 0 -19 5t-12 10v20q8 22 13.5 49t8.5 51q2 1 2 3q0 4 -4 13q-26 -13 -40 -34t-25.5 -41.5t-24 -35.5t-34.5 -15q-4 0 -9.5 3.5t-11 9t-9.5 11.5t-4 11
q0 11 7 20t9 18q6 19 18 47.5t11 61.5q-17 -11 -34.5 -32t-34.5 -48q-2 -3 -11 -21t-20.5 -38.5t-24 -37.5t-21.5 -17q-11 0 -18 3.5t-12 3.5q-1 20 6 48.5t16 60.5q17 63 14.5 106t-16.5 74q-1 2 -2 8t-0.5 12t2.5 10.5t7 4.5h33q7 -12 12.5 -28t10 -30.5t9.5 -24.5t11 -10
q11 0 21.5 13.5t23.5 30t28.5 30t35.5 13.5q30 0 37 -14.5t6.5 -32.5t-1.5 -32.5t11 -14.5q6 0 20 12t29 26t28.5 26t19.5 12q12 0 18.5 -7.5t9.5 -17t3.5 -17.5t0.5 -9z" />
    <glyph glyph-name="n" unicode="n" horiz-adv-x="330" 
d="M247 247q0 -21 -4.5 -37.5t-11.5 -31.5t-14 -29.5t-12 -30.5q-7 -23 -13 -48t-10 -49h-19q-8 11 -15.5 29.5t-7.5 28.5q0 13 5 25.5t10.5 26t9.5 29.5t3 37q-17 -13 -37.5 -45.5t-41 -66t-37.5 -59.5t-26 -26q-11 0 -17.5 11.5t-6.5 22.5q0 6 9 26t20.5 48.5t20.5 60.5
t9 62q0 16 -6 26t-13 17.5t-13 14t-6 16.5q0 17 12 23.5t28 6.5q20 0 28.5 -11t11.5 -27t4 -33.5t5 -30.5q10 8 22.5 21.5t25.5 26.5t24 22.5t17 9.5q16 0 25 -8t13.5 -19t6 -22t1.5 -17z" />
    <glyph glyph-name="o" unicode="o" horiz-adv-x="281" 
d="M220 276q0 -4 -1.5 -14.5t-4 -24l-5 -27t-4.5 -23.5q-1 -3 -7.5 -18t-17.5 -36.5t-24.5 -45.5t-29 -44t-31.5 -33.5t-31 -13.5t-26 16t-19 35.5t-12 37.5t-4 22q0 9 3 25.5t6 27.5q6 19 12 40.5t15.5 42t24 38t35.5 29.5q7 4 17 9.5t20.5 10t19.5 7.5t14 3q10 0 19.5 -7
t16 -17t10.5 -21t4 -19zM170 232q0 11 -3 22t-3 19q-16 2 -34.5 -17t-34 -45.5t-26 -54.5t-10.5 -44q0 -11 1 -17.5t5 -15.5h20q9 14 21 32.5t23 37.5t20 37.5t11 33.5q3 4 6.5 2.5t3.5 9.5z" />
    <glyph glyph-name="p" unicode="p" horiz-adv-x="315" 
d="M271 211q0 -15 -11 -30.5t-27.5 -31t-36.5 -29t-37.5 -24t-30.5 -18t-15 -9.5q-20 -17 -25.5 -41.5t-10.5 -43.5l-9.5 -38t-5.5 -46q0 -3 3.5 -10.5t1.5 -14.5t-9.5 -17.5t-15.5 -18.5q-4 2 -10 5.5t-12 7.5t-10.5 9t-4.5 10q0 4 2.5 15t6.5 25.5t7.5 30.5t6.5 28
q3 15 11.5 45.5t18.5 67t20.5 76t18.5 72.5q1 6 -0.5 15t-4 18.5t-4.5 19t-1 17.5q16 11 23 19.5t11.5 14t9 8.5t14.5 3q4 0 8 -3.5t7.5 -7.5l7 -8t7.5 -4q14 -2 31.5 -7.5t28.5 -10.5q8 -5 17.5 -15.5t11.5 -24.5q2 -11 4.5 -28t2.5 -26zM227 230q0 14 -11 21t-31 7
q-9 0 -21.5 -4t-18.5 -9q-2 -6 -3 -16.5t-3 -17.5q-1 -8 -4.5 -16.5t-7 -16.5t-6.5 -15t-3 -11q0 -8 3 -11q2 -2 4 -2q7 3 23.5 12.5t34 22.5t31 28t13.5 28z" />
    <glyph glyph-name="q" unicode="q" horiz-adv-x="327" 
d="M240 234q0 -23 -7.5 -48.5t-16 -52.5t-16 -54t-7.5 -51q0 -5 0.5 -16.5t2 -27t4 -32t5.5 -31.5q2 -11 8 -23.5t6 -22.5q0 -9 -6 -16t-6 -15q-21 12 -30.5 28t-13.5 34.5t-6.5 38.5t-9.5 41q-12 0 -18 -1t-9.5 -1.5t-6 -1.5t-7.5 -1q-14 0 -27.5 9t-25 22t-20 28t-11.5 27
q-4 15 -3.5 35.5t0.5 31.5q0 8 1.5 28.5t1.5 37.5q0 6 8.5 28t22.5 47t32 44.5t37 19.5q24 0 45.5 -5t37.5 -17t25.5 -32.5t9.5 -50.5zM193 223q0 1 0.5 7.5t-1 14t-5 14t-12.5 6.5q-5 0 -12.5 -7t-14.5 -16t-12.5 -18.5t-5.5 -14.5v-32q31 -2 45 -17q8 16 13 34.5t5 28.5z
M135 91q0 11 -5.5 34t-7.5 39q-11 8 -23.5 15.5t-20.5 6.5q-8 -14 -10 -34t-2 -29q0 -1 0.5 -13.5t3.5 -27t10 -26.5t21 -12q5 0 11 6t11 13.5t8.5 15.5t3.5 12z" />
    <glyph glyph-name="r" unicode="r" horiz-adv-x="282" 
d="M230 241q0 -15 -5.5 -29.5t-12.5 -26.5q-12 3 -24 14t-17 25q-16 -5 -32 -18.5t-29.5 -32t-21.5 -39.5t-7 -41q1 -27 1.5 -49.5t-15.5 -47.5q-8 -1 -20 5t-16 13t-7.5 17t-5.5 20.5t-3.5 19.5t-1.5 14q0 4 2.5 13.5t6 20t7 21.5t4.5 20q6 42 4 88t-7 92h21q13 0 19 -4.5
t8.5 -13t3 -19.5t2.5 -24q5 0 6 -2.5t12 -2.5q5 0 15 6t21 13.5t21 13.5t15 6q7 0 15.5 -5t16 -12t13.5 -14t9 -10q-5 -14 -5.5 -20t1 -8.5t4 -2t2.5 -0.5z" />
    <glyph glyph-name="s" unicode="s" horiz-adv-x="253" 
d="M170 154q0 -8 -3 -26t-10 -28q-8 -12 -21 -30t-27 -34.5t-26 -28.5t-16 -12h-31q0 4 -3 10t-3 14q0 5 9 19t21.5 32.5t26.5 38.5t23 37q-12 7 -31.5 10.5t-32.5 14.5q-5 4 -11.5 12t-12 16.5t-9 16.5t-3.5 13q0 18 11.5 37.5t28 35.5t35 26.5t32.5 10.5q15 0 24.5 -6.5
t14.5 -16t7 -20.5t2 -20q0 -5 -3 -12.5t-7 -16t-7 -16.5t-3 -12q0 -10 7.5 -13.5t9.5 -7.5q5 -11 6.5 -23t1.5 -21zM124 220l-9.5 19t-5.5 19q-8 -2 -21 -8.5t-13 -15.5q0 -10 15 -10t34 -4z" />
    <glyph glyph-name="t" unicode="t" horiz-adv-x="182" 
d="M213 283q-11 -8 -21.5 -9t-22.5 0t-26 -0.5t-30 -10.5q-6 -3 -10.5 -12t-7.5 -20.5t-5.5 -23t-4.5 -19.5t-6 -19.5t-8 -22t-6.5 -19.5t-2.5 -12v-40h7t10 -2t9 -6.5t4 -12.5q0 -10 -6.5 -20t-15 -18.5t-17 -14t-12.5 -6.5q-2 5 -9 13.5t-8 17.5q-1 5 -2 12t-1 14
q0 3 1.5 15t4 28t6 33t6.5 31q4 18 11 40t16 45l-6 6q-8 -5 -18.5 -10t-18.5 -5q-4 0 -7.5 4.5t-6.5 10.5t-4.5 11l-1.5 5q0 11 9 18.5t21.5 13t25 9t19.5 6.5q5 2 8 11t4 16q2 5 5 13t3 13q0 1 2.5 10.5t6.5 19.5t8.5 18.5t9.5 8.5q8 0 12.5 -3.5t6.5 -8t2.5 -9t0.5 -5.5
q0 -7 -8.5 -28.5t-13.5 -38.5q22 -8 44 -13t44 -16v-18v0z" />
    <glyph glyph-name="u" unicode="u" horiz-adv-x="260" 
d="M200 268q0 -4 -1.5 -12t-4 -17.5t-4.5 -19.5t-3 -18q-5 -23 -11 -56.5t-19.5 -65t-38 -54.5t-64.5 -24q-6 11 -20 24.5t-22 28.5q-4 7 -6.5 17.5t-3.5 21t-1 21v17.5q0 54 14.5 102.5t38.5 97.5h36q0 -8 3 -13.5t3 -14.5q0 -17 -11 -40t-22 -43q-7 -15 -10 -26.5
t-4.5 -21.5t-2 -18.5t-1.5 -18.5q-1 -4 -3.5 -5.5t-2.5 -10.5q0 -6 2 -15.5t6 -18.5t10.5 -16t14.5 -7q21 0 34.5 16t21.5 37t12 41t6 27q2 9 7.5 23.5t4.5 28.5q-1 21 -3 37.5t8 30.5h21q4 -8 10 -17.5t6 -17.5z" />
    <glyph glyph-name="v" unicode="v" horiz-adv-x="224" 
d="M195 314q0 -4 -10.5 -26.5t-25 -52.5t-29.5 -61.5t-23 -52.5q-8 -17 -15.5 -37.5t-19.5 -43.5q-2 -5 -6.5 -11.5t-10 -13.5t-11.5 -11.5t-10 -4.5q-8 0 -13.5 8.5t-8.5 15.5v283q4 3 5.5 4t10.5 1q8 0 12.5 -3t9.5 -7q2 -10 6 -20t6 -21q1 -9 0 -21.5t-2 -26.5t0.5 -29
t7.5 -28q14 21 26 44.5t24.5 47.5t27 46t32.5 40q4 0 10.5 -5.5t6.5 -13.5z" />
    <glyph glyph-name="w" unicode="w" horiz-adv-x="290" 
d="M292 306q0 -3 -4.5 -18.5t-11.5 -38t-15.5 -49.5t-17.5 -55q-7 -21 -17 -47.5t-23 -48.5q-4 -7 -13.5 -16.5t-15.5 -19.5q-16 -3 -26.5 5.5t-18 22t-13.5 29t-13 25.5q-11 -8 -18 -23.5t-14 -31.5t-16 -28t-24 -12q-14 0 -22 9.5t-12 22t-4.5 23.5t-0.5 14q0 4 4 30
t10 61t13 73t13 65q1 4 6 9.5t13 5.5q4 0 8.5 -5.5t8 -12.5t5.5 -13.5t2 -7.5t-6 -25t-13.5 -54.5t-13.5 -58.5t-6 -38q0 -8 -1 -10t3 -6q10 11 18.5 29t17 39t16.5 43t16 41h24q6 -5 10.5 -17.5t4.5 -23.5q0 -15 -1 -30t-0.5 -29.5t4 -29.5t12.5 -30q23 14 28.5 33t13.5 39
q14 35 26 81.5t26 88.5q2 3 5 8.5t11 5.5t15 -8t7 -16z" />
    <glyph glyph-name="x" unicode="x" horiz-adv-x="291" 
d="M246 299q0 -18 -7 -28q-10 -13 -25.5 -29.5t-30.5 -32.5t-26 -29t-11 -18q0 -9 14.5 -30.5t32.5 -44.5t34 -42.5t19 -24.5q-4 -5 -6 -9t-12 -4t-24.5 5.5t-31 17.5t-33.5 31t-33 46q-14 -2 -24.5 -18.5t-19.5 -35.5t-18 -35t-21 -16q-8 0 -13.5 4t-9 9t-5 10.5t-1.5 7.5
q0 19 12.5 41t27 42t27 35.5t12.5 20.5t-6 22.5t-12.5 37.5t-12.5 37t-6 22q0 8 10.5 17t21.5 9q9 0 15.5 -11t12.5 -25t11 -28t11 -20q13 12 27.5 29.5t28.5 33t26 26.5t20 11t13 -5.5t8 -11.5q4 -8 5 -17z" />
    <glyph glyph-name="y" unicode="y" horiz-adv-x="223" 
d="M186 297q0 -12 -9.5 -37t-23.5 -56t-31 -64.5t-31.5 -61.5t-24.5 -47t-11 -21q-19 -48 -25.5 -84.5t-3.5 -80.5q0 -2 -1 -3q-2 -3 -10 -3q-11 0 -17.5 8t-9.5 17.5t-3.5 17.5t-0.5 9q0 21 5.5 45t13.5 49t17 50.5t16 50.5q-25 17 -29 35t-4 36q0 10 3.5 36.5t9 55.5
t11 54.5t10.5 33.5q13 -1 19 -5.5t8 -9.5t1 -10t-1 -7q0 -5 -3 -18.5t-6.5 -29.5t-6.5 -30t-3 -18v-42l7 -8q14 12 27.5 31.5t26 41t23.5 43t21 38.5h31q0 -4 2.5 -5.5t2.5 -10.5z" />
    <glyph glyph-name="z" unicode="z" horiz-adv-x="255" 
d="M217 293q0 -8 -4 -17t-8 -14q-12 -15 -29.5 -32.5t-35.5 -37t-34 -40.5t-25 -43q12 -13 30 -13q9 0 18 2.5t17 2.5q6 0 13 -1t13.5 -3.5t11 -6.5t4.5 -10q0 -4 -3 -10t-8 -12t-11 -11t-12 -6q-28 -6 -63 -11t-64 -10q-6 -2 -12 -7.5t-14 -5.5t-13.5 4.5t-8.5 10.5
t-4.5 12t-1.5 9q0 7 1 15.5t5 13.5q35 48 69 87.5t66 85.5v12q-6 1 -13.5 0.5t-16 -2t-16 -3t-11.5 -1.5q-16 0 -26.5 15.5t-10.5 29.5q0 12 18 20t41 12t43.5 5.5t26.5 1.5q14 0 26.5 -1t21.5 -5t14.5 -12.5t5.5 -23.5z" />
    <glyph glyph-name="braceleft" unicode="{" horiz-adv-x="360" 
d="M275 484q0 -4 -1 -7t-2 -5q-1 -3 -2 -5q-8 2 -32 -8t-50 -25.5t-46.5 -34t-20.5 -32.5q0 -24 17 -42.5t37 -34t37 -28t17 -24.5q0 -6 -5.5 -23.5t-11.5 -31.5q-2 -5 -7.5 -10l-11 -10t-10 -9.5t-4.5 -7.5q0 -4 2.5 -11t5 -15t5 -15t2.5 -11t-4.5 -26.5t-10.5 -49.5
t-10.5 -49.5t-4.5 -26.5q0 -15 5.5 -20.5t11.5 -8t11.5 -4.5t5.5 -9q0 -6 -4 -10t-8.5 -6.5t-9 -3.5t-5.5 -1q-11 0 -19.5 7.5t-14.5 17t-9 18.5t-3 13q0 3 5 25.5t10.5 48t10.5 48t5 25.5q0 20 -7 24.5t-15.5 7.5t-15.5 11t-8 34q4 3 17 10.5t27 17t25.5 20t11.5 20.5
q0 3 -7.5 9.5t-16.5 13t-17 11.5t-9 7q-6 6 -15.5 18.5t-19 26.5t-16.5 28.5t-7 25.5q0 6 4 20t9 25q5 8 19 21.5t24 19.5q6 4 19 12.5t28 17.5t30 15.5t26 6.5q8 0 20.5 -4.5t12.5 -16.5z" />
    <glyph glyph-name="bar" unicode="|" horiz-adv-x="150" 
d="M145 452q0 -5 -2 -19.5t-5.5 -34t-8 -41.5t-9.5 -41q-5 -18 -13 -37.5t-13 -40.5q-6 -23 -9.5 -46.5t-6.5 -47.5q-1 -7 -5.5 -18t-4.5 -23q0 -4 5 -11t5 -15q0 -16 -1.5 -34.5t-5.5 -34.5q0 -2 -1 -3q-2 -3 -11 -3q-5 0 -11.5 6.5t-12.5 15t-10.5 17.5t-4.5 15q0 8 7 24
t10 34q1 8 -2 18.5t-2 17.5q8 41 19 89.5t21.5 96.5t17.5 92.5t7 77.5h15q13 0 19.5 -6.5t9.5 -15.5t3 -18v-14z" />
    <glyph glyph-name="braceright" unicode="}" horiz-adv-x="312" 
d="M213 459q0 -12 -6 -31t-13.5 -39.5t-15 -40t-11.5 -32.5q-3 -12 -9 -31l-12 -38t-10 -33.5t-4 -18.5q0 -7 1.5 -12.5t8.5 -5.5t11.5 4t13.5 4t15.5 -9t6.5 -15q0 -7 -3 -12t-5 -11q-6 -7 -13 -16.5t-13.5 -19.5t-11.5 -19.5t-6 -16.5q-2 -10 -5 -24t-5.5 -27.5t-4.5 -24
t-2 -14.5q0 -3 2.5 -14t5.5 -23t5.5 -22.5t2.5 -14.5q0 -2 -2.5 -5.5t-4.5 -7.5q-3 -4 -6 -9q-8 2 -15 16.5t-12 31.5t-8.5 33.5t-3.5 22.5q0 3 1.5 13.5t4 24.5l5 28t4.5 25q2 14 9.5 32.5t7.5 25.5q0 4 -3 11.5t-7 15.5t-7 15.5t-3 11.5q0 11 6 32.5t15 47.5t19.5 54
l19.5 52t15 41.5t6 22.5q0 9 -4.5 12.5t-10.5 5t-12.5 1t-9.5 -0.5q-4 0 -12 -2t-17 -4t-17 -4t-12 -2q-7 0 -12.5 4.5t-5.5 11.5q0 16 14 24.5t31.5 13t34.5 5.5t23 1q28 0 37 -13t9 -31z" />
    <glyph glyph-name="asciitilde" unicode="~" horiz-adv-x="406" 
d="M392 217q0 -8 -16.5 -19.5t-36 -22t-37 -18t-18.5 -7.5q-11 -1 -24.5 -2.5t-22.5 -1.5q-28 0 -43.5 8.5t-25.5 18.5t-19 18.5t-23 8.5q-10 0 -23 -7.5t-26 -16t-23.5 -16t-15.5 -7.5q-10 0 -16 7.5t-6 14.5t11.5 20.5t28.5 26.5t36 22.5t34 9.5q18 0 31 -9t25.5 -20
t27.5 -20t38 -9q15 0 34 5.5t36.5 13t31 14t17.5 9.5q10 -5 17.5 -9t7.5 -12z" />
    <glyph glyph-name="thothannobasethai" horiz-adv-x="255" 
d="M358 370q-4 -6 -7 -9q-18 -5 -42 -11.5t-52.5 -18t-59.5 -28.5t-63 -41q3 -11 7.5 -21t8.5 -21q3 -9 3 -20v-21q0 -18 -5 -43t-12.5 -50.5t-17 -48t-18.5 -33.5h-22q-7 7 -14 17.5t-7 17.5q0 12 2.5 29t4 35.5t-1 38.5t-12.5 38q-3 6 -12.5 18t-19.5 25t-18 23.5t-8 15.5
q0 8 20.5 19t46.5 22.5t50 20.5t31 13q19 10 41.5 25t49.5 24q7 3 20 5t25.5 3.5t23.5 2.5t15 1q16 0 23.5 -0.5t10.5 -2.5t5 -6.5t8 -12.5zM120 201q0 10 -10.5 23.5t-26.5 15.5q4 -25 9.5 -51t5.5 -48q11 11 16.5 29.5t5.5 30.5z" />
    <glyph glyph-name="thothannobasethai" unicode="&#xf700;" horiz-adv-x="255" 
d="M358 370q-4 -6 -7 -9q-18 -5 -42 -11.5t-52.5 -18t-59.5 -28.5t-63 -41q3 -11 7.5 -21t8.5 -21q3 -9 3 -20v-21q0 -18 -5 -43t-12.5 -50.5t-17 -48t-18.5 -33.5h-22q-7 7 -14 17.5t-7 17.5q0 12 2.5 29t4 35.5t-1 38.5t-12.5 38q-3 6 -12.5 18t-19.5 25t-18 23.5t-8 15.5
q0 8 20.5 19t46.5 22.5t50 20.5t31 13q19 10 41.5 25t49.5 24q7 3 20 5t25.5 3.5t23.5 2.5t15 1q16 0 23.5 -0.5t10.5 -2.5t5 -6.5t8 -12.5zM120 201q0 10 -10.5 23.5t-26.5 15.5q4 -25 9.5 -51t5.5 -48q11 11 16.5 29.5t5.5 30.5z" />
    <glyph glyph-name="thothannobasethai" unicode="&#x20ac;" horiz-adv-x="255" 
d="M358 370q-4 -6 -7 -9q-18 -5 -42 -11.5t-52.5 -18t-59.5 -28.5t-63 -41q3 -11 7.5 -21t8.5 -21q3 -9 3 -20v-21q0 -18 -5 -43t-12.5 -50.5t-17 -48t-18.5 -33.5h-22q-7 7 -14 17.5t-7 17.5q0 12 2.5 29t4 35.5t-1 38.5t-12.5 38q-3 6 -12.5 18t-19.5 25t-18 23.5t-8 15.5
q0 8 20.5 19t46.5 22.5t50 20.5t31 13q19 10 41.5 25t49.5 24q7 3 20 5t25.5 3.5t23.5 2.5t15 1q16 0 23.5 -0.5t10.5 -2.5t5 -6.5t8 -12.5zM120 201q0 10 -10.5 23.5t-26.5 15.5q4 -25 9.5 -51t5.5 -48q11 11 16.5 29.5t5.5 30.5z" />
    <glyph glyph-name="saraileftthai" 
d="M-58 507q-3 -5 -4 -13t-10 -8q-8 0 -21.5 6.5t-22.5 6.5q-14 0 -18.5 -5t-7.5 -10.5t-8 -10.5t-20 -5q-5 0 -17.5 3t-27 6t-27.5 6t-17 3q-5 0 -14 -2t-19 -4t-19.5 -4t-13.5 -2q-12 0 -16.5 7.5t-6 18t-2 22t-3.5 18.5q4 4 8 9t8 8q9 7 23 7.5t24 2.5q12 3 29 6.5
t33 5.5t29 3.5t17 1.5q7 0 32.5 -7t51.5 -14q8 -11 20.5 -24t19.5 -32z" />
    <glyph glyph-name="saraileftthai" unicode="&#xf701;" 
d="M-58 507q-3 -5 -4 -13t-10 -8q-8 0 -21.5 6.5t-22.5 6.5q-14 0 -18.5 -5t-7.5 -10.5t-8 -10.5t-20 -5q-5 0 -17.5 3t-27 6t-27.5 6t-17 3q-5 0 -14 -2t-19 -4t-19.5 -4t-13.5 -2q-12 0 -16.5 7.5t-6 18t-2 22t-3.5 18.5q4 4 8 9t8 8q9 7 23 7.5t24 2.5q12 3 29 6.5
t33 5.5t29 3.5t17 1.5q7 0 32.5 -7t51.5 -14q8 -11 20.5 -24t19.5 -32z" />
    <glyph glyph-name="saraiileftthai" 
d="M-47 631q0 -11 -11 -21.5t-24 -30.5q-7 -10 -11.5 -25t-9.5 -31.5t-13 -32t-22 -25.5q-23 12 -34 23.5t-20.5 21.5t-22 16t-38.5 6q-14 0 -30.5 -0.5t-30.5 -12.5v-9q14 -2 27 -0.5t26 1.5t27 -3t30 -13q-3 -5 -10.5 -10.5t-15.5 -5.5q-5 0 -14 -1t-18.5 -2.5t-18.5 -2.5
t-14 -1q-16 0 -33 2t-31.5 7.5t-23.5 14.5t-9 24q0 16 15 27t35 18t40.5 10t32.5 3q14 0 26.5 -1t25.5 -5.5t27 -12.5t31 -23q14 8 22 27q1 3 7 17.5t15.5 30.5t21.5 29t25 13q19 0 20 -8.5t1 -13.5z" />
    <glyph glyph-name="saraiileftthai" unicode="&#xf702;" 
d="M-47 631q0 -11 -11 -21.5t-24 -30.5q-7 -10 -11.5 -25t-9.5 -31.5t-13 -32t-22 -25.5q-23 12 -34 23.5t-20.5 21.5t-22 16t-38.5 6q-14 0 -30.5 -0.5t-30.5 -12.5v-9q14 -2 27 -0.5t26 1.5t27 -3t30 -13q-3 -5 -10.5 -10.5t-15.5 -5.5q-5 0 -14 -1t-18.5 -2.5t-18.5 -2.5
t-14 -1q-16 0 -33 2t-31.5 7.5t-23.5 14.5t-9 24q0 16 15 27t35 18t40.5 10t32.5 3q14 0 26.5 -1t25.5 -5.5t27 -12.5t31 -23q14 8 22 27q1 3 7 17.5t15.5 30.5t21.5 29t25 13q19 0 20 -8.5t1 -13.5z" />
    <glyph glyph-name="saraiileftthai" unicode="&#x201a;" 
d="M-47 631q0 -11 -11 -21.5t-24 -30.5q-7 -10 -11.5 -25t-9.5 -31.5t-13 -32t-22 -25.5q-23 12 -34 23.5t-20.5 21.5t-22 16t-38.5 6q-14 0 -30.5 -0.5t-30.5 -12.5v-9q14 -2 27 -0.5t26 1.5t27 -3t30 -13q-3 -5 -10.5 -10.5t-15.5 -5.5q-5 0 -14 -1t-18.5 -2.5t-18.5 -2.5
t-14 -1q-16 0 -33 2t-31.5 7.5t-23.5 14.5t-9 24q0 16 15 27t35 18t40.5 10t32.5 3q14 0 26.5 -1t25.5 -5.5t27 -12.5t31 -23q14 8 22 27q1 3 7 17.5t15.5 30.5t21.5 29t25 13q19 0 20 -8.5t1 -13.5z" />
    <glyph glyph-name="saraueleftthai" 
d="M6 594q0 -29 -14 -48.5t-35 -32t-45 -19t-43 -8.5q-8 -1 -16.5 -5.5t-19.5 -4.5t-35 5t-48.5 15t-43.5 25.5t-19 36.5q0 11 7 19t18 8q10 0 22 -9t24 -14q9 -3 28 -5t30 -2q22 0 32.5 8t15 20t7.5 26.5t9.5 26.5t20.5 20t41 8q37 0 50.5 -19.5t13.5 -50.5z" />
    <glyph glyph-name="saraueleftthai" unicode="&#xf703;" 
d="M6 594q0 -29 -14 -48.5t-35 -32t-45 -19t-43 -8.5q-8 -1 -16.5 -5.5t-19.5 -4.5t-35 5t-48.5 15t-43.5 25.5t-19 36.5q0 11 7 19t18 8q10 0 22 -9t24 -14q9 -3 28 -5t30 -2q22 0 32.5 8t15 20t7.5 26.5t9.5 26.5t20.5 20t41 8q37 0 50.5 -19.5t13.5 -50.5z" />
    <glyph glyph-name="saraueleftthai" unicode="&#x192;" 
d="M6 594q0 -29 -14 -48.5t-35 -32t-45 -19t-43 -8.5q-8 -1 -16.5 -5.5t-19.5 -4.5t-35 5t-48.5 15t-43.5 25.5t-19 36.5q0 11 7 19t18 8q10 0 22 -9t24 -14q9 -3 28 -5t30 -2q22 0 32.5 8t15 20t7.5 26.5t9.5 26.5t20.5 20t41 8q37 0 50.5 -19.5t13.5 -50.5z" />
    <glyph glyph-name="saraueeleftthai" 
d="M15 640q0 -3 -9 -18l-22.5 -37.5t-30 -49t-30.5 -51.5q-1 -2 -3 -7t-13 -5q-13 0 -17.5 6.5t-5.5 14t-2 14t-6 6.5q-8 0 -23.5 -7.5t-23.5 -7.5q-4 0 -18.5 1t-34 2.5t-40.5 4t-37 4.5q-8 1 -16 9.5t-8 13.5q0 9 4 13.5t10 7t13 3t13 0.5q4 0 19 -2.5t32.5 -5t32.5 -5
t19 -2.5q21 0 34 11.5t21 26.5t12.5 29.5t9.5 21.5q2 2 7.5 5.5t13.5 3.5q9 0 14 -11t16 -19q6 3 12 11t13 16.5t16.5 14t22.5 2.5q0 -3 2.5 -5t2.5 -9z" />
    <glyph glyph-name="saraueeleftthai" unicode="&#xf704;" 
d="M15 640q0 -3 -9 -18l-22.5 -37.5t-30 -49t-30.5 -51.5q-1 -2 -3 -7t-13 -5q-13 0 -17.5 6.5t-5.5 14t-2 14t-6 6.5q-8 0 -23.5 -7.5t-23.5 -7.5q-4 0 -18.5 1t-34 2.5t-40.5 4t-37 4.5q-8 1 -16 9.5t-8 13.5q0 9 4 13.5t10 7t13 3t13 0.5q4 0 19 -2.5t32.5 -5t32.5 -5
t19 -2.5q21 0 34 11.5t21 26.5t12.5 29.5t9.5 21.5q2 2 7.5 5.5t13.5 3.5q9 0 14 -11t16 -19q6 3 12 11t13 16.5t16.5 14t22.5 2.5q0 -3 2.5 -5t2.5 -9z" />
    <glyph glyph-name="saraueeleftthai" unicode="&#x201e;" 
d="M15 640q0 -3 -9 -18l-22.5 -37.5t-30 -49t-30.5 -51.5q-1 -2 -3 -7t-13 -5q-13 0 -17.5 6.5t-5.5 14t-2 14t-6 6.5q-8 0 -23.5 -7.5t-23.5 -7.5q-4 0 -18.5 1t-34 2.5t-40.5 4t-37 4.5q-8 1 -16 9.5t-8 13.5q0 9 4 13.5t10 7t13 3t13 0.5q4 0 19 -2.5t32.5 -5t32.5 -5
t19 -2.5q21 0 34 11.5t21 26.5t12.5 29.5t9.5 21.5q2 2 7.5 5.5t13.5 3.5q9 0 14 -11t16 -19q6 3 12 11t13 16.5t16.5 14t22.5 2.5q0 -3 2.5 -5t2.5 -9z" />
    <glyph glyph-name="ellipsis" unicode="&#x85;" horiz-adv-x="387" 
d="M365 89q0 -6 -4 -11t-8.5 -11t-6.5 -15t2 -22q-4 -5 -10 -9t-17 -4q-9 0 -14.5 6.5t-8.5 14.5t-4 15t-1 8q0 20 12.5 32.5t26.5 12.5q11 0 22 -3t11 -14zM226 53q0 -18 -14.5 -30t-24.5 -12q-7 0 -12.5 7t-9 16.5t-5 18t-1.5 11.5q0 9 11 14.5t22 5.5q16 0 25 -9t9 -22z
M114 65q-6 -10 -8.5 -21.5l-5 -23t-7 -22.5t-14.5 -20q-3 1 -9 5t-12.5 10.5t-11 14t-4.5 14.5q0 20 11.5 38t30.5 18q11 0 16.5 -4.5t13.5 -8.5z" />
    <glyph glyph-name="ellipsis" unicode="&#x2026;" horiz-adv-x="387" 
d="M365 89q0 -6 -4 -11t-8.5 -11t-6.5 -15t2 -22q-4 -5 -10 -9t-17 -4q-9 0 -14.5 6.5t-8.5 14.5t-4 15t-1 8q0 20 12.5 32.5t26.5 12.5q11 0 22 -3t11 -14zM226 53q0 -18 -14.5 -30t-24.5 -12q-7 0 -12.5 7t-9 16.5t-5 18t-1.5 11.5q0 9 11 14.5t22 5.5q16 0 25 -9t9 -22z
M114 65q-6 -10 -8.5 -21.5l-5 -23t-7 -22.5t-14.5 -20q-3 1 -9 5t-12.5 10.5t-11 14t-4.5 14.5q0 20 11.5 38t30.5 18q11 0 16.5 -4.5t13.5 -8.5z" />
    <glyph glyph-name="maieklowleftthai" horiz-adv-x="19" 
d="M-149 583q0 -5 -5.5 -20t-13.5 -31t-16.5 -29t-14.5 -13q-14 0 -14 11q0 2 3.5 13.5t9.5 27t13 32t14 30.5h20q2 -5 3 -10.5t1 -10.5z" />
    <glyph glyph-name="maieklowleftthai" unicode="&#xf705;" horiz-adv-x="19" 
d="M-149 583q0 -5 -5.5 -20t-13.5 -31t-16.5 -29t-14.5 -13q-14 0 -14 11q0 2 3.5 13.5t9.5 27t13 32t14 30.5h20q2 -5 3 -10.5t1 -10.5z" />
    <glyph glyph-name="maieklowleftthai" unicode="&#x2020;" horiz-adv-x="19" 
d="M-149 583q0 -5 -5.5 -20t-13.5 -31t-16.5 -29t-14.5 -13q-14 0 -14 11q0 2 3.5 13.5t9.5 27t13 32t14 30.5h20q2 -5 3 -10.5t1 -10.5z" />
    <glyph glyph-name="maitholowleftthai" 
d="M-17 601q0 -13 -46 -34q-3 -2 -14.5 -10.5t-28 -20t-36 -25t-38.5 -25t-35 -19t-25 -7.5q-8 0 -13.5 4.5t-10.5 10.5q-5 7 -9 16q0 3 8 12.5t17 20.5t17 20.5t8 13.5v28q0 3 -3.5 3.5t-8.5 0.5t-10.5 -0.5t-9.5 -0.5q-8 5 -18.5 13t-10.5 15t7 13t17 10.5t19.5 7
t14.5 2.5q9 0 19 -3t19 -9t15 -13.5t7 -16.5q1 -6 0 -17t-3 -22q-1 -1 0 -2q0 -2 5 -4q15 7 33.5 17t36.5 19t32.5 15.5t19.5 6.5q11 0 12 -2t6 -2q7 -4 7 -16z" />
    <glyph glyph-name="maitholowleftthai" unicode="&#xf706;" 
d="M-17 601q0 -13 -46 -34q-3 -2 -14.5 -10.5t-28 -20t-36 -25t-38.5 -25t-35 -19t-25 -7.5q-8 0 -13.5 4.5t-10.5 10.5q-5 7 -9 16q0 3 8 12.5t17 20.5t17 20.5t8 13.5v28q0 3 -3.5 3.5t-8.5 0.5t-10.5 -0.5t-9.5 -0.5q-8 5 -18.5 13t-10.5 15t7 13t17 10.5t19.5 7
t14.5 2.5q9 0 19 -3t19 -9t15 -13.5t7 -16.5q1 -6 0 -17t-3 -22q-1 -1 0 -2q0 -2 5 -4q15 7 33.5 17t36.5 19t32.5 15.5t19.5 6.5q11 0 12 -2t6 -2q7 -4 7 -16z" />
    <glyph glyph-name="maitholowleftthai" unicode="&#x2021;" 
d="M-17 601q0 -13 -46 -34q-3 -2 -14.5 -10.5t-28 -20t-36 -25t-38.5 -25t-35 -19t-25 -7.5q-8 0 -13.5 4.5t-10.5 10.5q-5 7 -9 16q0 3 8 12.5t17 20.5t17 20.5t8 13.5v28q0 3 -3.5 3.5t-8.5 0.5t-10.5 -0.5t-9.5 -0.5q-8 5 -18.5 13t-10.5 15t7 13t17 10.5t19.5 7
t14.5 2.5q9 0 19 -3t19 -9t15 -13.5t7 -16.5q1 -6 0 -17t-3 -22q-1 -1 0 -2q0 -2 5 -4q15 7 33.5 17t36.5 19t32.5 15.5t19.5 6.5q11 0 12 -2t6 -2q7 -4 7 -16z" />
    <glyph glyph-name="maitrilowleftthai" 
d="M104 619q0 -6 -4.5 -12.5t-11 -12.5t-12.5 -11t-9 -9q-11 -14 -25 -29.5t-29 -28.5t-30.5 -21.5t-28.5 -8.5q-6 0 -12.5 9t-14.5 17q-8 -6 -12.5 -10.5t-7.5 -8t-6 -5.5t-9 -2q-12 0 -18 6t-8 13.5t-2 15.5t-1 12q0 3 -1.5 4.5l-4.5 4.5q-5 -2 -7.5 -7.5t-7.5 -11.5
q6 -23 3.5 -39t-1.5 -37q-2 0 -4.5 -2t-9.5 -2q-9 0 -15 5.5t-10 12.5t-6 13.5t-2 8.5q0 8 4 27.5t12.5 39.5t20.5 35.5t27 15.5q10 0 16 -4t10 -10t7 -13.5t8 -15.5q7 4 15 11t15.5 14t14 12.5t9.5 5.5q11 0 16 -6t6.5 -13.5t1.5 -14.5v-8q0 -2 -2 -3t6 -1q3 0 15 8
t27.5 20t32 25.5t28.5 24.5h12q5 -4 5 -14z" />
    <glyph glyph-name="maitrilowleftthai" unicode="&#xf707;" 
d="M104 619q0 -6 -4.5 -12.5t-11 -12.5t-12.5 -11t-9 -9q-11 -14 -25 -29.5t-29 -28.5t-30.5 -21.5t-28.5 -8.5q-6 0 -12.5 9t-14.5 17q-8 -6 -12.5 -10.5t-7.5 -8t-6 -5.5t-9 -2q-12 0 -18 6t-8 13.5t-2 15.5t-1 12q0 3 -1.5 4.5l-4.5 4.5q-5 -2 -7.5 -7.5t-7.5 -11.5
q6 -23 3.5 -39t-1.5 -37q-2 0 -4.5 -2t-9.5 -2q-9 0 -15 5.5t-10 12.5t-6 13.5t-2 8.5q0 8 4 27.5t12.5 39.5t20.5 35.5t27 15.5q10 0 16 -4t10 -10t7 -13.5t8 -15.5q7 4 15 11t15.5 14t14 12.5t9.5 5.5q11 0 16 -6t6.5 -13.5t1.5 -14.5v-8q0 -2 -2 -3t6 -1q3 0 15 8
t27.5 20t32 25.5t28.5 24.5h12q5 -4 5 -14z" />
    <glyph glyph-name="maitrilowleftthai" unicode="&#x2c6;" 
d="M104 619q0 -6 -4.5 -12.5t-11 -12.5t-12.5 -11t-9 -9q-11 -14 -25 -29.5t-29 -28.5t-30.5 -21.5t-28.5 -8.5q-6 0 -12.5 9t-14.5 17q-8 -6 -12.5 -10.5t-7.5 -8t-6 -5.5t-9 -2q-12 0 -18 6t-8 13.5t-2 15.5t-1 12q0 3 -1.5 4.5l-4.5 4.5q-5 -2 -7.5 -7.5t-7.5 -11.5
q6 -23 3.5 -39t-1.5 -37q-2 0 -4.5 -2t-9.5 -2q-9 0 -15 5.5t-10 12.5t-6 13.5t-2 8.5q0 8 4 27.5t12.5 39.5t20.5 35.5t27 15.5q10 0 16 -4t10 -10t7 -13.5t8 -15.5q7 4 15 11t15.5 14t14 12.5t9.5 5.5q11 0 16 -6t6.5 -13.5t1.5 -14.5v-8q0 -2 -2 -3t6 -1q3 0 15 8
t27.5 20t32 25.5t28.5 24.5h12q5 -4 5 -14z" />
    <glyph glyph-name="maichattawalowleftthai" 
d="M-125 569q-13 -5 -26.5 -8.5t-23.5 -7.5q-13 -4 -19 -16.5t-11 -22.5q-5 -9 -13 -17t-1 -19q-3 0 -5.5 -1.5t-10.5 -1.5q-14 0 -16 9q-1 4 0 10q0 2 3 8.5t7 14t7 14.5t3 9q0 5 -1.5 4t-1.5 3q-7 -1 -15.5 -1t-16 2t-12.5 6t-5 10q0 7 10 10.5t22.5 5.5t23.5 3.5t13 4.5
q6 8 14.5 18.5t14.5 19.5h23q0 -8 -0.5 -16.5t-3.5 -18.5q8 -5 19 -8t22 -5v-9v0z" />
    <glyph glyph-name="maichattawalowleftthai" unicode="&#xf708;" 
d="M-125 569q-13 -5 -26.5 -8.5t-23.5 -7.5q-13 -4 -19 -16.5t-11 -22.5q-5 -9 -13 -17t-1 -19q-3 0 -5.5 -1.5t-10.5 -1.5q-14 0 -16 9q-1 4 0 10q0 2 3 8.5t7 14t7 14.5t3 9q0 5 -1.5 4t-1.5 3q-7 -1 -15.5 -1t-16 2t-12.5 6t-5 10q0 7 10 10.5t22.5 5.5t23.5 3.5t13 4.5
q6 8 14.5 18.5t14.5 19.5h23q0 -8 -0.5 -16.5t-3.5 -18.5q8 -5 19 -8t22 -5v-9v0z" />
    <glyph glyph-name="maichattawalowleftthai" unicode="&#x2030;" 
d="M-125 569q-13 -5 -26.5 -8.5t-23.5 -7.5q-13 -4 -19 -16.5t-11 -22.5q-5 -9 -13 -17t-1 -19q-3 0 -5.5 -1.5t-10.5 -1.5q-14 0 -16 9q-1 4 0 10q0 2 3 8.5t7 14t7 14.5t3 9q0 5 -1.5 4t-1.5 3q-7 -1 -15.5 -1t-16 2t-12.5 6t-5 10q0 7 10 10.5t22.5 5.5t23.5 3.5t13 4.5
q6 8 14.5 18.5t14.5 19.5h23q0 -8 -0.5 -16.5t-3.5 -18.5q8 -5 19 -8t22 -5v-9v0z" />
    <glyph glyph-name="thanthakhatlowleftthai" 
d="M139 615q0 -6 -5 -8.5t-12.5 -4t-16 -3t-15.5 -4.5q-37 -17 -78 -34.5t-69 -42.5q-2 -2 -1.5 -7t1.5 -11t2 -12.5t0 -12.5q-1 -5 -9.5 -12.5t-16.5 -12.5q-4 -1 -6.5 -1h-13.5q-8 0 -17.5 4.5t-17.5 10.5t-13 12.5t-5 11.5q0 17 14.5 33t37 29.5t49.5 25.5t51.5 20.5
t43 14t24.5 7.5q10 3 23.5 8t22.5 5q11 0 16.5 -2t10.5 -2v-12v0z" />
    <glyph glyph-name="thanthakhatlowleftthai" unicode="&#xf709;" 
d="M139 615q0 -6 -5 -8.5t-12.5 -4t-16 -3t-15.5 -4.5q-37 -17 -78 -34.5t-69 -42.5q-2 -2 -1.5 -7t1.5 -11t2 -12.5t0 -12.5q-1 -5 -9.5 -12.5t-16.5 -12.5q-4 -1 -6.5 -1h-13.5q-8 0 -17.5 4.5t-17.5 10.5t-13 12.5t-5 11.5q0 17 14.5 33t37 29.5t49.5 25.5t51.5 20.5
t43 14t24.5 7.5q10 3 23.5 8t22.5 5q11 0 16.5 -2t10.5 -2v-12v0z" />
    <glyph glyph-name="thanthakhatlowleftthai" unicode="&#x160;" 
d="M139 615q0 -6 -5 -8.5t-12.5 -4t-16 -3t-15.5 -4.5q-37 -17 -78 -34.5t-69 -42.5q-2 -2 -1.5 -7t1.5 -11t2 -12.5t0 -12.5q-1 -5 -9.5 -12.5t-16.5 -12.5q-4 -1 -6.5 -1h-13.5q-8 0 -17.5 4.5t-17.5 10.5t-13 12.5t-5 11.5q0 17 14.5 33t37 29.5t49.5 25.5t51.5 20.5
t43 14t24.5 7.5q10 3 23.5 8t22.5 5q11 0 16.5 -2t10.5 -2v-12v0z" />
    <glyph glyph-name="maieklowrightthai" 
d="M77 586q0 -4 -10 -26t-24 -46.5t-30 -44t-29 -19.5q-11 0 -18.5 4t-7.5 12q0 4 8 21t19 40t24 47.5t23 44.5h37q5 -8 6.5 -17t1.5 -16z" />
    <glyph glyph-name="maieklowrightthai" unicode="&#xf70a;" 
d="M77 586q0 -4 -10 -26t-24 -46.5t-30 -44t-29 -19.5q-11 0 -18.5 4t-7.5 12q0 4 8 21t19 40t24 47.5t23 44.5h37q5 -8 6.5 -17t1.5 -16z" />
    <glyph glyph-name="maieklowrightthai" unicode="&#x2039;" 
d="M77 586q0 -4 -10 -26t-24 -46.5t-30 -44t-29 -19.5q-11 0 -18.5 4t-7.5 12q0 4 8 21t19 40t24 47.5t23 44.5h37q5 -8 6.5 -17t1.5 -16z" />
    <glyph glyph-name="maitholowrightthai" 
d="M51 527q-22 -9 -44.5 -22t-45 -25t-44 -20.5t-41.5 -8.5q-19 0 -38 9t-19 20q0 3 10 18.5t22.5 33.5t22.5 34t10 19q0 6 -2.5 5.5t-2.5 4.5h-19q-5 0 -13.5 -4t-18.5 -8.5t-19 -8t-14 -3.5q-9 0 -13.5 3.5t-7 8t-3 8t-0.5 4.5q0 10 10.5 19t26 15.5t34 10t34.5 3.5
t27 -7.5t18 -17.5t9.5 -20t2.5 -15q0 -6 -4.5 -15.5t-10 -19.5t-11 -19.5t-7.5 -13.5q5 -2 4 -2t10 0q4 0 20.5 6t35.5 12.5t35.5 12.5t21.5 6q11 0 15 -6.5t9 -16.5z" />
    <glyph glyph-name="maitholowrightthai" unicode="&#xf70b;" 
d="M51 527q-22 -9 -44.5 -22t-45 -25t-44 -20.5t-41.5 -8.5q-19 0 -38 9t-19 20q0 3 10 18.5t22.5 33.5t22.5 34t10 19q0 6 -2.5 5.5t-2.5 4.5h-19q-5 0 -13.5 -4t-18.5 -8.5t-19 -8t-14 -3.5q-9 0 -13.5 3.5t-7 8t-3 8t-0.5 4.5q0 10 10.5 19t26 15.5t34 10t34.5 3.5
t27 -7.5t18 -17.5t9.5 -20t2.5 -15q0 -6 -4.5 -15.5t-10 -19.5t-11 -19.5t-7.5 -13.5q5 -2 4 -2t10 0q4 0 20.5 6t35.5 12.5t35.5 12.5t21.5 6q11 0 15 -6.5t9 -16.5z" />
    <glyph glyph-name="maitholowrightthai" unicode="&#x152;" 
d="M51 527q-22 -9 -44.5 -22t-45 -25t-44 -20.5t-41.5 -8.5q-19 0 -38 9t-19 20q0 3 10 18.5t22.5 33.5t22.5 34t10 19q0 6 -2.5 5.5t-2.5 4.5h-19q-5 0 -13.5 -4t-18.5 -8.5t-19 -8t-14 -3.5q-9 0 -13.5 3.5t-7 8t-3 8t-0.5 4.5q0 10 10.5 19t26 15.5t34 10t34.5 3.5
t27 -7.5t18 -17.5t9.5 -20t2.5 -15q0 -6 -4.5 -15.5t-10 -19.5t-11 -19.5t-7.5 -13.5q5 -2 4 -2t10 0q4 0 20.5 6t35.5 12.5t35.5 12.5t21.5 6q11 0 15 -6.5t9 -16.5z" />
    <glyph glyph-name="maitrilowrightthai" 
d="M250 679q-19 -22 -42 -50t-52 -62q-5 -5 -17 -21.5t-27.5 -34t-32 -31t-29.5 -13.5q-5 0 -12.5 5.5t-12.5 8.5q-4 9 -6.5 17t-0.5 19q1 2 3.5 6t2.5 9q0 2 -0.5 6t-0.5 9v1q0 2 -2 4q-6 0 -12 -6q-3 -5 -9.5 -12t-14.5 -14.5t-15.5 -14.5t-11.5 -13q-5 -1 -13.5 4.5
t-10.5 11.5q-4 11 -0.5 24t3.5 29q-3 0 -2.5 1.5t-7.5 1.5q-6 0 -12 -6t-11.5 -14t-9 -15t-3.5 -9q0 -6 7.5 -16t7.5 -16q0 -4 -3 -10.5t-8 -13t-10.5 -11t-10.5 -4.5q-6 0 -11.5 5t-9 11t-5.5 12t-2 8q0 3 1.5 11t4.5 18.5t6.5 21.5t8.5 18q6 9 12.5 18.5t15 17.5t18 13.5
t20.5 5.5t17 -4t9.5 -10t7 -12.5t9.5 -12.5q7 4 15.5 11t16.5 13t14.5 10.5t10.5 4.5q15 0 19.5 -10t4.5 -16v-53l6 -6q49 37 86.5 81t79.5 91q11 0 14.5 -2t6.5 -2v-13z" />
    <glyph glyph-name="maitrilowrightthai" unicode="&#xf70c;" 
d="M250 679q-19 -22 -42 -50t-52 -62q-5 -5 -17 -21.5t-27.5 -34t-32 -31t-29.5 -13.5q-5 0 -12.5 5.5t-12.5 8.5q-4 9 -6.5 17t-0.5 19q1 2 3.5 6t2.5 9q0 2 -0.5 6t-0.5 9v1q0 2 -2 4q-6 0 -12 -6q-3 -5 -9.5 -12t-14.5 -14.5t-15.5 -14.5t-11.5 -13q-5 -1 -13.5 4.5
t-10.5 11.5q-4 11 -0.5 24t3.5 29q-3 0 -2.5 1.5t-7.5 1.5q-6 0 -12 -6t-11.5 -14t-9 -15t-3.5 -9q0 -6 7.5 -16t7.5 -16q0 -4 -3 -10.5t-8 -13t-10.5 -11t-10.5 -4.5q-6 0 -11.5 5t-9 11t-5.5 12t-2 8q0 3 1.5 11t4.5 18.5t6.5 21.5t8.5 18q6 9 12.5 18.5t15 17.5t18 13.5
t20.5 5.5t17 -4t9.5 -10t7 -12.5t9.5 -12.5q7 4 15.5 11t16.5 13t14.5 10.5t10.5 4.5q15 0 19.5 -10t4.5 -16v-53l6 -6q49 37 86.5 81t79.5 91q11 0 14.5 -2t6.5 -2v-13z" />
    <glyph glyph-name="maichattawalowrightthai" 
d="M39 574q0 -5 -10 -8.5t-22.5 -6.5t-24 -6t-13.5 -8q-8 -15 -8 -30.5t-5 -30.5q-3 -9 -6 -20t-7 -22q-2 2 -10.5 6.5t-8.5 9.5q0 3 2 13t5 22t5 22t2 13q0 5 -4.5 8t-10.5 3q-7 0 -18 -1t-18 -1q-10 0 -24.5 1t-23.5 10q1 4 -2.5 8t-3.5 9q0 8 11 12t16 4q7 0 15.5 -3
t15.5 -3q4 0 12.5 1.5t17.5 3.5t16 3.5l7 1.5q4 10 6 21l4 22q2 7 9 12h14q5 0 5.5 -5t0.5 -9q0 -7 -4 -15.5t-4 -13.5q0 -8 9 -8.5t11 -0.5q8 0 13 1.5t11 1.5q11 0 15.5 -6t4.5 -11z" />
    <glyph glyph-name="maichattawalowrightthai" unicode="&#xf70d;" 
d="M39 574q0 -5 -10 -8.5t-22.5 -6.5t-24 -6t-13.5 -8q-8 -15 -8 -30.5t-5 -30.5q-3 -9 -6 -20t-7 -22q-2 2 -10.5 6.5t-8.5 9.5q0 3 2 13t5 22t5 22t2 13q0 5 -4.5 8t-10.5 3q-7 0 -18 -1t-18 -1q-10 0 -24.5 1t-23.5 10q1 4 -2.5 8t-3.5 9q0 8 11 12t16 4q7 0 15.5 -3
t15.5 -3q4 0 12.5 1.5t17.5 3.5t16 3.5l7 1.5q4 10 6 21l4 22q2 7 9 12h14q5 0 5.5 -5t0.5 -9q0 -7 -4 -15.5t-4 -13.5q0 -8 9 -8.5t11 -0.5q8 0 13 1.5t11 1.5q11 0 15.5 -6t4.5 -11z" />
    <glyph glyph-name="maichattawalowrightthai" unicode="&#x17d;" 
d="M39 574q0 -5 -10 -8.5t-22.5 -6.5t-24 -6t-13.5 -8q-8 -15 -8 -30.5t-5 -30.5q-3 -9 -6 -20t-7 -22q-2 2 -10.5 6.5t-8.5 9.5q0 3 2 13t5 22t5 22t2 13q0 5 -4.5 8t-10.5 3q-7 0 -18 -1t-18 -1q-10 0 -24.5 1t-23.5 10q1 4 -2.5 8t-3.5 9q0 8 11 12t16 4q7 0 15.5 -3
t15.5 -3q4 0 12.5 1.5t17.5 3.5t16 3.5l7 1.5q4 10 6 21l4 22q2 7 9 12h14q5 0 5.5 -5t0.5 -9q0 -7 -4 -15.5t-4 -13.5q0 -8 9 -8.5t11 -0.5q8 0 13 1.5t11 1.5q11 0 15.5 -6t4.5 -11z" />
    <glyph glyph-name="thanthakhatlowrightthai" 
d="M172 648q0 -4 -15 -10.5t-35 -14.5t-41.5 -16t-34.5 -15q-25 -13 -60 -32t-74 -42q0 -2 -0.5 -2.5t3.5 -2.5q12 1 19.5 -3t12 -10.5t6 -12.5t1.5 -9q0 -4 -1.5 -10t-6 -11.5t-12.5 -9.5t-22 -4q-19 0 -31.5 6.5t-20 14.5t-10.5 16.5t-3 11.5q0 15 9 28t20 24q4 4 15.5 10
t25 12t25.5 11.5t17 7.5q23 10 45.5 21.5t43.5 18.5q10 3 23.5 8t27 9.5l24 8t15.5 3.5h29q1 0 2 -1q3 -3 3 -5zM-93 486q-4 0 -9 1.5t-9 1.5q4 -4 9 -8.5t9 -3.5v9z" />
    <glyph glyph-name="thanthakhatlowrightthai" unicode="&#xf70e;" 
d="M172 648q0 -4 -15 -10.5t-35 -14.5t-41.5 -16t-34.5 -15q-25 -13 -60 -32t-74 -42q0 -2 -0.5 -2.5t3.5 -2.5q12 1 19.5 -3t12 -10.5t6 -12.5t1.5 -9q0 -4 -1.5 -10t-6 -11.5t-12.5 -9.5t-22 -4q-19 0 -31.5 6.5t-20 14.5t-10.5 16.5t-3 11.5q0 15 9 28t20 24q4 4 15.5 10
t25 12t25.5 11.5t17 7.5q23 10 45.5 21.5t43.5 18.5q10 3 23.5 8t27 9.5l24 8t15.5 3.5h29q1 0 2 -1q3 -3 3 -5zM-93 486q-4 0 -9 1.5t-9 1.5q4 -4 9 -8.5t9 -3.5v9z" />
    <glyph glyph-name="yoyingnobasethai" horiz-adv-x="517" 
d="M492 345q0 -8 -11.5 -35.5t-29 -64t-39 -76.5t-42 -74t-38 -56t-26.5 -22q-3 0 -11.5 9t-17.5 20.5t-16.5 23t-7.5 16.5q0 6 8.5 34t19 61t19.5 61t9 34q0 21 -5 32t-13 16.5t-18 6.5t-20 1q-6 0 -17.5 -2.5t-25.5 -6.5t-28.5 -9t-25.5 -9q-9 -3 -14 -13t-8 -22t-4.5 -23
t-3.5 -16q7 -8 14.5 -11.5t14.5 -8t11.5 -13t4.5 -26.5q0 -4 -6.5 -18t-16 -33t-21.5 -39.5t-23 -37.5t-20.5 -28.5t-13.5 -11.5q-5 0 -11.5 6t-12.5 14.5t-10 18t-4 15.5q0 5 4 20t10 34.5t12 40.5t10 38q4 16 5 44t7 51q8 25 18 52.5t24 54.5q16 -2 36.5 -1.5t39.5 1
t34 1.5t21 1q37 0 57.5 -12t31 -33.5t15.5 -50t13 -61.5q21 33 40.5 73.5t38.5 83.5h36q0 -10 3.5 -23t3.5 -27z" />
    <glyph glyph-name="yoyingnobasethai" unicode="&#xf70f;" horiz-adv-x="517" 
d="M492 345q0 -8 -11.5 -35.5t-29 -64t-39 -76.5t-42 -74t-38 -56t-26.5 -22q-3 0 -11.5 9t-17.5 20.5t-16.5 23t-7.5 16.5q0 6 8.5 34t19 61t19.5 61t9 34q0 21 -5 32t-13 16.5t-18 6.5t-20 1q-6 0 -17.5 -2.5t-25.5 -6.5t-28.5 -9t-25.5 -9q-9 -3 -14 -13t-8 -22t-4.5 -23
t-3.5 -16q7 -8 14.5 -11.5t14.5 -8t11.5 -13t4.5 -26.5q0 -4 -6.5 -18t-16 -33t-21.5 -39.5t-23 -37.5t-20.5 -28.5t-13.5 -11.5q-5 0 -11.5 6t-12.5 14.5t-10 18t-4 15.5q0 5 4 20t10 34.5t12 40.5t10 38q4 16 5 44t7 51q8 25 18 52.5t24 54.5q16 -2 36.5 -1.5t39.5 1
t34 1.5t21 1q37 0 57.5 -12t31 -33.5t15.5 -50t13 -61.5q21 33 40.5 73.5t38.5 83.5h36q0 -10 3.5 -23t3.5 -27z" />
    <glyph glyph-name="quoteleft" horiz-adv-x="237" 
d="M172 452q-7 -6 -15 -15.5t-15.5 -18.5t-12.5 -16.5t-5 -10.5t3.5 -7t8 -8.5l8.5 -8.5t4 -7q0 -6 -3.5 -12t-7.5 -10q-7 -8 -19.5 -13t-17.5 -5q-9 0 -13.5 4t-7 10t-3 12.5t-0.5 11.5q0 6 0.5 10t0.5 9q0 4 10 19.5t23.5 32.5t27 30t19.5 13q5 0 9 -4.5t6 -6.5v-9v0z" />
    <glyph glyph-name="quoteleft" unicode="&#x2018;" horiz-adv-x="237" 
d="M172 452q-7 -6 -15 -15.5t-15.5 -18.5t-12.5 -16.5t-5 -10.5t3.5 -7t8 -8.5l8.5 -8.5t4 -7q0 -6 -3.5 -12t-7.5 -10q-7 -8 -19.5 -13t-17.5 -5q-9 0 -13.5 4t-7 10t-3 12.5t-0.5 11.5q0 6 0.5 10t0.5 9q0 4 10 19.5t23.5 32.5t27 30t19.5 13q5 0 9 -4.5t6 -6.5v-9v0z" />
    <glyph glyph-name="quoteright" horiz-adv-x="237" 
d="M161 435q0 -6 -1 -10t-1 -10q0 -5 -9.5 -21.5t-22 -34t-25.5 -31.5t-20 -14q-5 0 -6 2t-5 2q0 3 -2 8.5t-2 8.5q6 6 14 15.5t15.5 19.5t12.5 18.5t5 11.5t-3.5 7.5t-8 9t-8 9t-3.5 7.5q0 7 3 13t7 11q7 8 19.5 13.5t17.5 5.5q8 0 12.5 -4.5t7 -11t3 -13.5t0.5 -12z" />
    <glyph glyph-name="quoteright" unicode="&#x2019;" horiz-adv-x="237" 
d="M161 435q0 -6 -1 -10t-1 -10q0 -5 -9.5 -21.5t-22 -34t-25.5 -31.5t-20 -14q-5 0 -6 2t-5 2q0 3 -2 8.5t-2 8.5q6 6 14 15.5t15.5 19.5t12.5 18.5t5 11.5t-3.5 7.5t-8 9t-8 9t-3.5 7.5q0 7 3 13t7 11q7 8 19.5 13.5t17.5 5.5q8 0 12.5 -4.5t7 -11t3 -13.5t0.5 -12z" />
    <glyph glyph-name="bullet" horiz-adv-x="358" 
d="M291 207q0 -12 -11.5 -34.5t-29 -45.5t-39 -40t-41.5 -17q-14 0 -32 9t-34.5 22.5t-28 30.5t-11.5 34q0 18 6 31.5t17.5 26t28 26t37.5 31.5q8 7 22.5 9t29.5 2q42 0 64 -25.5t22 -59.5z" />
    <glyph glyph-name="bullet" unicode="&#x2022;" horiz-adv-x="358" 
d="M291 207q0 -12 -11.5 -34.5t-29 -45.5t-39 -40t-41.5 -17q-14 0 -32 9t-34.5 22.5t-28 30.5t-11.5 34q0 18 6 31.5t17.5 26t28 26t37.5 31.5q8 7 22.5 9t29.5 2q42 0 64 -25.5t22 -59.5z" />
    <glyph glyph-name="endash" horiz-adv-x="456" 
d="M404 219q0 -3 -3 -8.5t-8.5 -11t-12 -9.5t-13.5 -4q-10 0 -30.5 3t-34.5 3q-7 0 -33.5 -1.5t-56.5 -3t-56.5 -3t-33.5 -1.5q-9 0 -18.5 2t-17.5 5t-13 7t-5 7q0 11 14.5 16t31.5 7q30 2 69.5 3.5t76.5 3t65 2.5t35 1q19 0 31.5 -6.5t12.5 -11.5z" />
    <glyph glyph-name="endash" unicode="&#x2013;" horiz-adv-x="456" 
d="M404 219q0 -3 -3 -8.5t-8.5 -11t-12 -9.5t-13.5 -4q-10 0 -30.5 3t-34.5 3q-7 0 -33.5 -1.5t-56.5 -3t-56.5 -3t-33.5 -1.5q-9 0 -18.5 2t-17.5 5t-13 7t-5 7q0 11 14.5 16t31.5 7q30 2 69.5 3.5t76.5 3t65 2.5t35 1q19 0 31.5 -6.5t12.5 -11.5z" />
    <glyph glyph-name="emdash" horiz-adv-x="560" 
d="M490 225q-5 -9 -10.5 -18.5t-10.5 -18.5q-9 0 -22.5 2.5t-26.5 2.5q-4 0 -26 -2t-53 -5.5t-66.5 -7t-66.5 -7t-53 -5.5t-26 -2h-41q-10 7 -19 15.5t-9 13.5q0 10 14.5 12.5t24.5 2.5q13 0 19.5 -1.5t17.5 -1.5q4 0 26.5 2t54 5.5t68 7.5t68.5 7.5t54.5 5.5t26.5 2
q12 0 26.5 -2.5t29.5 -7.5z" />
    <glyph glyph-name="emdash" unicode="&#x2014;" horiz-adv-x="560" 
d="M490 225q-5 -9 -10.5 -18.5t-10.5 -18.5q-9 0 -22.5 2.5t-26.5 2.5q-4 0 -26 -2t-53 -5.5t-66.5 -7t-66.5 -7t-53 -5.5t-26 -2h-41q-10 7 -19 15.5t-9 13.5q0 10 14.5 12.5t24.5 2.5q13 0 19.5 -1.5t17.5 -1.5q4 0 26.5 2t54 5.5t68 7.5t68.5 7.5t54.5 5.5t26.5 2
q12 0 26.5 -2.5t29.5 -7.5z" />
    <glyph glyph-name="maihanakatleftthai" 
d="M120 604q0 -5 -5 -13.5t-7 -12.5q-15 -11 -42.5 -23t-55 -22.5t-49 -17.5t-25.5 -7h-48q-16 0 -34 5t-33 15.5t-25 27.5t-10 41q0 6 0.5 14.5t4 17t11 14.5t20.5 6q21 0 32.5 -11.5t18.5 -25t13.5 -25t18.5 -11.5q8 0 16 3t17 3q8 0 24.5 5.5t28.5 8.5q15 3 35 2.5
t37 9.5q8 4 14.5 13.5t15.5 9.5t16 -9t11 -18z" />
    <glyph glyph-name="maihanakatleftthai" unicode="&#xf710;" 
d="M120 604q0 -5 -5 -13.5t-7 -12.5q-15 -11 -42.5 -23t-55 -22.5t-49 -17.5t-25.5 -7h-48q-16 0 -34 5t-33 15.5t-25 27.5t-10 41q0 6 0.5 14.5t4 17t11 14.5t20.5 6q21 0 32.5 -11.5t18.5 -25t13.5 -25t18.5 -11.5q8 0 16 3t17 3q8 0 24.5 5.5t28.5 8.5q15 3 35 2.5
t37 9.5q8 4 14.5 13.5t15.5 9.5t16 -9t11 -18z" />
    <glyph glyph-name="maihanakatleftthai" unicode="&#x2dc;" 
d="M120 604q0 -5 -5 -13.5t-7 -12.5q-15 -11 -42.5 -23t-55 -22.5t-49 -17.5t-25.5 -7h-48q-16 0 -34 5t-33 15.5t-25 27.5t-10 41q0 6 0.5 14.5t4 17t11 14.5t20.5 6q21 0 32.5 -11.5t18.5 -25t13.5 -25t18.5 -11.5q8 0 16 3t17 3q8 0 24.5 5.5t28.5 8.5q15 3 35 2.5
t37 9.5q8 4 14.5 13.5t15.5 9.5t16 -9t11 -18z" />
    <glyph glyph-name="nikhahitleftthai" 
d="M-56 577q0 -10 -8 -27t-20.5 -33.5t-27.5 -28.5t-29 -12q-9 0 -21.5 6.5t-24 17t-19.5 23t-8 24.5q0 20 16.5 39t45.5 45q6 5 15.5 7t20.5 2q25 0 42.5 -18t17.5 -45zM-119 590q-13 -8 -24 -21t-11 -22q0 -11 1.5 -11.5t6.5 -5.5q17 13 29.5 30t16.5 30h-19z" />
    <glyph glyph-name="nikhahitleftthai" unicode="&#xf711;" 
d="M-56 577q0 -10 -8 -27t-20.5 -33.5t-27.5 -28.5t-29 -12q-9 0 -21.5 6.5t-24 17t-19.5 23t-8 24.5q0 20 16.5 39t45.5 45q6 5 15.5 7t20.5 2q25 0 42.5 -18t17.5 -45zM-119 590q-13 -8 -24 -21t-11 -22q0 -11 1.5 -11.5t6.5 -5.5q17 13 29.5 30t16.5 30h-19z" />
    <glyph glyph-name="nikhahitleftthai" unicode="&#x2122;" 
d="M-56 577q0 -10 -8 -27t-20.5 -33.5t-27.5 -28.5t-29 -12q-9 0 -21.5 6.5t-24 17t-19.5 23t-8 24.5q0 20 16.5 39t45.5 45q6 5 15.5 7t20.5 2q25 0 42.5 -18t17.5 -45zM-119 590q-13 -8 -24 -21t-11 -22q0 -11 1.5 -11.5t6.5 -5.5q17 13 29.5 30t16.5 30h-19z" />
    <glyph glyph-name="maitaikhuleftthai" 
d="M93 695q0 -3 -0.5 -6.5t-4.5 -5.5q-12 -3 -27.5 -5.5t-26.5 -6.5q-11 -3 -22 -10.5t-25 -10.5q-11 -3 -26.5 -9t-29.5 -13t-24.5 -13.5t-10.5 -10.5q0 -5 9.5 -10.5t14.5 -12.5q6 -9 8 -24t2 -22q0 -23 -11.5 -48.5t-22.5 -50.5h-20q-18 13 -21.5 30.5t-5.5 29.5q1 0 2 1
q0 2 -5 2q-8 0 -17 -8.5t-17 -8.5q-11 0 -18.5 5.5t-12 12t-6 12.5t-1.5 8q0 22 20 54t49 58q6 5 21 7.5t24 9.5q46 34 89 43.5t83 9.5q8 0 17.5 -2.5t15.5 -4.5zM-108 544q-3 4 -9.5 7.5t-12 7.5t-8 8.5t3.5 10.5q-10 -5 -20 -11t-13 -11q13 -2 28.5 -8.5t25.5 -11.5
q0 1 2 5q1 2 3 3z" />
    <glyph glyph-name="maitaikhuleftthai" unicode="&#xf712;" 
d="M93 695q0 -3 -0.5 -6.5t-4.5 -5.5q-12 -3 -27.5 -5.5t-26.5 -6.5q-11 -3 -22 -10.5t-25 -10.5q-11 -3 -26.5 -9t-29.5 -13t-24.5 -13.5t-10.5 -10.5q0 -5 9.5 -10.5t14.5 -12.5q6 -9 8 -24t2 -22q0 -23 -11.5 -48.5t-22.5 -50.5h-20q-18 13 -21.5 30.5t-5.5 29.5q1 0 2 1
q0 2 -5 2q-8 0 -17 -8.5t-17 -8.5q-11 0 -18.5 5.5t-12 12t-6 12.5t-1.5 8q0 22 20 54t49 58q6 5 21 7.5t24 9.5q46 34 89 43.5t83 9.5q8 0 17.5 -2.5t15.5 -4.5zM-108 544q-3 4 -9.5 7.5t-12 7.5t-8 8.5t3.5 10.5q-10 -5 -20 -11t-13 -11q13 -2 28.5 -8.5t25.5 -11.5
q0 1 2 5q1 2 3 3z" />
    <glyph glyph-name="maitaikhuleftthai" unicode="&#x161;" 
d="M93 695q0 -3 -0.5 -6.5t-4.5 -5.5q-12 -3 -27.5 -5.5t-26.5 -6.5q-11 -3 -22 -10.5t-25 -10.5q-11 -3 -26.5 -9t-29.5 -13t-24.5 -13.5t-10.5 -10.5q0 -5 9.5 -10.5t14.5 -12.5q6 -9 8 -24t2 -22q0 -23 -11.5 -48.5t-22.5 -50.5h-20q-18 13 -21.5 30.5t-5.5 29.5q1 0 2 1
q0 2 -5 2q-8 0 -17 -8.5t-17 -8.5q-11 0 -18.5 5.5t-12 12t-6 12.5t-1.5 8q0 22 20 54t49 58q6 5 21 7.5t24 9.5q46 34 89 43.5t83 9.5q8 0 17.5 -2.5t15.5 -4.5zM-108 544q-3 4 -9.5 7.5t-12 7.5t-8 8.5t3.5 10.5q-10 -5 -20 -11t-13 -11q13 -2 28.5 -8.5t25.5 -11.5
q0 1 2 5q1 2 3 3z" />
    <glyph glyph-name="maiekupperleftthai" horiz-adv-x="10" 
d="M57 797q0 -2 -7 -11.5t-16 -22.5t-18 -27.5t-13 -24.5q-2 -7 -1 -16.5t6 -17.5q0 -1 1 -2t1.5 -2.5t2.5 -2.5q-3 -2 -5.5 -5.5t-8.5 -3.5t-12 4.5t-10.5 10t-7.5 10.5t-3 6q0 2 2 10.5t5 19t7 21.5t7 18q0 1 5 9.5t12 18.5t15.5 18.5t15.5 8.5q14 0 18 -8.5t4 -10.5z" />
    <glyph glyph-name="maiekupperleftthai" unicode="&#xf713;" horiz-adv-x="10" 
d="M57 797q0 -2 -7 -11.5t-16 -22.5t-18 -27.5t-13 -24.5q-2 -7 -1 -16.5t6 -17.5q0 -1 1 -2t1.5 -2.5t2.5 -2.5q-3 -2 -5.5 -5.5t-8.5 -3.5t-12 4.5t-10.5 10t-7.5 10.5t-3 6q0 2 2 10.5t5 19t7 21.5t7 18q0 1 5 9.5t12 18.5t15.5 18.5t15.5 8.5q14 0 18 -8.5t4 -10.5z" />
    <glyph glyph-name="maiekupperleftthai" unicode="&#x203a;" horiz-adv-x="10" 
d="M57 797q0 -2 -7 -11.5t-16 -22.5t-18 -27.5t-13 -24.5q-2 -7 -1 -16.5t6 -17.5q0 -1 1 -2t1.5 -2.5t2.5 -2.5q-3 -2 -5.5 -5.5t-8.5 -3.5t-12 4.5t-10.5 10t-7.5 10.5t-3 6q0 2 2 10.5t5 19t7 21.5t7 18q0 1 5 9.5t12 18.5t15.5 18.5t15.5 8.5q14 0 18 -8.5t4 -10.5z" />
    <glyph glyph-name="maithoupperleftthai" 
d="M29 823q0 -9 -14 -17t-31 -18q-18 -9 -44.5 -29t-55.5 -39.5t-56 -34.5t-46 -15q-9 0 -16 5t-12 12q-6 7 -10 17q0 4 9 14t19.5 22t19.5 22t9 14v31q0 6 -13.5 4t-22.5 -1q-10 5 -22 14t-12 16t8.5 14t19.5 11.5t22 7.5t17 3q10 0 21.5 -3.5t21.5 -9.5t17 -14.5t8 -17.5
q1 -7 -0.5 -19.5t-3.5 -24.5q-1 -1 0 -2q2 -2 6 -4q14 7 34.5 18t40 21t35.5 17t22 7q12 0 14 -2t7 -2q5 -3 6.5 -6t1.5 -11z" />
    <glyph glyph-name="maithoupperleftthai" unicode="&#xf714;" 
d="M29 823q0 -9 -14 -17t-31 -18q-18 -9 -44.5 -29t-55.5 -39.5t-56 -34.5t-46 -15q-9 0 -16 5t-12 12q-6 7 -10 17q0 4 9 14t19.5 22t19.5 22t9 14v31q0 6 -13.5 4t-22.5 -1q-10 5 -22 14t-12 16t8.5 14t19.5 11.5t22 7.5t17 3q10 0 21.5 -3.5t21.5 -9.5t17 -14.5t8 -17.5
q1 -7 -0.5 -19.5t-3.5 -24.5q-1 -1 0 -2q2 -2 6 -4q14 7 34.5 18t40 21t35.5 17t22 7q12 0 14 -2t7 -2q5 -3 6.5 -6t1.5 -11z" />
    <glyph glyph-name="maithoupperleftthai" unicode="&#x153;" 
d="M29 823q0 -9 -14 -17t-31 -18q-18 -9 -44.5 -29t-55.5 -39.5t-56 -34.5t-46 -15q-9 0 -16 5t-12 12q-6 7 -10 17q0 4 9 14t19.5 22t19.5 22t9 14v31q0 6 -13.5 4t-22.5 -1q-10 5 -22 14t-12 16t8.5 14t19.5 11.5t22 7.5t17 3q10 0 21.5 -3.5t21.5 -9.5t17 -14.5t8 -17.5
q1 -7 -0.5 -19.5t-3.5 -24.5q-1 -1 0 -2q2 -2 6 -4q14 7 34.5 18t40 21t35.5 17t22 7q12 0 14 -2t7 -2q5 -3 6.5 -6t1.5 -11z" />
    <glyph glyph-name="maitriupperleftthai" 
d="M160 851q0 -7 -4.5 -13.5t-10.5 -12.5t-12 -11.5t-8 -8.5q-12 -18 -25 -33t-25.5 -26t-24.5 -17.5t-21 -6.5q-6 0 -11.5 9.5t-12.5 17.5q-14 -12 -17.5 -19.5t-13.5 -7.5t-15 5.5t-7.5 13t-2.5 15v10.5t-1.5 4.5l-4.5 4.5q-5 -2 -7 -7.5t-6 -8.5q5 -23 3 -38.5t-1 -36.5
q-2 0 -4 -2t-8 -2q-8 0 -13.5 5t-9 12t-5 13.5t-1.5 8.5q0 7 3.5 26t11 38.5t17.5 34.5t24 15q17 0 22 -13.5t14 -28.5q6 4 13 11t13.5 14t12 12t8.5 5q10 0 14 -6t5.5 -13.5t1.5 -14v-7.5q0 -2 -1.5 -3t4.5 -1q3 0 13.5 8t24 20t28 25.5t25.5 24.5h11q4 -4 4 -15z" />
    <glyph glyph-name="maitriupperleftthai" unicode="&#xf715;" 
d="M160 851q0 -7 -4.5 -13.5t-10.5 -12.5t-12 -11.5t-8 -8.5q-12 -18 -25 -33t-25.5 -26t-24.5 -17.5t-21 -6.5q-6 0 -11.5 9.5t-12.5 17.5q-14 -12 -17.5 -19.5t-13.5 -7.5t-15 5.5t-7.5 13t-2.5 15v10.5t-1.5 4.5l-4.5 4.5q-5 -2 -7 -7.5t-6 -8.5q5 -23 3 -38.5t-1 -36.5
q-2 0 -4 -2t-8 -2q-8 0 -13.5 5t-9 12t-5 13.5t-1.5 8.5q0 7 3.5 26t11 38.5t17.5 34.5t24 15q17 0 22 -13.5t14 -28.5q6 4 13 11t13.5 14t12 12t8.5 5q10 0 14 -6t5.5 -13.5t1.5 -14v-7.5q0 -2 -1.5 -3t4.5 -1q3 0 13.5 8t24 20t28 25.5t25.5 24.5h11q4 -4 4 -15z" />
    <glyph glyph-name="maichattawaupperleftthai" 
d="M-91 770q-14 -5 -28.5 -8.5t-25.5 -7.5q-14 -5 -21 -17.5t-12 -23.5q-3 -5 -7 -9.5t-7 -9t-4 -9.5t3 -10q-3 0 -6 -1.5t-11 -1.5q-9 0 -12.5 3t-5 6.5t-1 7l0.5 3.5q0 2 3.5 9l7.5 15l7.5 15t3.5 9q0 5 -1.5 4.5t-1.5 3.5q-7 -1 -16.5 -1t-17.5 2t-14 6t-6 10q0 7 11 11
t24.5 6t25.5 3.5t14 4.5q7 9 16 19.5t16 20.5h25q0 -8 -0.5 -17t-3.5 -19q8 -5 20 -8.5t24 -5.5v-10v0z" />
    <glyph glyph-name="maichattawaupperleftthai" unicode="&#xf716;" 
d="M-91 770q-14 -5 -28.5 -8.5t-25.5 -7.5q-14 -5 -21 -17.5t-12 -23.5q-3 -5 -7 -9.5t-7 -9t-4 -9.5t3 -10q-3 0 -6 -1.5t-11 -1.5q-9 0 -12.5 3t-5 6.5t-1 7l0.5 3.5q0 2 3.5 9l7.5 15l7.5 15t3.5 9q0 5 -1.5 4.5t-1.5 3.5q-7 -1 -16.5 -1t-17.5 2t-14 6t-6 10q0 7 11 11
t24.5 6t25.5 3.5t14 4.5q7 9 16 19.5t16 20.5h25q0 -8 -0.5 -17t-3.5 -19q8 -5 20 -8.5t24 -5.5v-10v0z" />
    <glyph glyph-name="maichattawaupperleftthai" unicode="&#x17e;" 
d="M-91 770q-14 -5 -28.5 -8.5t-25.5 -7.5q-14 -5 -21 -17.5t-12 -23.5q-3 -5 -7 -9.5t-7 -9t-4 -9.5t3 -10q-3 0 -6 -1.5t-11 -1.5q-9 0 -12.5 3t-5 6.5t-1 7l0.5 3.5q0 2 3.5 9l7.5 15l7.5 15t3.5 9q0 5 -1.5 4.5t-1.5 3.5q-7 -1 -16.5 -1t-17.5 2t-14 6t-6 10q0 7 11 11
t24.5 6t25.5 3.5t14 4.5q7 9 16 19.5t16 20.5h25q0 -8 -0.5 -17t-3.5 -19q8 -5 20 -8.5t24 -5.5v-10v0z" />
    <glyph glyph-name="thanthakhatupperleftthai" 
d="M33 789q0 -4 -12.5 -10.5t-30 -14.5t-36 -16.5t-29.5 -14.5q-26 -16 -56 -33.5t-59 -37.5q0 -2 -0.5 -2.5t2.5 -2.5q10 1 17 -3t10.5 -10.5t5 -12.5t1.5 -9q0 -4 -1.5 -10t-5 -11.5t-10.5 -9.5t-19 -4q-17 0 -27.5 6.5t-17 14.5t-9 16.5t-2.5 11.5q0 15 5.5 29t19.5 23
q29 20 69 40.5t78 37.5q7 3 19.5 8t25.5 9.5t22.5 8t10.5 3.5h24q1 0 2 -1q3 -3 3 -5zM-195 630q-3 0 -7.5 1.5t-7.5 1.5q3 -5 7.5 -8.5t7.5 -3.5v9z" />
    <glyph glyph-name="thanthakhatupperleftthai" unicode="&#xf717;" 
d="M33 789q0 -4 -12.5 -10.5t-30 -14.5t-36 -16.5t-29.5 -14.5q-26 -16 -56 -33.5t-59 -37.5q0 -2 -0.5 -2.5t2.5 -2.5q10 1 17 -3t10.5 -10.5t5 -12.5t1.5 -9q0 -4 -1.5 -10t-5 -11.5t-10.5 -9.5t-19 -4q-17 0 -27.5 6.5t-17 14.5t-9 16.5t-2.5 11.5q0 15 5.5 29t19.5 23
q29 20 69 40.5t78 37.5q7 3 19.5 8t25.5 9.5t22.5 8t10.5 3.5h24q1 0 2 -1q3 -3 3 -5zM-195 630q-3 0 -7.5 1.5t-7.5 1.5q3 -5 7.5 -8.5t7.5 -3.5v9z" />
    <glyph glyph-name="thanthakhatupperleftthai" unicode="&#x178;" 
d="M33 789q0 -4 -12.5 -10.5t-30 -14.5t-36 -16.5t-29.5 -14.5q-26 -16 -56 -33.5t-59 -37.5q0 -2 -0.5 -2.5t2.5 -2.5q10 1 17 -3t10.5 -10.5t5 -12.5t1.5 -9q0 -4 -1.5 -10t-5 -11.5t-10.5 -9.5t-19 -4q-17 0 -27.5 6.5t-17 14.5t-9 16.5t-2.5 11.5q0 15 5.5 29t19.5 23
q29 20 69 40.5t78 37.5q7 3 19.5 8t25.5 9.5t22.5 8t10.5 3.5h24q1 0 2 -1q3 -3 3 -5zM-195 630q-3 0 -7.5 1.5t-7.5 1.5q3 -5 7.5 -8.5t7.5 -3.5v9z" />
    <glyph glyph-name="uni00A0" unicode="&#xa0;" horiz-adv-x="452" 
 />
    <glyph glyph-name="uni00A0" unicode="&#xe00;" horiz-adv-x="452" 
 />
    <glyph glyph-name="kokaithai" unicode="&#xa1;" horiz-adv-x="380" 
d="M317 290q0 -26 -7 -60.5t-16 -70.5t-17 -70t-11 -60q-2 -5 -6.5 -13t-9.5 -13q-18 6 -26 10t-11 8t-2.5 8.5t0.5 11.5q0 4 5 22.5t12 45t15.5 57t15.5 57t12 45t5 22.5q0 23 -10.5 30.5t-24.5 7.5q-9 0 -25 -3.5t-32 -11.5t-29.5 -23t-19.5 -37q-6 -26 -7 -56t-4 -56
q-5 -36 -11.5 -72t-15.5 -72h-21q-8 8 -13.5 17.5t-5.5 20.5q0 4 2 14t5 22.5t5.5 26.5t3.5 26q1 24 4.5 52.5t8 58t10 58t11.5 52.5q41 15 77 31.5t68 16.5q25 0 38.5 -12.5t19.5 -30t6.5 -34.5t0.5 -26z" />
    <glyph glyph-name="kokaithai" unicode="&#xe01;" horiz-adv-x="380" 
d="M317 290q0 -26 -7 -60.5t-16 -70.5t-17 -70t-11 -60q-2 -5 -6.5 -13t-9.5 -13q-18 6 -26 10t-11 8t-2.5 8.5t0.5 11.5q0 4 5 22.5t12 45t15.5 57t15.5 57t12 45t5 22.5q0 23 -10.5 30.5t-24.5 7.5q-9 0 -25 -3.5t-32 -11.5t-29.5 -23t-19.5 -37q-6 -26 -7 -56t-4 -56
q-5 -36 -11.5 -72t-15.5 -72h-21q-8 8 -13.5 17.5t-5.5 20.5q0 4 2 14t5 22.5t5.5 26.5t3.5 26q1 24 4.5 52.5t8 58t10 58t11.5 52.5q41 15 77 31.5t68 16.5q25 0 38.5 -12.5t19.5 -30t6.5 -34.5t0.5 -26z" />
    <glyph glyph-name="khokhaithai" unicode="&#xa2;" horiz-adv-x="363" 
d="M303 359q0 -5 -3.5 -18t-8 -29.5t-9.5 -34.5t-9 -31q-14 -51 -38.5 -110t-46.5 -115q-2 -4 -11 -12t-20 -8t-18.5 6t-12.5 14.5t-7.5 16.5t-2.5 13q0 6 8 31t17 54.5t17 55t8 31.5v72q-4 0 -5.5 2.5t-13.5 2.5q-11 0 -23 -14t-25 -28q-2 -5 -2 -13t-2 -14q0 -3 -1 -6
q-2 -6 -12 -6q-6 0 -14.5 6t-15.5 14t-12 16.5t-5 13.5t4 15t10.5 21.5t15 23t16.5 18.5q4 4 13 8t19 7t19 5t15 2q13 0 21.5 -3.5t15.5 -11.5t15 -21.5t20 -32.5q9 12 17.5 28t16 30.5t13.5 25t12 10.5q9 0 14 -4t7.5 -10t3 -12t0.5 -9z" />
    <glyph glyph-name="khokhaithai" unicode="&#xe02;" horiz-adv-x="363" 
d="M303 359q0 -5 -3.5 -18t-8 -29.5t-9.5 -34.5t-9 -31q-14 -51 -38.5 -110t-46.5 -115q-2 -4 -11 -12t-20 -8t-18.5 6t-12.5 14.5t-7.5 16.5t-2.5 13q0 6 8 31t17 54.5t17 55t8 31.5v72q-4 0 -5.5 2.5t-13.5 2.5q-11 0 -23 -14t-25 -28q-2 -5 -2 -13t-2 -14q0 -3 -1 -6
q-2 -6 -12 -6q-6 0 -14.5 6t-15.5 14t-12 16.5t-5 13.5t4 15t10.5 21.5t15 23t16.5 18.5q4 4 13 8t19 7t19 5t15 2q13 0 21.5 -3.5t15.5 -11.5t15 -21.5t20 -32.5q9 12 17.5 28t16 30.5t13.5 25t12 10.5q9 0 14 -4t7.5 -10t3 -12t0.5 -9z" />
    <glyph glyph-name="khokhuatthai" unicode="&#xa3;" horiz-adv-x="371" 
d="M351 365q0 -4 -6 -23t-15.5 -47.5t-21.5 -62.5t-24 -68.5t-24 -65t-20 -50.5q-6 -15 -11 -23.5t-10 -13t-12.5 -6t-18.5 -1.5q-15 0 -23.5 6t-13 15t-5.5 19t-1 18q0 6 3 20t7 32.5t7 39t3 38.5q-12 -8 -16 -16t-6.5 -14t-7 -9.5t-17.5 -3.5q-11 0 -13 0.5t-7 1.5
q-8 11 -12.5 26t-18.5 25q-3 3 -12 7t-18.5 9.5t-17 11.5t-7.5 13q0 6 8.5 28t20 46.5t23.5 43.5t20 19q18 0 28 -8t16 -18.5t10 -22t10 -18.5q7 7 15 17t16.5 20t16 17t13.5 7q10 0 15.5 -4.5t8 -10t3 -11t0.5 -7.5v-96q5 -5 7.5 -8.5t11.5 -3.5q0 14 6 36.5t17.5 46.5
t27.5 46t36 36q9 -8 9 -33zM235 223l-7 -16l8 -4l8 17z" />
    <glyph glyph-name="khokhuatthai" unicode="&#xe03;" horiz-adv-x="371" 
d="M351 365q0 -4 -6 -23t-15.5 -47.5t-21.5 -62.5t-24 -68.5t-24 -65t-20 -50.5q-6 -15 -11 -23.5t-10 -13t-12.5 -6t-18.5 -1.5q-15 0 -23.5 6t-13 15t-5.5 19t-1 18q0 6 3 20t7 32.5t7 39t3 38.5q-12 -8 -16 -16t-6.5 -14t-7 -9.5t-17.5 -3.5q-11 0 -13 0.5t-7 1.5
q-8 11 -12.5 26t-18.5 25q-3 3 -12 7t-18.5 9.5t-17 11.5t-7.5 13q0 6 8.5 28t20 46.5t23.5 43.5t20 19q18 0 28 -8t16 -18.5t10 -22t10 -18.5q7 7 15 17t16.5 20t16 17t13.5 7q10 0 15.5 -4.5t8 -10t3 -11t0.5 -7.5v-96q5 -5 7.5 -8.5t11.5 -3.5q0 14 6 36.5t17.5 46.5
t27.5 46t36 36q9 -8 9 -33zM235 223l-7 -16l8 -4l8 17z" />
    <glyph glyph-name="khokhwaithai" unicode="&#xa4;" horiz-adv-x="426" 
d="M422 258q0 -3 -3 -23t-8 -48t-12.5 -60t-16.5 -59t-19 -45t-20 -18t-22.5 10.5t-12.5 20.5q0 5 8 25t18 43.5t18 43.5t8 25v27q1 1 1 2q-2 2 -10 2t-24 -12t-36 -30.5t-41.5 -40t-39.5 -40t-31 -30.5t-16 -12q-10 0 -22.5 12.5t-25.5 16.5q14 60 27.5 123.5t21.5 123.5
q1 12 7.5 23t14.5 19t17 13.5t16 7.5q17 5 39 9.5t33 4.5q39 0 64.5 -9.5t40.5 -26.5t20.5 -42t5.5 -56zM371 301q0 11 -11.5 19.5t-22.5 8.5q-10 0 -27.5 -2.5t-35.5 -7t-33.5 -11t-21.5 -14.5q-5 -6 -9 -17.5t-7.5 -23t-5.5 -21.5t-2 -14v-37q28 21 64 43t87 44
q11 5 18 14t7 19z" />
    <glyph glyph-name="khokhwaithai" unicode="&#xe04;" horiz-adv-x="426" 
d="M422 258q0 -3 -3 -23t-8 -48t-12.5 -60t-16.5 -59t-19 -45t-20 -18t-22.5 10.5t-12.5 20.5q0 5 8 25t18 43.5t18 43.5t8 25v27q1 1 1 2q-2 2 -10 2t-24 -12t-36 -30.5t-41.5 -40t-39.5 -40t-31 -30.5t-16 -12q-10 0 -22.5 12.5t-25.5 16.5q14 60 27.5 123.5t21.5 123.5
q1 12 7.5 23t14.5 19t17 13.5t16 7.5q17 5 39 9.5t33 4.5q39 0 64.5 -9.5t40.5 -26.5t20.5 -42t5.5 -56zM371 301q0 11 -11.5 19.5t-22.5 8.5q-10 0 -27.5 -2.5t-35.5 -7t-33.5 -11t-21.5 -14.5q-5 -6 -9 -17.5t-7.5 -23t-5.5 -21.5t-2 -14v-37q28 21 64 43t87 44
q11 5 18 14t7 19z" />
    <glyph glyph-name="khokhonthai" unicode="&#xa5;" horiz-adv-x="380" 
d="M342 301q0 -5 -5 -36t-12.5 -73.5t-15 -88.5t-12.5 -81h-16q-3 11 -11 25.5t-8 28.5q0 5 2.5 21.5t6 38t7.5 46t7 45.5q-11 -8 -19 -25.5t-15 -35.5t-14 -31.5t-15 -13.5t-13 8.5t-7 9.5q-5 9 -4.5 18.5t0 19t-4.5 20.5t-18 24q-11 -13 -17.5 -25t-11 -24.5t-9 -24.5
t-10.5 -25q-2 -5 -9 -24.5t-15.5 -41.5t-17 -39.5t-14.5 -17.5q-10 0 -17.5 15.5t-13.5 35.5q-7 22 -13 51q0 3 2 16.5t5 31t5.5 36.5t3.5 34q1 4 3.5 8t3.5 8q2 13 7.5 28t10.5 23q30 50 58 78.5t56 28.5q16 0 25.5 -9.5t16 -23t11.5 -29t12 -27.5q14 15 22 29.5t14 25
t12 17t16 6.5q12 0 18 -13t9 -28q4 -18 4 -40zM117 237q-9 -7 -15.5 -19.5t-11 -26.5t-7.5 -27t-4 -21q8 21 20.5 47t17.5 47z" />
    <glyph glyph-name="khokhonthai" unicode="&#xe05;" horiz-adv-x="380" 
d="M342 301q0 -5 -5 -36t-12.5 -73.5t-15 -88.5t-12.5 -81h-16q-3 11 -11 25.5t-8 28.5q0 5 2.5 21.5t6 38t7.5 46t7 45.5q-11 -8 -19 -25.5t-15 -35.5t-14 -31.5t-15 -13.5t-13 8.5t-7 9.5q-5 9 -4.5 18.5t0 19t-4.5 20.5t-18 24q-11 -13 -17.5 -25t-11 -24.5t-9 -24.5
t-10.5 -25q-2 -5 -9 -24.5t-15.5 -41.5t-17 -39.5t-14.5 -17.5q-10 0 -17.5 15.5t-13.5 35.5q-7 22 -13 51q0 3 2 16.5t5 31t5.5 36.5t3.5 34q1 4 3.5 8t3.5 8q2 13 7.5 28t10.5 23q30 50 58 78.5t56 28.5q16 0 25.5 -9.5t16 -23t11.5 -29t12 -27.5q14 15 22 29.5t14 25
t12 17t16 6.5q12 0 18 -13t9 -28q4 -18 4 -40zM117 237q-9 -7 -15.5 -19.5t-11 -26.5t-7.5 -27t-4 -21q8 21 20.5 47t17.5 47z" />
    <glyph glyph-name="khorakhangthai" unicode="&#xa6;" horiz-adv-x="451" 
d="M438 335q0 -4 -4 -16t-10 -27t-12 -31.5t-10 -29.5q-1 -4 -5 -21.5t-9 -41.5t-12 -50.5t-15 -49t-16 -37t-16 -14.5q-10 0 -18 9.5t-15 22t-14.5 26t-16.5 21.5q-3 -2 -11 -17t-18.5 -32t-22.5 -31.5t-22 -14.5q-3 0 -11 2.5t-16.5 7t-15.5 11t-7 13.5q0 4 4 17t10.5 29
t14 32.5t15.5 27.5q3 4 10 8t15 8.5t15 10t10 12.5q6 14 9 33t3 29q0 9 0.5 12.5t-4.5 11.5q-10 -5 -18 -17.5t-14.5 -27t-12 -28.5t-11.5 -22q-7 -1 -17.5 6.5t-16.5 15.5q-2 3 -0.5 18.5t3 32.5t0.5 30.5t-10 13.5t-17 -9t-14 -20.5t-10 -22.5t-4 -14q13 -12 12.5 -22.5
t-7.5 -18t-16 -12t-13 -4.5q-3 0 -8.5 6.5t-11 15.5t-9 17.5t-3.5 11.5q0 6 6 21.5t15 35.5t20.5 41.5t23.5 39t22.5 29t18.5 11.5q11 0 19.5 -8t15 -18.5t10.5 -20t6 -12.5q6 4 12.5 10.5t13.5 12.5t13 10.5t11 4.5q9 0 16.5 -6.5t13.5 -16.5q14 -25 14 -49q0 -18 -3 -36
t-5.5 -36t-4 -35.5t1.5 -35.5q2 -8 11.5 -17.5l17.5 -17.5q8 3 13 12t6 17q3 23 9.5 54.5t14.5 57.5q7 23 17 47.5t19 47.5q3 2 11 5.5t16 8.5q4 -5 11 -16t7 -22z" />
    <glyph glyph-name="khorakhangthai" unicode="&#xe06;" horiz-adv-x="451" 
d="M438 335q0 -4 -4 -16t-10 -27t-12 -31.5t-10 -29.5q-1 -4 -5 -21.5t-9 -41.5t-12 -50.5t-15 -49t-16 -37t-16 -14.5q-10 0 -18 9.5t-15 22t-14.5 26t-16.5 21.5q-3 -2 -11 -17t-18.5 -32t-22.5 -31.5t-22 -14.5q-3 0 -11 2.5t-16.5 7t-15.5 11t-7 13.5q0 4 4 17t10.5 29
t14 32.5t15.5 27.5q3 4 10 8t15 8.5t15 10t10 12.5q6 14 9 33t3 29q0 9 0.5 12.5t-4.5 11.5q-10 -5 -18 -17.5t-14.5 -27t-12 -28.5t-11.5 -22q-7 -1 -17.5 6.5t-16.5 15.5q-2 3 -0.5 18.5t3 32.5t0.5 30.5t-10 13.5t-17 -9t-14 -20.5t-10 -22.5t-4 -14q13 -12 12.5 -22.5
t-7.5 -18t-16 -12t-13 -4.5q-3 0 -8.5 6.5t-11 15.5t-9 17.5t-3.5 11.5q0 6 6 21.5t15 35.5t20.5 41.5t23.5 39t22.5 29t18.5 11.5q11 0 19.5 -8t15 -18.5t10.5 -20t6 -12.5q6 4 12.5 10.5t13.5 12.5t13 10.5t11 4.5q9 0 16.5 -6.5t13.5 -16.5q14 -25 14 -49q0 -18 -3 -36
t-5.5 -36t-4 -35.5t1.5 -35.5q2 -8 11.5 -17.5l17.5 -17.5q8 3 13 12t6 17q3 23 9.5 54.5t14.5 57.5q7 23 17 47.5t19 47.5q3 2 11 5.5t16 8.5q4 -5 11 -16t7 -22z" />
    <glyph glyph-name="ngonguthai" unicode="&#xa7;" horiz-adv-x="323" 
d="M244 263q0 -31 -8 -65t-19 -64.5t-24 -55t-23 -36.5q-12 -15 -24 -27t-20 -12q-16 0 -30.5 12.5t-27 32t-22.5 42.5t-17 44.5t-11 37.5t-4 22v17q5 4 13 8t12 4q15 -18 20.5 -36.5t11.5 -38t17 -41t36 -45.5q17 15 31.5 39t25 53t16 60t5.5 60q0 9 -5.5 18t-8.5 17
q-8 -8 -14.5 -19.5t-11.5 -23.5q-18 10 -27 18t-9 19q0 4 3.5 15t8.5 23.5t11.5 24.5t11.5 20q3 2 10 5t17 3q11 0 24 -10.5t18 -23.5q4 -12 6.5 -27t4 -29t2.5 -25t1 -16z" />
    <glyph glyph-name="ngonguthai" unicode="&#xe07;" horiz-adv-x="323" 
d="M244 263q0 -31 -8 -65t-19 -64.5t-24 -55t-23 -36.5q-12 -15 -24 -27t-20 -12q-16 0 -30.5 12.5t-27 32t-22.5 42.5t-17 44.5t-11 37.5t-4 22v17q5 4 13 8t12 4q15 -18 20.5 -36.5t11.5 -38t17 -41t36 -45.5q17 15 31.5 39t25 53t16 60t5.5 60q0 9 -5.5 18t-8.5 17
q-8 -8 -14.5 -19.5t-11.5 -23.5q-18 10 -27 18t-9 19q0 4 3.5 15t8.5 23.5t11.5 24.5t11.5 20q3 2 10 5t17 3q11 0 24 -10.5t18 -23.5q4 -12 6.5 -27t4 -29t2.5 -25t1 -16z" />
    <glyph glyph-name="chochanthai" unicode="&#xa8;" horiz-adv-x="370" 
d="M290 254q0 -3 -4.5 -17.5t-10.5 -33.5t-12 -38.5t-10 -34.5q-3 -11 -5.5 -27.5t-6.5 -34t-9 -34.5t-13 -29q-14 8 -23.5 22.5t-9.5 19.5q0 4 7 24.5t15.5 44.5t15.5 44t7 25v13q1 1 1 2q0 2 -9 2q-8 0 -20.5 -10t-23.5 -10q-19 0 -25.5 11t-6.5 24q0 18 16 28.5t35.5 18
t35.5 14.5t16 20q0 2 -1.5 7.5t-4 11t-6.5 9.5t-10 4q-5 0 -24.5 -10t-42 -22t-42.5 -22t-24 -10q-7 0 -17 10t-10 20q0 19 20 37t46.5 31.5t52 21.5t36.5 8q18 0 37 -16t21 -45q1 -9 2.5 -21t3 -23.5t2.5 -21t1 -13.5z" />
    <glyph glyph-name="chochanthai" unicode="&#xe08;" horiz-adv-x="370" 
d="M290 254q0 -3 -4.5 -17.5t-10.5 -33.5t-12 -38.5t-10 -34.5q-3 -11 -5.5 -27.5t-6.5 -34t-9 -34.5t-13 -29q-14 8 -23.5 22.5t-9.5 19.5q0 4 7 24.5t15.5 44.5t15.5 44t7 25v13q1 1 1 2q0 2 -9 2q-8 0 -20.5 -10t-23.5 -10q-19 0 -25.5 11t-6.5 24q0 18 16 28.5t35.5 18
t35.5 14.5t16 20q0 2 -1.5 7.5t-4 11t-6.5 9.5t-10 4q-5 0 -24.5 -10t-42 -22t-42.5 -22t-24 -10q-7 0 -17 10t-10 20q0 19 20 37t46.5 31.5t52 21.5t36.5 8q18 0 37 -16t21 -45q1 -9 2.5 -21t3 -23.5t2.5 -21t1 -13.5z" />
    <glyph glyph-name="chochingthai" unicode="&#xa9;" horiz-adv-x="436" 
d="M369 151q0 -5 -3 -20.5t-7 -36.5t-9.5 -44t-9.5 -42q-4 0 -7 -3t-14 -3q-10 0 -17 11t-13 19q2 21 5.5 45t7.5 45l-8 9q-15 -15 -31.5 -36t-31.5 -40.5t-27 -33t-17 -13.5q-4 0 -10 5t-12 12t-10 15t-4 13t6 29.5t13.5 53t13.5 53t6 29.5v23.5t-14 23.5q-13 -4 -24.5 -13
t-22 -20t-20.5 -22.5t-21 -20.5q-5 -2 -9 -5t-15 -3q-14 0 -24 10.5t-16.5 24t-9.5 26t-3 15.5q0 7 10 22t24 31t28 29.5t23 18.5q30 17 61.5 26.5t66.5 9.5q4 0 12.5 -0.5t17.5 -2t17 -4.5t13 -7q17 -14 32.5 -46t27 -67t18.5 -67.5t7 -48.5zM302 251q0 9 -5.5 21.5
t-13.5 24.5t-19 20.5t-21 8.5h-19q0 -17 6 -34t6 -29q0 -21 3 -44t3 -37q9 8 19.5 18t19.5 20t15 18t6 13z" />
    <glyph glyph-name="chochingthai" unicode="&#xe09;" horiz-adv-x="436" 
d="M369 151q0 -5 -3 -20.5t-7 -36.5t-9.5 -44t-9.5 -42q-4 0 -7 -3t-14 -3q-10 0 -17 11t-13 19q2 21 5.5 45t7.5 45l-8 9q-15 -15 -31.5 -36t-31.5 -40.5t-27 -33t-17 -13.5q-4 0 -10 5t-12 12t-10 15t-4 13t6 29.5t13.5 53t13.5 53t6 29.5v23.5t-14 23.5q-13 -4 -24.5 -13
t-22 -20t-20.5 -22.5t-21 -20.5q-5 -2 -9 -5t-15 -3q-14 0 -24 10.5t-16.5 24t-9.5 26t-3 15.5q0 7 10 22t24 31t28 29.5t23 18.5q30 17 61.5 26.5t66.5 9.5q4 0 12.5 -0.5t17.5 -2t17 -4.5t13 -7q17 -14 32.5 -46t27 -67t18.5 -67.5t7 -48.5zM302 251q0 9 -5.5 21.5
t-13.5 24.5t-19 20.5t-21 8.5h-19q0 -17 6 -34t6 -29q0 -21 3 -44t3 -37q9 8 19.5 18t19.5 20t15 18t6 13z" />
    <glyph glyph-name="chochangthai" unicode="&#xaa;" horiz-adv-x="360" 
d="M449 431q0 -11 -8.5 -18.5t-19.5 -12t-21.5 -7t-13.5 -4.5q-33 -22 -61.5 -44t-49 -46t-31 -51.5t-7.5 -58.5q0 -2 -2.5 -16.5t-7 -35.5t-11 -45t-15.5 -44t-20 -33.5t-24 -13.5q-12 0 -20 9t-12.5 21t-6 23t-1.5 16q0 4 3 28.5t6.5 52.5l6.5 52t3 28q0 16 0.5 29.5
t-12.5 25.5q-18 -14 -29 -31t-22 -35q-7 -1 -19.5 9t-12.5 21q0 7 5.5 21.5t14 30t17.5 29t16 19.5q5 5 13 6t17 1q16 0 26.5 -12t17 -28t9 -32t2.5 -25q0 -5 -3 -25t-6.5 -44t-6.5 -44.5t-3 -24.5q0 -9 1.5 -11t5.5 -5q16 19 23 42t9.5 48t2.5 51t3 51q2 18 16 37t34 37.5
t44 34.5t46 28.5t40.5 19.5t27.5 7q17 0 26.5 -11t9.5 -20z" />
    <glyph glyph-name="chochangthai" unicode="&#xe0a;" horiz-adv-x="360" 
d="M449 431q0 -11 -8.5 -18.5t-19.5 -12t-21.5 -7t-13.5 -4.5q-33 -22 -61.5 -44t-49 -46t-31 -51.5t-7.5 -58.5q0 -2 -2.5 -16.5t-7 -35.5t-11 -45t-15.5 -44t-20 -33.5t-24 -13.5q-12 0 -20 9t-12.5 21t-6 23t-1.5 16q0 4 3 28.5t6.5 52.5l6.5 52t3 28q0 16 0.5 29.5
t-12.5 25.5q-18 -14 -29 -31t-22 -35q-7 -1 -19.5 9t-12.5 21q0 7 5.5 21.5t14 30t17.5 29t16 19.5q5 5 13 6t17 1q16 0 26.5 -12t17 -28t9 -32t2.5 -25q0 -5 -3 -25t-6.5 -44t-6.5 -44.5t-3 -24.5q0 -9 1.5 -11t5.5 -5q16 19 23 42t9.5 48t2.5 51t3 51q2 18 16 37t34 37.5
t44 34.5t46 28.5t40.5 19.5t27.5 7q17 0 26.5 -11t9.5 -20z" />
    <glyph glyph-name="sosothai" unicode="&#xab;" horiz-adv-x="353" 
d="M457 438q0 -17 -16 -23.5t-40 -20.5q-30 -17 -58.5 -46t-52.5 -62.5t-42.5 -68t-28.5 -61.5q-4 -10 -11.5 -35t-17.5 -51.5t-22 -46.5t-25 -20q-9 0 -17 9t-13.5 20t-9 20.5t-3.5 10.5q0 5 4.5 25t10.5 42.5t10.5 42t4.5 24.5v14l-7 8q-9 -10 -22.5 -20t-23.5 -10
q-9 0 -18.5 7.5t-18.5 7.5q-4 0 -10.5 -6.5t-13 -14t-13.5 -13.5t-11 -6q-10 0 -19 10.5t-9 19.5q0 4 7 17.5t17.5 30.5t22 36t20.5 36q3 4 4.5 5t11.5 1t16 -5.5t9 -14t3 -18t-1 -18.5q4 0 4 -2t9 -2q4 0 9.5 6.5t11.5 16t12 20.5t12 20q3 2 4.5 2h11.5q14 0 20 -4.5
t9 -27.5q3 -27 -2.5 -55.5t-1.5 -58.5q9 19 21 40t24 42.5t22.5 41.5t16.5 36q9 20 26.5 39t38.5 34.5t41.5 26.5t35.5 15q7 2 14 4.5t17 2.5q14 0 20.5 -8t6.5 -15z" />
    <glyph glyph-name="sosothai" unicode="&#xe0b;" horiz-adv-x="353" 
d="M457 438q0 -17 -16 -23.5t-40 -20.5q-30 -17 -58.5 -46t-52.5 -62.5t-42.5 -68t-28.5 -61.5q-4 -10 -11.5 -35t-17.5 -51.5t-22 -46.5t-25 -20q-9 0 -17 9t-13.5 20t-9 20.5t-3.5 10.5q0 5 4.5 25t10.5 42.5t10.5 42t4.5 24.5v14l-7 8q-9 -10 -22.5 -20t-23.5 -10
q-9 0 -18.5 7.5t-18.5 7.5q-4 0 -10.5 -6.5t-13 -14t-13.5 -13.5t-11 -6q-10 0 -19 10.5t-9 19.5q0 4 7 17.5t17.5 30.5t22 36t20.5 36q3 4 4.5 5t11.5 1t16 -5.5t9 -14t3 -18t-1 -18.5q4 0 4 -2t9 -2q4 0 9.5 6.5t11.5 16t12 20.5t12 20q3 2 4.5 2h11.5q14 0 20 -4.5
t9 -27.5q3 -27 -2.5 -55.5t-1.5 -58.5q9 19 21 40t24 42.5t22.5 41.5t16.5 36q9 20 26.5 39t38.5 34.5t41.5 26.5t35.5 15q7 2 14 4.5t17 2.5q14 0 20.5 -8t6.5 -15z" />
    <glyph glyph-name="chochoethai" unicode="&#xac;" horiz-adv-x="522" 
d="M510 324q0 -5 -5 -18.5t-11 -31.5t-12 -37t-9 -34q-2 -12 -6.5 -34t-4.5 -43q0 -3 -3.5 -18t-9 -31.5t-13 -30t-15.5 -13.5q-7 0 -19 13t-26 30t-28 32t-25 20q-9 -6 -20 -26t-23 -41.5t-24.5 -38.5t-24.5 -17t-19 7.5t-10 16.5t-4 17t-1 10q0 20 9 39t21.5 38t26.5 36.5
t23 34.5q-2 5 1 8t3 14q0 31 -20.5 56t-54.5 25q-9 0 -29.5 -3t-37.5 -4q-8 -5 -12.5 -13t-6.5 -16q-8 -45 -21 -108t-22 -123q-1 -2 -3 -4l-4 -4l-4 -4q-9 4 -18 13l-17 17q3 8 0.5 14t-2.5 17q0 4 1.5 14.5t3.5 23.5t4.5 26t5.5 24q3 12 9 25t14 25q2 5 1.5 11t-2.5 11
q7 14 10 32.5t5 38t5.5 38t11.5 33.5q11 1 24.5 -5.5t27.5 -9.5q25 -5 51 -4.5t50 -4.5t36 -23.5t17.5 -41t8 -44.5t8.5 -35q12 -27 38.5 -45.5t52.5 -43.5q8 55 19.5 113t24.5 122h36q8 -7 13 -21.5t5 -23.5z" />
    <glyph glyph-name="chochoethai" unicode="&#xe0c;" horiz-adv-x="522" 
d="M510 324q0 -5 -5 -18.5t-11 -31.5t-12 -37t-9 -34q-2 -12 -6.5 -34t-4.5 -43q0 -3 -3.5 -18t-9 -31.5t-13 -30t-15.5 -13.5q-7 0 -19 13t-26 30t-28 32t-25 20q-9 -6 -20 -26t-23 -41.5t-24.5 -38.5t-24.5 -17t-19 7.5t-10 16.5t-4 17t-1 10q0 20 9 39t21.5 38t26.5 36.5
t23 34.5q-2 5 1 8t3 14q0 31 -20.5 56t-54.5 25q-9 0 -29.5 -3t-37.5 -4q-8 -5 -12.5 -13t-6.5 -16q-8 -45 -21 -108t-22 -123q-1 -2 -3 -4l-4 -4l-4 -4q-9 4 -18 13l-17 17q3 8 0.5 14t-2.5 17q0 4 1.5 14.5t3.5 23.5t4.5 26t5.5 24q3 12 9 25t14 25q2 5 1.5 11t-2.5 11
q7 14 10 32.5t5 38t5.5 38t11.5 33.5q11 1 24.5 -5.5t27.5 -9.5q25 -5 51 -4.5t50 -4.5t36 -23.5t17.5 -41t8 -44.5t8.5 -35q12 -27 38.5 -45.5t52.5 -43.5q8 55 19.5 113t24.5 122h36q8 -7 13 -21.5t5 -23.5z" />
    <glyph glyph-name="yoyingthai" unicode="&#xad;" horiz-adv-x="554" 
d="M528 341q0 -11 -2.5 -27t-6.5 -25q-31 -62 -68 -124.5t-78 -128.5q-2 -2 -1 -3q0 -2 11 -2q6 0 14.5 4t18.5 9.5t20 9.5t18 4q6 0 12 -7t11 -15l11 -22q0 -4 -13 -18t-33 -33t-43.5 -40.5t-45 -39t-37.5 -29t-20 -11.5q-13 0 -20.5 6.5t-11 15t-4.5 16t-1 9.5
q0 22 9.5 37.5t21 27.5t21 21t9.5 18q0 6 -7.5 15.5t-16.5 20t-16.5 20t-7.5 15.5q0 4 4.5 19.5t11.5 36.5t14.5 45t14.5 45t11.5 36.5t4.5 19.5q0 22 -5.5 34t-14 18t-19.5 7t-22 1q-6 0 -18 -3t-27 -7t-30.5 -9.5t-27.5 -9.5q-9 -4 -14.5 -14.5t-8.5 -23t-4.5 -24
t-3.5 -17.5q7 -9 15.5 -12.5t15.5 -8t11.5 -13.5t4.5 -29q0 -5 -6.5 -20t-17 -35t-23 -42t-24.5 -40t-22 -30t-15 -12t-12 6.5t-13 15.5t-10.5 19t-4.5 17q0 5 4.5 21t10.5 37t12.5 43.5t10.5 40.5q2 8 3 20.5t2 26.5t3 28t5 26q8 26 19 55.5t26 58.5q18 -2 39.5 -1.5
t41.5 1.5t36 2t22 1q40 0 61.5 -13t33 -36t17.5 -53.5t14 -66.5q23 35 44 78.5t41 89.5h37q0 -10 4 -24t4 -29z" />
    <glyph glyph-name="yoyingthai" unicode="&#xe0d;" horiz-adv-x="554" 
d="M528 341q0 -11 -2.5 -27t-6.5 -25q-31 -62 -68 -124.5t-78 -128.5q-2 -2 -1 -3q0 -2 11 -2q6 0 14.5 4t18.5 9.5t20 9.5t18 4q6 0 12 -7t11 -15l11 -22q0 -4 -13 -18t-33 -33t-43.5 -40.5t-45 -39t-37.5 -29t-20 -11.5q-13 0 -20.5 6.5t-11 15t-4.5 16t-1 9.5
q0 22 9.5 37.5t21 27.5t21 21t9.5 18q0 6 -7.5 15.5t-16.5 20t-16.5 20t-7.5 15.5q0 4 4.5 19.5t11.5 36.5t14.5 45t14.5 45t11.5 36.5t4.5 19.5q0 22 -5.5 34t-14 18t-19.5 7t-22 1q-6 0 -18 -3t-27 -7t-30.5 -9.5t-27.5 -9.5q-9 -4 -14.5 -14.5t-8.5 -23t-4.5 -24
t-3.5 -17.5q7 -9 15.5 -12.5t15.5 -8t11.5 -13.5t4.5 -29q0 -5 -6.5 -20t-17 -35t-23 -42t-24.5 -40t-22 -30t-15 -12t-12 6.5t-13 15.5t-10.5 19t-4.5 17q0 5 4.5 21t10.5 37t12.5 43.5t10.5 40.5q2 8 3 20.5t2 26.5t3 28t5 26q8 26 19 55.5t26 58.5q18 -2 39.5 -1.5
t41.5 1.5t36 2t22 1q40 0 61.5 -13t33 -36t17.5 -53.5t14 -66.5q23 35 44 78.5t41 89.5h37q0 -10 4 -24t4 -29z" />
    <glyph glyph-name="yoyingthai" unicode="&#xde;" horiz-adv-x="554" 
d="M528 341q0 -11 -2.5 -27t-6.5 -25q-31 -62 -68 -124.5t-78 -128.5q-2 -2 -1 -3q0 -2 11 -2q6 0 14.5 4t18.5 9.5t20 9.5t18 4q6 0 12 -7t11 -15l11 -22q0 -4 -13 -18t-33 -33t-43.5 -40.5t-45 -39t-37.5 -29t-20 -11.5q-13 0 -20.5 6.5t-11 15t-4.5 16t-1 9.5
q0 22 9.5 37.5t21 27.5t21 21t9.5 18q0 6 -7.5 15.5t-16.5 20t-16.5 20t-7.5 15.5q0 4 4.5 19.5t11.5 36.5t14.5 45t14.5 45t11.5 36.5t4.5 19.5q0 22 -5.5 34t-14 18t-19.5 7t-22 1q-6 0 -18 -3t-27 -7t-30.5 -9.5t-27.5 -9.5q-9 -4 -14.5 -14.5t-8.5 -23t-4.5 -24
t-3.5 -17.5q7 -9 15.5 -12.5t15.5 -8t11.5 -13.5t4.5 -29q0 -5 -6.5 -20t-17 -35t-23 -42t-24.5 -40t-22 -30t-15 -12t-12 6.5t-13 15.5t-10.5 19t-4.5 17q0 5 4.5 21t10.5 37t12.5 43.5t10.5 40.5q2 8 3 20.5t2 26.5t3 28t5 26q8 26 19 55.5t26 58.5q18 -2 39.5 -1.5
t41.5 1.5t36 2t22 1q40 0 61.5 -13t33 -36t17.5 -53.5t14 -66.5q23 35 44 78.5t41 89.5h37q0 -10 4 -24t4 -29z" />
    <glyph glyph-name="dochadathai" unicode="&#xae;" horiz-adv-x="419" 
d="M424 286q0 -10 -3.5 -33t-9.5 -52.5t-12.5 -61.5t-13 -60.5t-11 -49t-5.5 -25.5q-10 -44 -18.5 -92t-13.5 -101q-1 -5 -7.5 -12.5t-5.5 -12.5h-23q-15 24 -22.5 50t-17.5 47.5t-27.5 35t-50.5 13.5q-19 0 -32 -4.5t-24.5 -12t-24 -17.5t-30.5 -22l9 -9q9 5 21 11t24 11.5
t22.5 9t15.5 3.5h24l13 -15q-14 -14 -28.5 -29t-30 -27t-31.5 -20t-33 -8q-14 0 -29.5 7t-28.5 18t-21.5 25t-8.5 29q0 19 12 34.5t31 28.5t41 22.5t42.5 16t35.5 9.5t20 3q10 0 24 -2.5t28.5 -6.5t26.5 -10.5t18 -13.5q4 -5 12 -16.5t16 -14.5q7 5 15 27.5t15.5 55.5
t14 71.5t12 75.5t8.5 68t3 48q0 16 -2.5 23.5t-7.5 10t-11.5 2t-13.5 -0.5q-14 0 -21.5 -0.5t-12.5 -15.5q-2 -8 -3 -20t-3 -20q-3 -29 -13 -61.5t-38 -74.5q-4 -6 -10.5 -12.5t-13 -13.5t-11.5 -13.5t-6 -12.5q-16 -11 -38 -21.5t-35 -10.5q-11 0 -21.5 7.5t-18.5 18
t-13.5 21t-5.5 15.5q0 21 13.5 44.5t29.5 39.5h32q5 -12 2.5 -29t-7.5 -31q-2 -1 -1 -2q0 -2 10 -2q18 0 35.5 21t32 46.5t24 47t9.5 23.5q5 34 5 49.5t-0.5 24t1 15t10.5 22.5q5 8 18 14.5t27 6.5q4 0 15.5 -1.5t25.5 -4.5t28 -6.5t23 -7.5q9 -5 14.5 -16.5t5.5 -19.5
q0 -9 2.5 -22.5t2.5 -24.5z" />
    <glyph glyph-name="dochadathai" unicode="&#xe0e;" horiz-adv-x="419" 
d="M424 286q0 -10 -3.5 -33t-9.5 -52.5t-12.5 -61.5t-13 -60.5t-11 -49t-5.5 -25.5q-10 -44 -18.5 -92t-13.5 -101q-1 -5 -7.5 -12.5t-5.5 -12.5h-23q-15 24 -22.5 50t-17.5 47.5t-27.5 35t-50.5 13.5q-19 0 -32 -4.5t-24.5 -12t-24 -17.5t-30.5 -22l9 -9q9 5 21 11t24 11.5
t22.5 9t15.5 3.5h24l13 -15q-14 -14 -28.5 -29t-30 -27t-31.5 -20t-33 -8q-14 0 -29.5 7t-28.5 18t-21.5 25t-8.5 29q0 19 12 34.5t31 28.5t41 22.5t42.5 16t35.5 9.5t20 3q10 0 24 -2.5t28.5 -6.5t26.5 -10.5t18 -13.5q4 -5 12 -16.5t16 -14.5q7 5 15 27.5t15.5 55.5
t14 71.5t12 75.5t8.5 68t3 48q0 16 -2.5 23.5t-7.5 10t-11.5 2t-13.5 -0.5q-14 0 -21.5 -0.5t-12.5 -15.5q-2 -8 -3 -20t-3 -20q-3 -29 -13 -61.5t-38 -74.5q-4 -6 -10.5 -12.5t-13 -13.5t-11.5 -13.5t-6 -12.5q-16 -11 -38 -21.5t-35 -10.5q-11 0 -21.5 7.5t-18.5 18
t-13.5 21t-5.5 15.5q0 21 13.5 44.5t29.5 39.5h32q5 -12 2.5 -29t-7.5 -31q-2 -1 -1 -2q0 -2 10 -2q18 0 35.5 21t32 46.5t24 47t9.5 23.5q5 34 5 49.5t-0.5 24t1 15t10.5 22.5q5 8 18 14.5t27 6.5q4 0 15.5 -1.5t25.5 -4.5t28 -6.5t23 -7.5q9 -5 14.5 -16.5t5.5 -19.5
q0 -9 2.5 -22.5t2.5 -24.5z" />
    <glyph glyph-name="topatakthai" unicode="&#xaf;" horiz-adv-x="317" 
d="M351 297q0 -5 -2.5 -22t-6 -40t-8.5 -48.5t-11 -46.5q-20 -74 -45 -147t-45 -146q0 -2 -2 -7t-5 -10.5t-7 -9.5t-9 -4h-20q-8 22 -9.5 43t-6.5 43q-18 -15 -25.5 -31t-12 -31.5t-8.5 -30t-14 -27.5h-28q-15 34 -28 67.5t-29 59t-38 41.5t-55 16q-9 0 -29.5 -4.5
t-35.5 -9.5q-8 -2 -15 -11.5t-18 -9.5t-21.5 8t-18.5 16v27q23 17 40.5 27.5t32 16t28 7.5t28.5 2q31 0 53.5 -8.5t41 -24t35.5 -38t38 -50.5q12 12 22 31t20.5 38t22.5 32.5t29 13.5q10 0 21 -4.5t21 -7.5q20 52 36 107t18 98q1 8 4.5 21.5t3.5 24.5q0 4 -1 11.5t-3 14.5
t-6 12t-10 5q-20 0 -33.5 -21.5t-24 -53.5t-21 -69t-25 -69t-34 -53.5t-49.5 -21.5q-12 0 -24.5 11t-22 25t-16 26.5t-6.5 15.5q0 10 6.5 32t11.5 39h38q0 -12 -2.5 -26t-2.5 -25q0 -10 3 -15.5t8 -13.5h15q17 9 29.5 22.5t21.5 30t15 33.5t10 33q3 11 5.5 29t6.5 29
q1 4 8 23.5t18 41.5t24.5 40t28.5 18q5 0 14.5 -5t21 -13t23 -17.5t20.5 -18.5q-1 -8 5 -19.5t6 -21.5z" />
    <glyph glyph-name="topatakthai" unicode="&#xe0f;" horiz-adv-x="317" 
d="M351 297q0 -5 -2.5 -22t-6 -40t-8.5 -48.5t-11 -46.5q-20 -74 -45 -147t-45 -146q0 -2 -2 -7t-5 -10.5t-7 -9.5t-9 -4h-20q-8 22 -9.5 43t-6.5 43q-18 -15 -25.5 -31t-12 -31.5t-8.5 -30t-14 -27.5h-28q-15 34 -28 67.5t-29 59t-38 41.5t-55 16q-9 0 -29.5 -4.5
t-35.5 -9.5q-8 -2 -15 -11.5t-18 -9.5t-21.5 8t-18.5 16v27q23 17 40.5 27.5t32 16t28 7.5t28.5 2q31 0 53.5 -8.5t41 -24t35.5 -38t38 -50.5q12 12 22 31t20.5 38t22.5 32.5t29 13.5q10 0 21 -4.5t21 -7.5q20 52 36 107t18 98q1 8 4.5 21.5t3.5 24.5q0 4 -1 11.5t-3 14.5
t-6 12t-10 5q-20 0 -33.5 -21.5t-24 -53.5t-21 -69t-25 -69t-34 -53.5t-49.5 -21.5q-12 0 -24.5 11t-22 25t-16 26.5t-6.5 15.5q0 10 6.5 32t11.5 39h38q0 -12 -2.5 -26t-2.5 -25q0 -10 3 -15.5t8 -13.5h15q17 9 29.5 22.5t21.5 30t15 33.5t10 33q3 11 5.5 29t6.5 29
q1 4 8 23.5t18 41.5t24.5 40t28.5 18q5 0 14.5 -5t21 -13t23 -17.5t20.5 -18.5q-1 -8 5 -19.5t6 -21.5z" />
    <glyph glyph-name="thothanthai" unicode="&#xb0;" horiz-adv-x="344" 
d="M460 350q-11 -3 -22 -3.5t-19 -3.5q-38 -12 -82 -25.5t-79 -36.5q-1 -10 5.5 -19t8.5 -20q2 -14 2.5 -28.5t0.5 -22.5q0 -44 -7 -78t-15 -57.5t-15 -38t-7 -19.5q0 -8 7.5 -13.5t7.5 -11.5q-1 -10 3 -20.5t4 -18.5q0 -7 -6 -29t-10 -38q-5 -20 -16.5 -42.5t-25.5 -42.5
q-9 2 -22 15t-15 27q-1 7 1 15.5t1 14.5q-2 11 -9.5 20t-15.5 9q-16 0 -32.5 -12.5t-32.5 -27t-31.5 -27t-28.5 -12.5t-21 9t-8 20q0 3 3 12t7 19.5t9 22t8 20.5q3 2 4 2.5t9 0.5q7 0 12.5 -6.5t13.5 -6.5q3 0 10 4t15.5 10t18.5 12t19 11q4 2 18 2q16 0 32.5 -7.5
t30.5 -36.5q3 0 4.5 2t3.5 5q3 21 0 40q2 3 4 5t2 10q0 4 -5.5 12t-12 16.5t-12 16.5t-5.5 12t5 26.5t10.5 49t10.5 49t5 26.5q0 8 -2.5 15.5t-13.5 17.5q-20 -20 -34 -48q-11 7 -15 17t-5 19t-2 15t-7 6q-4 0 -9.5 -2.5t-12 -6t-12.5 -6t-10 -2.5q-6 0 -11.5 4.5t-10 10
t-7 10t-2.5 5.5q0 13 5.5 19t14 10t19.5 8t23 12q33 22 74.5 44t85.5 39.5t88 28.5t81 11q8 0 13 -8t9 -11v-20zM237 230h-7v-30h7v30z" />
    <glyph glyph-name="thothanthai" unicode="&#xe10;" horiz-adv-x="344" 
d="M460 350q-11 -3 -22 -3.5t-19 -3.5q-38 -12 -82 -25.5t-79 -36.5q-1 -10 5.5 -19t8.5 -20q2 -14 2.5 -28.5t0.5 -22.5q0 -44 -7 -78t-15 -57.5t-15 -38t-7 -19.5q0 -8 7.5 -13.5t7.5 -11.5q-1 -10 3 -20.5t4 -18.5q0 -7 -6 -29t-10 -38q-5 -20 -16.5 -42.5t-25.5 -42.5
q-9 2 -22 15t-15 27q-1 7 1 15.5t1 14.5q-2 11 -9.5 20t-15.5 9q-16 0 -32.5 -12.5t-32.5 -27t-31.5 -27t-28.5 -12.5t-21 9t-8 20q0 3 3 12t7 19.5t9 22t8 20.5q3 2 4 2.5t9 0.5q7 0 12.5 -6.5t13.5 -6.5q3 0 10 4t15.5 10t18.5 12t19 11q4 2 18 2q16 0 32.5 -7.5
t30.5 -36.5q3 0 4.5 2t3.5 5q3 21 0 40q2 3 4 5t2 10q0 4 -5.5 12t-12 16.5t-12 16.5t-5.5 12t5 26.5t10.5 49t10.5 49t5 26.5q0 8 -2.5 15.5t-13.5 17.5q-20 -20 -34 -48q-11 7 -15 17t-5 19t-2 15t-7 6q-4 0 -9.5 -2.5t-12 -6t-12.5 -6t-10 -2.5q-6 0 -11.5 4.5t-10 10
t-7 10t-2.5 5.5q0 13 5.5 19t14 10t19.5 8t23 12q33 22 74.5 44t85.5 39.5t88 28.5t81 11q8 0 13 -8t9 -11v-20zM237 230h-7v-30h7v30z" />
    <glyph glyph-name="thonangmonthothai" unicode="&#xb1;" horiz-adv-x="443" 
d="M389 277q0 -25 -8.5 -61.5t-19 -71.5t-20.5 -61.5t-12 -32.5q-2 -4 -11.5 -11t-18.5 -8l-9.5 9.5t-4.5 16.5q0 3 3.5 18t8.5 35t11 42.5t11.5 42.5t9 34.5t3.5 18.5v32q-13 -5 -16.5 -8.5t-8.5 -5.5q-39 -57 -59 -102.5t-35 -79.5t-31 -56t-45 -32q-8 8 -13.5 16t-5.5 19
q0 5 4.5 22.5t10 37t10 37t4.5 22.5v39q-6 4 -12.5 -2t-16.5 -6t-23 13.5t-22 27.5q-6 -2 -12.5 -8t-12.5 -12t-11.5 -10.5t-11.5 -4.5q-10 0 -19.5 11.5t-9.5 20.5q0 4 6 18t15.5 33.5t21 41.5t22.5 40.5t20 30.5t14 12q12 0 18.5 -9t10 -21t4.5 -22.5t1 -13.5v-23l9 -9
q6 4 13 14.5t14.5 21.5t15 19t15.5 8q14 0 19 -16t5.5 -36.5t-1 -39t-0.5 -23.5q8 12 20.5 29t24.5 31q7 8 16 18.5t19 20t20.5 16t20.5 6.5q14 0 23.5 -10.5t15 -25t8 -29.5t2.5 -24z" />
    <glyph glyph-name="thonangmonthothai" unicode="&#xe11;" horiz-adv-x="443" 
d="M389 277q0 -25 -8.5 -61.5t-19 -71.5t-20.5 -61.5t-12 -32.5q-2 -4 -11.5 -11t-18.5 -8l-9.5 9.5t-4.5 16.5q0 3 3.5 18t8.5 35t11 42.5t11.5 42.5t9 34.5t3.5 18.5v32q-13 -5 -16.5 -8.5t-8.5 -5.5q-39 -57 -59 -102.5t-35 -79.5t-31 -56t-45 -32q-8 8 -13.5 16t-5.5 19
q0 5 4.5 22.5t10 37t10 37t4.5 22.5v39q-6 4 -12.5 -2t-16.5 -6t-23 13.5t-22 27.5q-6 -2 -12.5 -8t-12.5 -12t-11.5 -10.5t-11.5 -4.5q-10 0 -19.5 11.5t-9.5 20.5q0 4 6 18t15.5 33.5t21 41.5t22.5 40.5t20 30.5t14 12q12 0 18.5 -9t10 -21t4.5 -22.5t1 -13.5v-23l9 -9
q6 4 13 14.5t14.5 21.5t15 19t15.5 8q14 0 19 -16t5.5 -36.5t-1 -39t-0.5 -23.5q8 12 20.5 29t24.5 31q7 8 16 18.5t19 20t20.5 16t20.5 6.5q14 0 23.5 -10.5t15 -25t8 -29.5t2.5 -24z" />
    <glyph glyph-name="thophuthaothai" unicode="&#xb2;" horiz-adv-x="505" 
d="M496 332q0 -4 -5.5 -14.5t-12.5 -23.5t-14.5 -27t-10.5 -26q-5 -14 -2.5 -30t0.5 -32q-2 -20 -8 -42.5t-11 -45.5q-2 -5 -9 -11t-17 -6q-12 0 -19.5 9t-15 19.5t-18.5 19.5t-30 9q-12 0 -20.5 -14t-16 -30.5t-15.5 -30t-20 -13.5t-19.5 5t-12 12.5t-6 16t-1.5 15.5
q0 29 9.5 47.5t21.5 33t21.5 28t9.5 33.5q0 5 -0.5 12t-2 13.5t-5.5 11t-10 4.5t-18 -5t-24 -12.5t-21.5 -16t-10.5 -15.5q-2 -16 1 -34.5t-1 -38.5q-1 -5 -9.5 -29t-21.5 -51.5t-29.5 -49.5t-33.5 -22q-14 0 -25 5t-18 28q-5 19 -5 46v48q0 9 -9.5 22.5t-9.5 24.5
q0 15 5.5 19t12 11.5t12 27t4.5 66.5q9 17 12.5 41t11.5 53h39q0 -14 2.5 -34t-0.5 -36q-2 1 -3 1q-3 0 -3 -9v-36l8 -9q22 18 39.5 31t32.5 21t29.5 11.5t32.5 3.5q15 0 26 -6t18.5 -16.5t14 -24t12.5 -27.5q-7 -26 -3.5 -44t13.5 -30t23 -21t25 -17q4 4 6.5 9.5t4.5 9.5
q2 23 4.5 43t6.5 50q0 4 5.5 21t14 35.5t18 33.5t18.5 15t15 -5t10 -11.5t6 -12.5t2 -7zM132 193q0 -1 -8.5 -10.5t-18.5 -22t-18.5 -25.5t-8.5 -20q0 -8 7 -15.5t11 -15.5q7 13 15 27.5t14 29t8.5 28t-1.5 24.5z" />
    <glyph glyph-name="thophuthaothai" unicode="&#xe12;" horiz-adv-x="505" 
d="M496 332q0 -4 -5.5 -14.5t-12.5 -23.5t-14.5 -27t-10.5 -26q-5 -14 -2.5 -30t0.5 -32q-2 -20 -8 -42.5t-11 -45.5q-2 -5 -9 -11t-17 -6q-12 0 -19.5 9t-15 19.5t-18.5 19.5t-30 9q-12 0 -20.5 -14t-16 -30.5t-15.5 -30t-20 -13.5t-19.5 5t-12 12.5t-6 16t-1.5 15.5
q0 29 9.5 47.5t21.5 33t21.5 28t9.5 33.5q0 5 -0.5 12t-2 13.5t-5.5 11t-10 4.5t-18 -5t-24 -12.5t-21.5 -16t-10.5 -15.5q-2 -16 1 -34.5t-1 -38.5q-1 -5 -9.5 -29t-21.5 -51.5t-29.5 -49.5t-33.5 -22q-14 0 -25 5t-18 28q-5 19 -5 46v48q0 9 -9.5 22.5t-9.5 24.5
q0 15 5.5 19t12 11.5t12 27t4.5 66.5q9 17 12.5 41t11.5 53h39q0 -14 2.5 -34t-0.5 -36q-2 1 -3 1q-3 0 -3 -9v-36l8 -9q22 18 39.5 31t32.5 21t29.5 11.5t32.5 3.5q15 0 26 -6t18.5 -16.5t14 -24t12.5 -27.5q-7 -26 -3.5 -44t13.5 -30t23 -21t25 -17q4 4 6.5 9.5t4.5 9.5
q2 23 4.5 43t6.5 50q0 4 5.5 21t14 35.5t18 33.5t18.5 15t15 -5t10 -11.5t6 -12.5t2 -7zM132 193q0 -1 -8.5 -10.5t-18.5 -22t-18.5 -25.5t-8.5 -20q0 -8 7 -15.5t11 -15.5q7 13 15 27.5t14 29t8.5 28t-1.5 24.5z" />
    <glyph glyph-name="nonenthai" unicode="&#xb3;" horiz-adv-x="542" 
d="M507 358q0 -4 -9 -20t-19.5 -39t-19.5 -50t-8 -52q0 -4 -3.5 -10.5t-3.5 -15.5q0 -5 3.5 -15.5t8 -21.5t8 -21.5t3.5 -16.5q0 -10 -3 -22t-7.5 -22.5t-11 -17.5t-12.5 -7q-8 0 -15.5 8.5t-14 19.5t-12 21.5t-8.5 14.5q-11 -2 -27.5 -16.5t-32.5 -31.5t-29.5 -30.5
t-19.5 -13.5q-5 0 -11.5 4t-12 9.5t-9.5 12t-4 11.5q0 3 4 19l9.5 38t12.5 46.5t12.5 46.5t9.5 37.5t4 19.5q0 9 -5.5 19.5t-13 19.5t-16 15t-14.5 6h-14t-20.5 -1t-23 -4t-21.5 -8t-15.5 -17t-9.5 -25.5t-6 -26t-5 -19.5q-5 -17 -10 -32t-5 -30q0 -5 3 -13t6 -17t4.5 -18.5
t-0.5 -16.5q-4 -14 -17 -36.5t-27 -39.5q-8 5 -16.5 9t-16 8.5t-12 11t-4.5 17.5q0 4 5.5 31t14 62.5t18 74t17.5 65.5q6 18 14.5 46t6.5 53q4 0 7.5 3.5t14.5 3.5q10 0 15.5 -8.5t15.5 -8.5q6 0 14.5 1.5t17.5 4t17.5 4t14.5 1.5q10 0 29.5 -9.5t32.5 -15.5q10 -5 23.5 -21
t18.5 -31q9 -33 7.5 -67t-1.5 -69q8 8 21.5 14t30.5 26q2 2 6 16.5t9.5 35.5t13 45.5t15 45t16 34t16.5 13.5q6 0 13.5 -4t15 -9.5t12.5 -12t5 -11.5z" />
    <glyph glyph-name="nonenthai" unicode="&#xe13;" horiz-adv-x="542" 
d="M507 358q0 -4 -9 -20t-19.5 -39t-19.5 -50t-8 -52q0 -4 -3.5 -10.5t-3.5 -15.5q0 -5 3.5 -15.5t8 -21.5t8 -21.5t3.5 -16.5q0 -10 -3 -22t-7.5 -22.5t-11 -17.5t-12.5 -7q-8 0 -15.5 8.5t-14 19.5t-12 21.5t-8.5 14.5q-11 -2 -27.5 -16.5t-32.5 -31.5t-29.5 -30.5
t-19.5 -13.5q-5 0 -11.5 4t-12 9.5t-9.5 12t-4 11.5q0 3 4 19l9.5 38t12.5 46.5t12.5 46.5t9.5 37.5t4 19.5q0 9 -5.5 19.5t-13 19.5t-16 15t-14.5 6h-14t-20.5 -1t-23 -4t-21.5 -8t-15.5 -17t-9.5 -25.5t-6 -26t-5 -19.5q-5 -17 -10 -32t-5 -30q0 -5 3 -13t6 -17t4.5 -18.5
t-0.5 -16.5q-4 -14 -17 -36.5t-27 -39.5q-8 5 -16.5 9t-16 8.5t-12 11t-4.5 17.5q0 4 5.5 31t14 62.5t18 74t17.5 65.5q6 18 14.5 46t6.5 53q4 0 7.5 3.5t14.5 3.5q10 0 15.5 -8.5t15.5 -8.5q6 0 14.5 1.5t17.5 4t17.5 4t14.5 1.5q10 0 29.5 -9.5t32.5 -15.5q10 -5 23.5 -21
t18.5 -31q9 -33 7.5 -67t-1.5 -69q8 8 21.5 14t30.5 26q2 2 6 16.5t9.5 35.5t13 45.5t15 45t16 34t16.5 13.5q6 0 13.5 -4t15 -9.5t12.5 -12t5 -11.5z" />
    <glyph glyph-name="dodekthai" unicode="&#xb4;" horiz-adv-x="432" 
d="M366 282q0 -11 -5 -31.5t-12 -45.5t-16 -51.5t-17.5 -48.5t-15 -36.5t-9.5 -15.5q-3 -2 -2.5 -2t-10.5 0q-9 0 -21 7t-12 18q0 4 4 13t9.5 20l11.5 23t10 22l13 39t12 40.5t8.5 34.5t3.5 20q0 13 -6 20.5t-14.5 11.5t-17 5t-12.5 1q-5 0 -17.5 -2.5t-28.5 -7t-33 -10
t-31 -11.5q1 -4 6 -6.5t11 -5t12 -5.5t9 -8q8 -11 15.5 -31t7.5 -31q0 -9 -4 -21t-6 -24q-3 -11 -16 -38.5t-30.5 -56t-36.5 -50.5t-34 -22q-7 0 -16.5 8.5t-18 20t-14.5 23.5t-6 20q0 4 2.5 19.5t6 35.5t8 42t9.5 38q2 11 5 26.5t5 28.5q3 13 5.5 28t7 30.5t11.5 29.5
t18 24q12 11 34 16.5t44 8t40.5 3t23.5 0.5q30 0 50.5 -10t34 -26.5t19.5 -37.5t6 -42zM156 210q-8 -4 -20.5 -10.5t-20.5 -7.5q-3 -10 -6 -22.5t-6 -24.5t-5 -22t-2 -14q0 -8 6 -12q3 -2 6 -2q7 10 15.5 24t16 27t12 23.5t4.5 15.5v25z" />
    <glyph glyph-name="dodekthai" unicode="&#xe14;" horiz-adv-x="432" 
d="M366 282q0 -11 -5 -31.5t-12 -45.5t-16 -51.5t-17.5 -48.5t-15 -36.5t-9.5 -15.5q-3 -2 -2.5 -2t-10.5 0q-9 0 -21 7t-12 18q0 4 4 13t9.5 20l11.5 23t10 22l13 39t12 40.5t8.5 34.5t3.5 20q0 13 -6 20.5t-14.5 11.5t-17 5t-12.5 1q-5 0 -17.5 -2.5t-28.5 -7t-33 -10
t-31 -11.5q1 -4 6 -6.5t11 -5t12 -5.5t9 -8q8 -11 15.5 -31t7.5 -31q0 -9 -4 -21t-6 -24q-3 -11 -16 -38.5t-30.5 -56t-36.5 -50.5t-34 -22q-7 0 -16.5 8.5t-18 20t-14.5 23.5t-6 20q0 4 2.5 19.5t6 35.5t8 42t9.5 38q2 11 5 26.5t5 28.5q3 13 5.5 28t7 30.5t11.5 29.5
t18 24q12 11 34 16.5t44 8t40.5 3t23.5 0.5q30 0 50.5 -10t34 -26.5t19.5 -37.5t6 -42zM156 210q-8 -4 -20.5 -10.5t-20.5 -7.5q-3 -10 -6 -22.5t-6 -24.5t-5 -22t-2 -14q0 -8 6 -12q3 -2 6 -2q7 10 15.5 24t16 27t12 23.5t4.5 15.5v25z" />
    <glyph glyph-name="totaothai" unicode="&#xb5;" horiz-adv-x="426" 
d="M384 315q0 -31 -16 -71t-28 -80q-3 -10 -4.5 -27t0.5 -28q5 -17 7.5 -34.5t-11.5 -34.5q-5 -2 -8 -5t-14 -3q-7 0 -14 7.5t-12.5 16.5t-9 18t-3.5 12q0 4 1.5 13t3.5 20t3.5 22t0.5 20q2 1 9.5 21.5t16 46t15 49.5t6.5 34q0 11 -5 13t-9 7q-5 -2 -21 -10.5t-33 -19.5
t-31 -22.5t-14 -18.5q0 -3 4.5 -9t10 -13t10 -14t4.5 -12q0 -6 -5.5 -24.5t-14.5 -42.5t-20.5 -50t-24.5 -48t-26 -36t-25 -14q-13 0 -23.5 10t-17.5 23t-11.5 25.5t-5.5 17.5q-2 9 -2 23.5t2 27.5q-5 6 -12 13.5t-13.5 14.5t-11 14t-4.5 12q0 13 7.5 20.5t18 18.5t20 29.5
t14.5 53.5q2 14 5.5 34.5t5.5 39.5l2 4q1 2 1 4t1 4q5 4 13 5.5t19 1.5q10 0 14 -9.5t5 -22t-0.5 -25t-1.5 -18.5q4 -5 2.5 -4.5t9.5 0.5q13 0 29 13t35.5 29t42 29t48.5 13q21 0 34 -8.5t19.5 -21t9 -27t2.5 -27.5zM154 190q-8 -5 -17.5 -10t-17.5 -13q0 -18 4 -36t9 -31
q28 31 48 90h-26z" />
    <glyph glyph-name="totaothai" unicode="&#xe15;" horiz-adv-x="426" 
d="M384 315q0 -31 -16 -71t-28 -80q-3 -10 -4.5 -27t0.5 -28q5 -17 7.5 -34.5t-11.5 -34.5q-5 -2 -8 -5t-14 -3q-7 0 -14 7.5t-12.5 16.5t-9 18t-3.5 12q0 4 1.5 13t3.5 20t3.5 22t0.5 20q2 1 9.5 21.5t16 46t15 49.5t6.5 34q0 11 -5 13t-9 7q-5 -2 -21 -10.5t-33 -19.5
t-31 -22.5t-14 -18.5q0 -3 4.5 -9t10 -13t10 -14t4.5 -12q0 -6 -5.5 -24.5t-14.5 -42.5t-20.5 -50t-24.5 -48t-26 -36t-25 -14q-13 0 -23.5 10t-17.5 23t-11.5 25.5t-5.5 17.5q-2 9 -2 23.5t2 27.5q-5 6 -12 13.5t-13.5 14.5t-11 14t-4.5 12q0 13 7.5 20.5t18 18.5t20 29.5
t14.5 53.5q2 14 5.5 34.5t5.5 39.5l2 4q1 2 1 4t1 4q5 4 13 5.5t19 1.5q10 0 14 -9.5t5 -22t-0.5 -25t-1.5 -18.5q4 -5 2.5 -4.5t9.5 0.5q13 0 29 13t35.5 29t42 29t48.5 13q21 0 34 -8.5t19.5 -21t9 -27t2.5 -27.5zM154 190q-8 -5 -17.5 -10t-17.5 -13q0 -18 4 -36t9 -31
q28 31 48 90h-26z" />
    <glyph glyph-name="thothungthai" unicode="&#xb6;" horiz-adv-x="402" 
d="M347 271q0 -4 -2 -16.5t-5 -28.5t-7 -33t-8 -30q-1 -5 -4.5 -12t-6.5 -12q-2 -14 0 -27t2.5 -26.5t-2.5 -27t-15 -26.5q-8 0 -16 4.5t-14.5 12t-10.5 16.5t-4 17q0 3 3 18t7.5 35t10 43t10 43t7.5 34.5t3 18.5q0 21 -8 35.5t-27 14.5q-22 0 -44 -12t-39.5 -29.5
t-28.5 -37t-11 -35.5q0 -11 3 -8.5t4 -1.5q4 -4 8.5 -13.5t9 -20.5t7.5 -21t3 -14q0 -14 -6 -36t-16.5 -42.5t-26.5 -35t-35 -14.5q-12 0 -20.5 7.5t-13.5 17.5t-7.5 19.5t-2.5 13.5q0 5 8.5 37t21 75.5t26 90t22.5 80.5q30 18 65.5 34t69.5 16q12 0 25 -2t24.5 -10.5
t20 -24t10.5 -42.5q1 -11 5.5 -22t4.5 -22z" />
    <glyph glyph-name="thothungthai" unicode="&#xe16;" horiz-adv-x="402" 
d="M347 271q0 -4 -2 -16.5t-5 -28.5t-7 -33t-8 -30q-1 -5 -4.5 -12t-6.5 -12q-2 -14 0 -27t2.5 -26.5t-2.5 -27t-15 -26.5q-8 0 -16 4.5t-14.5 12t-10.5 16.5t-4 17q0 3 3 18t7.5 35t10 43t10 43t7.5 34.5t3 18.5q0 21 -8 35.5t-27 14.5q-22 0 -44 -12t-39.5 -29.5
t-28.5 -37t-11 -35.5q0 -11 3 -8.5t4 -1.5q4 -4 8.5 -13.5t9 -20.5t7.5 -21t3 -14q0 -14 -6 -36t-16.5 -42.5t-26.5 -35t-35 -14.5q-12 0 -20.5 7.5t-13.5 17.5t-7.5 19.5t-2.5 13.5q0 5 8.5 37t21 75.5t26 90t22.5 80.5q30 18 65.5 34t69.5 16q12 0 25 -2t24.5 -10.5
t20 -24t10.5 -42.5q1 -11 5.5 -22t4.5 -22z" />
    <glyph glyph-name="thothahanthai" unicode="&#xb7;" horiz-adv-x="447" 
d="M400 280q0 -35 -3.5 -58t-9 -45.5t-13 -50.5t-16.5 -74q-1 -5 -5.5 -10t-9.5 -10h-34q-5 9 -6 17t-1 19q0 6 6.5 33t14.5 59t14.5 59t6.5 33q0 10 -1.5 17.5t-10.5 7.5q-18 0 -37.5 -20.5t-39 -51.5t-38.5 -66.5t-35.5 -66.5t-30.5 -51.5t-24 -20.5q-11 0 -18.5 6
t-12.5 14t-7 15.5t-2 10.5q0 4 5 21.5t12.5 42t16 52t16 52t12.5 42t5 21.5q0 10 -3 15.5t-12 14.5q-12 -9 -25.5 -23.5t-26.5 -28.5t-23.5 -24t-16.5 -10q-11 0 -22.5 11.5t-11.5 22.5q0 5 6.5 17.5t15.5 27.5t20 29.5t20 23.5q7 7 18 14.5t22 13t20.5 9t15.5 3.5
q25 0 34.5 -16.5t11.5 -38.5t2.5 -44.5t7.5 -35.5q20 14 38.5 35t35.5 40.5t32.5 33.5t30.5 14q24 0 35.5 -13.5t16 -31t4.5 -34v-22.5z" />
    <glyph glyph-name="thothahanthai" unicode="&#x2219;" horiz-adv-x="447" 
d="M400 280q0 -35 -3.5 -58t-9 -45.5t-13 -50.5t-16.5 -74q-1 -5 -5.5 -10t-9.5 -10h-34q-5 9 -6 17t-1 19q0 6 6.5 33t14.5 59t14.5 59t6.5 33q0 10 -1.5 17.5t-10.5 7.5q-18 0 -37.5 -20.5t-39 -51.5t-38.5 -66.5t-35.5 -66.5t-30.5 -51.5t-24 -20.5q-11 0 -18.5 6
t-12.5 14t-7 15.5t-2 10.5q0 4 5 21.5t12.5 42t16 52t16 52t12.5 42t5 21.5q0 10 -3 15.5t-12 14.5q-12 -9 -25.5 -23.5t-26.5 -28.5t-23.5 -24t-16.5 -10q-11 0 -22.5 11.5t-11.5 22.5q0 5 6.5 17.5t15.5 27.5t20 29.5t20 23.5q7 7 18 14.5t22 13t20.5 9t15.5 3.5
q25 0 34.5 -16.5t11.5 -38.5t2.5 -44.5t7.5 -35.5q20 14 38.5 35t35.5 40.5t32.5 33.5t30.5 14q24 0 35.5 -13.5t16 -31t4.5 -34v-22.5z" />
    <glyph glyph-name="thothahanthai" unicode="&#xe17;" horiz-adv-x="447" 
d="M400 280q0 -35 -3.5 -58t-9 -45.5t-13 -50.5t-16.5 -74q-1 -5 -5.5 -10t-9.5 -10h-34q-5 9 -6 17t-1 19q0 6 6.5 33t14.5 59t14.5 59t6.5 33q0 10 -1.5 17.5t-10.5 7.5q-18 0 -37.5 -20.5t-39 -51.5t-38.5 -66.5t-35.5 -66.5t-30.5 -51.5t-24 -20.5q-11 0 -18.5 6
t-12.5 14t-7 15.5t-2 10.5q0 4 5 21.5t12.5 42t16 52t16 52t12.5 42t5 21.5q0 10 -3 15.5t-12 14.5q-12 -9 -25.5 -23.5t-26.5 -28.5t-23.5 -24t-16.5 -10q-11 0 -22.5 11.5t-11.5 22.5q0 5 6.5 17.5t15.5 27.5t20 29.5t20 23.5q7 7 18 14.5t22 13t20.5 9t15.5 3.5
q25 0 34.5 -16.5t11.5 -38.5t2.5 -44.5t7.5 -35.5q20 14 38.5 35t35.5 40.5t32.5 33.5t30.5 14q24 0 35.5 -13.5t16 -31t4.5 -34v-22.5z" />
    <glyph glyph-name="thothongthai" unicode="&#xb8;" horiz-adv-x="400" 
d="M360 331q0 1 -1 2q-3 3 -11 3q-5 0 -23 -2.5t-37.5 -8t-35 -14t-15.5 -19.5q0 -3 6.5 -10t14.5 -15.5t16 -18t11 -17.5q2 -7 3 -18.5t1 -21.5q0 -18 -10 -50t-26 -63.5t-35.5 -54.5t-37.5 -23q-14 0 -23 10t-14.5 22t-7.5 22.5t-2 12.5q0 5 5 28.5t10.5 50.5t10.5 50.5
t5 28.5q0 9 -2.5 13t-6 5t-7 0.5t-4.5 -0.5q-10 0 -18.5 -2.5t-18.5 -2.5q-9 0 -22.5 10.5t-13.5 22.5q0 17 15 32.5t38.5 29t51.5 24.5t53.5 19t44.5 12.5t25 4.5q12 0 26.5 -1.5t34.5 -20.5v-40zM252 196q0 10 -9.5 18.5t-13.5 12.5q-8 -14 -17.5 -31.5t-17.5 -35
t-13.5 -31t-5.5 -18.5q0 -10 3 -14t3 -9q8 0 14 2.5t8 4.5q7 11 15.5 26.5t16 30.5t12.5 27.5t5 16.5z" />
    <glyph glyph-name="thothongthai" unicode="&#xe18;" horiz-adv-x="400" 
d="M360 331q0 1 -1 2q-3 3 -11 3q-5 0 -23 -2.5t-37.5 -8t-35 -14t-15.5 -19.5q0 -3 6.5 -10t14.5 -15.5t16 -18t11 -17.5q2 -7 3 -18.5t1 -21.5q0 -18 -10 -50t-26 -63.5t-35.5 -54.5t-37.5 -23q-14 0 -23 10t-14.5 22t-7.5 22.5t-2 12.5q0 5 5 28.5t10.5 50.5t10.5 50.5
t5 28.5q0 9 -2.5 13t-6 5t-7 0.5t-4.5 -0.5q-10 0 -18.5 -2.5t-18.5 -2.5q-9 0 -22.5 10.5t-13.5 22.5q0 17 15 32.5t38.5 29t51.5 24.5t53.5 19t44.5 12.5t25 4.5q12 0 26.5 -1.5t34.5 -20.5v-40zM252 196q0 10 -9.5 18.5t-13.5 12.5q-8 -14 -17.5 -31.5t-17.5 -35
t-13.5 -31t-5.5 -18.5q0 -10 3 -14t3 -9q8 0 14 2.5t8 4.5q7 11 15.5 26.5t16 30.5t12.5 27.5t5 16.5z" />
    <glyph glyph-name="nonuthai" unicode="&#xb9;" horiz-adv-x="437" 
d="M385 357q0 -5 -6 -16t-14 -24.5t-16 -27.5t-12 -24q-5 -9 -9.5 -20t-4.5 -24q0 -5 5 -12.5t7 -15.5q2 -22 4 -47t-2 -45t-18.5 -46.5t-31.5 -52.5h-27q-17 14 -22 27.5t-6 27t-1.5 28t-9.5 30.5q-4 -2 -18 -15.5t-31.5 -29t-35 -28t-28.5 -12.5q-14 0 -22 5.5t-12.5 13.5
t-6 16.5t-1.5 15.5q0 5 7 28.5t15.5 51t15.5 51t7 29.5q0 4 -1 12.5t-3.5 17t-6 15t-9.5 6.5q-15 0 -27 -9t-23 -19.5t-21 -19.5t-20 -9q-9 0 -20 10t-11 21q0 17 12.5 36t31.5 34.5t41 25.5t40 10q22 0 34.5 -14t19 -33t8 -37t1.5 -25q0 -5 -2 -17.5t-5.5 -29.5t-7.5 -35
t-8 -33q-1 -1 -1 -2q0 -2 10 -2q4 0 18.5 11t33 26t37 31.5t32.5 27.5l4.5 12t11.5 29t16 37t18 36.5t18.5 28t17.5 11.5q14 0 24.5 -12.5t10.5 -24.5z" />
    <glyph glyph-name="nonuthai" unicode="&#xe19;" horiz-adv-x="437" 
d="M385 357q0 -5 -6 -16t-14 -24.5t-16 -27.5t-12 -24q-5 -9 -9.5 -20t-4.5 -24q0 -5 5 -12.5t7 -15.5q2 -22 4 -47t-2 -45t-18.5 -46.5t-31.5 -52.5h-27q-17 14 -22 27.5t-6 27t-1.5 28t-9.5 30.5q-4 -2 -18 -15.5t-31.5 -29t-35 -28t-28.5 -12.5q-14 0 -22 5.5t-12.5 13.5
t-6 16.5t-1.5 15.5q0 5 7 28.5t15.5 51t15.5 51t7 29.5q0 4 -1 12.5t-3.5 17t-6 15t-9.5 6.5q-15 0 -27 -9t-23 -19.5t-21 -19.5t-20 -9q-9 0 -20 10t-11 21q0 17 12.5 36t31.5 34.5t41 25.5t40 10q22 0 34.5 -14t19 -33t8 -37t1.5 -25q0 -5 -2 -17.5t-5.5 -29.5t-7.5 -35
t-8 -33q-1 -1 -1 -2q0 -2 10 -2q4 0 18.5 11t33 26t37 31.5t32.5 27.5l4.5 12t11.5 29t16 37t18 36.5t18.5 28t17.5 11.5q14 0 24.5 -12.5t10.5 -24.5z" />
    <glyph glyph-name="bobaimaithai" unicode="&#xba;" horiz-adv-x="395" 
d="M348 332q0 -5 -3.5 -14t-8.5 -20.5t-9.5 -24t-6.5 -23.5q-5 -35 -17 -78t-39 -79q-10 -13 -24.5 -29t-30 -29.5t-31.5 -22.5t-28 -9q-16 0 -30.5 8.5t-26 21t-18 27.5t-6.5 27q0 18 7 49.5t16 63t16 55t7 25.5v27q1 1 1 2q0 2 -10 2q-14 0 -24.5 -7.5t-19 -17.5
t-13.5 -20.5t-8 -16.5q-3 -7 -2.5 -16t2.5 -18q-2 -5 -3.5 -9.5t-12.5 -4.5q-12 0 -19 7.5t-11.5 17.5t-6 18.5t-1.5 11.5q0 19 14.5 43t35.5 45t44 35t40 14q16 0 27 -9.5t18 -22t10 -24.5t3 -17q0 -4 -4.5 -20.5t-10.5 -40t-14 -50t-14 -50t-10.5 -40.5t-4.5 -20
q0 -10 6 -13t15 -13q19 12 35 24.5t30 26.5t26 31t20 38q10 29 15.5 67t13.5 72q5 22 15 35.5t22 13.5q8 0 13 -8t9 -17q4 -11 7 -24z" />
    <glyph glyph-name="bobaimaithai" unicode="&#xe1a;" horiz-adv-x="395" 
d="M348 332q0 -5 -3.5 -14t-8.5 -20.5t-9.5 -24t-6.5 -23.5q-5 -35 -17 -78t-39 -79q-10 -13 -24.5 -29t-30 -29.5t-31.5 -22.5t-28 -9q-16 0 -30.5 8.5t-26 21t-18 27.5t-6.5 27q0 18 7 49.5t16 63t16 55t7 25.5v27q1 1 1 2q0 2 -10 2q-14 0 -24.5 -7.5t-19 -17.5
t-13.5 -20.5t-8 -16.5q-3 -7 -2.5 -16t2.5 -18q-2 -5 -3.5 -9.5t-12.5 -4.5q-12 0 -19 7.5t-11.5 17.5t-6 18.5t-1.5 11.5q0 19 14.5 43t35.5 45t44 35t40 14q16 0 27 -9.5t18 -22t10 -24.5t3 -17q0 -4 -4.5 -20.5t-10.5 -40t-14 -50t-14 -50t-10.5 -40.5t-4.5 -20
q0 -10 6 -13t15 -13q19 12 35 24.5t30 26.5t26 31t20 38q10 29 15.5 67t13.5 72q5 22 15 35.5t22 13.5q8 0 13 -8t9 -17q4 -11 7 -24z" />
    <glyph glyph-name="poplathai" unicode="&#xbb;" horiz-adv-x="456" 
d="M472 573q0 -5 -3.5 -17.5t-8 -27.5t-9.5 -31.5t-9 -29.5q-7 -26 -17 -57t-21 -63t-23.5 -62.5t-23.5 -55.5q-5 -13 -18 -26t-21 -30q-17 -35 -37 -65.5t-42 -54t-45 -37t-46 -13.5q-15 0 -27.5 9.5t-21.5 23t-14 28t-5 24.5q0 18 11.5 46t26 58t29 57.5t20.5 44.5v22
q-14 -4 -35.5 -13t-40.5 -22t-30.5 -29t-5.5 -34q-5 -5 -11 -7t-17 -2q-20 0 -33.5 15t-13.5 29q0 30 24.5 55t58.5 43.5t68.5 28.5t54.5 10q39 0 47.5 -13t8.5 -37q0 -29 -15 -66t-33 -72t-32.5 -64.5t-13.5 -42.5q-1 -1 -1 -2q0 -2 10 -2q16 0 35.5 18.5t37.5 43t32 47.5
t19 32q38 66 66.5 137.5t41.5 142.5q3 19 8.5 48.5t13.5 57.5q2 5 8.5 13t18.5 8q11 0 16.5 -3.5t10.5 -3.5q3 -20 -4 -40q4 -5 7.5 -6t3.5 -13z" />
    <glyph glyph-name="poplathai" unicode="&#xe1b;" horiz-adv-x="456" 
d="M472 573q0 -5 -3.5 -17.5t-8 -27.5t-9.5 -31.5t-9 -29.5q-7 -26 -17 -57t-21 -63t-23.5 -62.5t-23.5 -55.5q-5 -13 -18 -26t-21 -30q-17 -35 -37 -65.5t-42 -54t-45 -37t-46 -13.5q-15 0 -27.5 9.5t-21.5 23t-14 28t-5 24.5q0 18 11.5 46t26 58t29 57.5t20.5 44.5v22
q-14 -4 -35.5 -13t-40.5 -22t-30.5 -29t-5.5 -34q-5 -5 -11 -7t-17 -2q-20 0 -33.5 15t-13.5 29q0 30 24.5 55t58.5 43.5t68.5 28.5t54.5 10q39 0 47.5 -13t8.5 -37q0 -29 -15 -66t-33 -72t-32.5 -64.5t-13.5 -42.5q-1 -1 -1 -2q0 -2 10 -2q16 0 35.5 18.5t37.5 43t32 47.5
t19 32q38 66 66.5 137.5t41.5 142.5q3 19 8.5 48.5t13.5 57.5q2 5 8.5 13t18.5 8q11 0 16.5 -3.5t10.5 -3.5q3 -20 -4 -40q4 -5 7.5 -6t3.5 -13z" />
    <glyph glyph-name="phophungthai" unicode="&#xbc;" horiz-adv-x="511" 
d="M442 327q0 -4 -9.5 -36.5t-23.5 -77t-30.5 -93t-29.5 -84.5q-7 -19 -26 -26.5t-29 -7.5q-15 0 -28 15t-23 33.5t-17.5 36.5t-12.5 24q-12 -12 -25.5 -26.5t-27 -27t-25 -21t-18.5 -8.5q-11 0 -22 10t-19.5 23t-14 24t-5.5 13q0 11 6.5 28t10.5 34q4 21 16 51.5t26 63
t29.5 64t27.5 55.5h37q11 -10 12.5 -24t0.5 -29t-0.5 -30t9.5 -28q5 -8 14.5 -10t20.5 -4q5 -3 10.5 -11.5t8.5 -13.5q3 -15 0.5 -33t-4.5 -37t-1 -38.5t12 -37.5q13 6 21 22.5t13 36.5t8.5 42t8.5 39q8 24 17.5 61t18.5 68q4 5 8 9.5t16 4.5q13 0 21 -6t12 -14.5t5 -17.5
t1 -16zM197 218q-2 2 -5 3.5t-5 3.5l-6 2q-10 -10 -22.5 -23.5t-11.5 -25.5v-21q11 9 26 27.5t24 33.5z" />
    <glyph glyph-name="phophungthai" unicode="&#xe1c;" horiz-adv-x="511" 
d="M442 327q0 -4 -9.5 -36.5t-23.5 -77t-30.5 -93t-29.5 -84.5q-7 -19 -26 -26.5t-29 -7.5q-15 0 -28 15t-23 33.5t-17.5 36.5t-12.5 24q-12 -12 -25.5 -26.5t-27 -27t-25 -21t-18.5 -8.5q-11 0 -22 10t-19.5 23t-14 24t-5.5 13q0 11 6.5 28t10.5 34q4 21 16 51.5t26 63
t29.5 64t27.5 55.5h37q11 -10 12.5 -24t0.5 -29t-0.5 -30t9.5 -28q5 -8 14.5 -10t20.5 -4q5 -3 10.5 -11.5t8.5 -13.5q3 -15 0.5 -33t-4.5 -37t-1 -38.5t12 -37.5q13 6 21 22.5t13 36.5t8.5 42t8.5 39q8 24 17.5 61t18.5 68q4 5 8 9.5t16 4.5q13 0 21 -6t12 -14.5t5 -17.5
t1 -16zM197 218q-2 2 -5 3.5t-5 3.5l-6 2q-10 -10 -22.5 -23.5t-11.5 -25.5v-21q11 9 26 27.5t24 33.5z" />
    <glyph glyph-name="fofathai" unicode="&#xbd;" horiz-adv-x="462" 
d="M533 595q0 -17 -9.5 -45t-21 -56.5t-22 -51t-12.5 -27.5q-7 -18 -11 -43t-9 -44q-4 -11 -14.5 -39.5t-26 -65t-34 -76t-36.5 -72t-34.5 -53.5t-28.5 -21q-18 0 -29.5 11t-18.5 24.5t-9.5 26t-2.5 15.5v31l-17 18q-21 -21 -32 -39.5t-20 -32t-19 -21t-28 -7.5
q-17 0 -30 10t-22 24.5t-13.5 29t-4.5 23.5q0 6 2 14.5t5 18.5t6 19.5t4 17.5q1 3 6.5 21t15 42.5t21.5 52.5t26 51.5t28.5 39t28.5 15.5q17 0 26 -13.5t13 -30.5t4.5 -32t0.5 -19q13 -9 28.5 -13t27.5 -13q7 -35 8 -73t6 -79q33 43 57.5 99t47 121t45.5 137t53 148h37
q8 -19 8 -43zM174 233q0 13 -10 16.5t-15 3.5q-5 -10 -12 -21.5t-13.5 -22.5t-11 -20t-4.5 -13v-22q4 1 14.5 10.5t22 22t20.5 25.5t9 21z" />
    <glyph glyph-name="fofathai" unicode="&#xe1d;" horiz-adv-x="462" 
d="M533 595q0 -17 -9.5 -45t-21 -56.5t-22 -51t-12.5 -27.5q-7 -18 -11 -43t-9 -44q-4 -11 -14.5 -39.5t-26 -65t-34 -76t-36.5 -72t-34.5 -53.5t-28.5 -21q-18 0 -29.5 11t-18.5 24.5t-9.5 26t-2.5 15.5v31l-17 18q-21 -21 -32 -39.5t-20 -32t-19 -21t-28 -7.5
q-17 0 -30 10t-22 24.5t-13.5 29t-4.5 23.5q0 6 2 14.5t5 18.5t6 19.5t4 17.5q1 3 6.5 21t15 42.5t21.5 52.5t26 51.5t28.5 39t28.5 15.5q17 0 26 -13.5t13 -30.5t4.5 -32t0.5 -19q13 -9 28.5 -13t27.5 -13q7 -35 8 -73t6 -79q33 43 57.5 99t47 121t45.5 137t53 148h37
q8 -19 8 -43zM174 233q0 13 -10 16.5t-15 3.5q-5 -10 -12 -21.5t-13.5 -22.5t-11 -20t-4.5 -13v-22q4 1 14.5 10.5t22 22t20.5 25.5t9 21z" />
    <glyph glyph-name="phophanthai" unicode="&#xbe;" horiz-adv-x="502" 
d="M463 355q0 -5 -5 -14.5t-12 -21.5t-14 -24.5t-11 -22.5q-11 -28 -19.5 -61t-16.5 -62q-4 -14 -11 -34t-15 -34t-24 -27t-27 -13q-20 0 -31 16.5t-16 37.5t-6.5 40t-2.5 24q-7 -8 -21 -32.5t-30.5 -51t-33.5 -47.5t-30 -21t-21.5 7t-14 17t-7.5 19.5t-2 15.5q0 5 7.5 26.5
t17.5 50t20.5 59.5t16.5 54q-4 5 -2 7t-9 2q-5 0 -17.5 -14t-26.5 -31t-25.5 -31t-14.5 -14q-7 0 -13.5 5.5t-11 13t-7 14t-2.5 9.5q0 22 19 47t44.5 46.5t51 35.5t39.5 14q10 0 18 -9t13 -20.5t8 -21.5t3 -13q0 -5 -3 -15.5t-6 -23.5t-6 -27t-3 -27q14 14 24.5 33.5
t20 35.5t21 24.5t28.5 -0.5q10 -11 10 -31.5t-1.5 -43t-1.5 -44.5t11 -36q5 0 9.5 5.5t7.5 10.5q1 17 6 36.5t10 36.5q3 7 8.5 14.5t8.5 18.5q4 12 8.5 27t9.5 31.5t10 33.5t10 31q3 1 9 4.5t17 3.5q9 0 15 -5.5t10.5 -12.5t6.5 -13.5t2 -7.5z" />
    <glyph glyph-name="phophanthai" unicode="&#xe1e;" horiz-adv-x="502" 
d="M463 355q0 -5 -5 -14.5t-12 -21.5t-14 -24.5t-11 -22.5q-11 -28 -19.5 -61t-16.5 -62q-4 -14 -11 -34t-15 -34t-24 -27t-27 -13q-20 0 -31 16.5t-16 37.5t-6.5 40t-2.5 24q-7 -8 -21 -32.5t-30.5 -51t-33.5 -47.5t-30 -21t-21.5 7t-14 17t-7.5 19.5t-2 15.5q0 5 7.5 26.5
t17.5 50t20.5 59.5t16.5 54q-4 5 -2 7t-9 2q-5 0 -17.5 -14t-26.5 -31t-25.5 -31t-14.5 -14q-7 0 -13.5 5.5t-11 13t-7 14t-2.5 9.5q0 22 19 47t44.5 46.5t51 35.5t39.5 14q10 0 18 -9t13 -20.5t8 -21.5t3 -13q0 -5 -3 -15.5t-6 -23.5t-6 -27t-3 -27q14 14 24.5 33.5
t20 35.5t21 24.5t28.5 -0.5q10 -11 10 -31.5t-1.5 -43t-1.5 -44.5t11 -36q5 0 9.5 5.5t7.5 10.5q1 17 6 36.5t10 36.5q3 7 8.5 14.5t8.5 18.5q4 12 8.5 27t9.5 31.5t10 33.5t10 31q3 1 9 4.5t17 3.5q9 0 15 -5.5t10.5 -12.5t6.5 -13.5t2 -7.5z" />
    <glyph glyph-name="fofanthai" unicode="&#xbf;" horiz-adv-x="461" 
d="M503 602q0 -12 -7 -31.5t-16.5 -41t-19 -42.5t-13.5 -36q-4 -12 -3 -28.5t-3 -29.5q-1 -1 -9.5 -31t-23.5 -73.5t-34 -94t-40.5 -93.5t-43.5 -71.5t-42 -28.5q-18 0 -27 18.5t-13 42.5t-5.5 47t-4.5 32q-9 -11 -21 -27t-24 -30.5t-22.5 -25t-16.5 -10.5q-13 0 -20.5 8
t-12 17.5t-6 18.5t-1.5 11q0 6 2.5 18t6.5 26.5t8 30.5t6 29q-10 8 -20.5 13t-18.5 10.5t-13.5 14.5t-5.5 26q0 16 7.5 34.5t21 35t31.5 27.5t39 11q11 0 17 -9.5t9 -11.5q8 -11 8.5 -27.5t-1.5 -34t-3.5 -34t2.5 -28.5q12 11 17.5 17.5t10 10.5t9.5 5t15 1q21 0 28.5 -21
t8.5 -47.5t-2 -51t-4 -31.5q5 0 4.5 -2.5t10.5 -2.5q9 0 23.5 29t31.5 75t35.5 104t37.5 117t36.5 112t31.5 90h32q5 -8 6 -17t1 -20z" />
    <glyph glyph-name="fofanthai" unicode="&#xe1f;" horiz-adv-x="461" 
d="M503 602q0 -12 -7 -31.5t-16.5 -41t-19 -42.5t-13.5 -36q-4 -12 -3 -28.5t-3 -29.5q-1 -1 -9.5 -31t-23.5 -73.5t-34 -94t-40.5 -93.5t-43.5 -71.5t-42 -28.5q-18 0 -27 18.5t-13 42.5t-5.5 47t-4.5 32q-9 -11 -21 -27t-24 -30.5t-22.5 -25t-16.5 -10.5q-13 0 -20.5 8
t-12 17.5t-6 18.5t-1.5 11q0 6 2.5 18t6.5 26.5t8 30.5t6 29q-10 8 -20.5 13t-18.5 10.5t-13.5 14.5t-5.5 26q0 16 7.5 34.5t21 35t31.5 27.5t39 11q11 0 17 -9.5t9 -11.5q8 -11 8.5 -27.5t-1.5 -34t-3.5 -34t2.5 -28.5q12 11 17.5 17.5t10 10.5t9.5 5t15 1q21 0 28.5 -21
t8.5 -47.5t-2 -51t-4 -31.5q5 0 4.5 -2.5t10.5 -2.5q9 0 23.5 29t31.5 75t35.5 104t37.5 117t36.5 112t31.5 90h32q5 -8 6 -17t1 -20z" />
    <glyph glyph-name="phosamphaothai" unicode="&#xc0;" horiz-adv-x="499" 
d="M424 276q0 -15 -11.5 -46.5t-25.5 -63.5t-26 -57.5t-12 -29.5q-2 -17 -4 -38t-12 -40h-20q-11 -1 -18 7t-17 13q4 24 9.5 49.5t13.5 48.5q7 21 18.5 48t21.5 52t17.5 44.5t7.5 25.5q0 11 -9.5 15.5t-20.5 6.5q-13 2 -30 0q-13 0 -25 1.5t-22.5 0t-20 -7t-16.5 -18.5
q-5 -8 -5.5 -21t-0.5 -29t-0.5 -32.5t-3.5 -30.5q-5 -18 -17 -47.5t-30 -57.5t-42.5 -48.5t-54.5 -20.5q-9 0 -22.5 6t-27 15t-23 19.5t-9.5 20.5t6.5 27t10.5 37q2 8 10.5 23t18.5 23h55l-17.5 -42t-7.5 -30t-0.5 -14.5t4.5 -7.5q25 15 45 35.5t34 43.5t22.5 47.5
t10.5 47.5q1 17 -1.5 30.5t-5 26t-3.5 25.5t4 28q35 12 70.5 22.5t79.5 10.5q12 0 24.5 0.5t23 -2t19 -8.5t13.5 -18q4 -9 8 -21.5t7 -26t5 -25t2 -17.5z" />
    <glyph glyph-name="phosamphaothai" unicode="&#xe20;" horiz-adv-x="499" 
d="M424 276q0 -15 -11.5 -46.5t-25.5 -63.5t-26 -57.5t-12 -29.5q-2 -17 -4 -38t-12 -40h-20q-11 -1 -18 7t-17 13q4 24 9.5 49.5t13.5 48.5q7 21 18.5 48t21.5 52t17.5 44.5t7.5 25.5q0 11 -9.5 15.5t-20.5 6.5q-13 2 -30 0q-13 0 -25 1.5t-22.5 0t-20 -7t-16.5 -18.5
q-5 -8 -5.5 -21t-0.5 -29t-0.5 -32.5t-3.5 -30.5q-5 -18 -17 -47.5t-30 -57.5t-42.5 -48.5t-54.5 -20.5q-9 0 -22.5 6t-27 15t-23 19.5t-9.5 20.5t6.5 27t10.5 37q2 8 10.5 23t18.5 23h55l-17.5 -42t-7.5 -30t-0.5 -14.5t4.5 -7.5q25 15 45 35.5t34 43.5t22.5 47.5
t10.5 47.5q1 17 -1.5 30.5t-5 26t-3.5 25.5t4 28q35 12 70.5 22.5t79.5 10.5q12 0 24.5 0.5t23 -2t19 -8.5t13.5 -18q4 -9 8 -21.5t7 -26t5 -25t2 -17.5z" />
    <glyph glyph-name="momathai" unicode="&#xc1;" horiz-adv-x="472" 
d="M446 331q0 -10 -5 -18.5t-12 -16.5t-15 -16t-15 -17q-2 -5 1 -11.5t5 -11.5q-9 -15 -16 -38.5t-14 -40.5q0 -1 -5.5 -19t-15 -39.5t-22.5 -39.5t-28 -18q-14 0 -25 12t-21.5 27t-22.5 27t-27 12q-14 0 -26 -14.5t-21.5 -32.5t-16 -34.5t-9.5 -19.5q-5 -6 -16 -13.5
t-20 -11.5q-9 9 -18 21.5t-9 23.5q0 5 5.5 19t13 31.5t16 35.5t15.5 30q4 6 11.5 13.5t15.5 15t14.5 15.5t8.5 15q5 14 10 33t5 30q0 10 -3 15.5t-8 14.5q-5 0 -10.5 -3t-10.5 -5q-12 -13 -25.5 -24.5t-24.5 -23.5t-18 -24.5t-6 -25.5q-2 -1 -3 -5t-12 -4q-8 0 -14.5 8
t-11.5 18t-7.5 18.5t-2.5 10.5q0 18 18 43.5t42.5 49t50 40.5t40.5 17q18 0 29 -8t17.5 -21.5t8.5 -30t2 -34.5q-1 -41 -14 -94q15 -20 35 -40t34 -43h2q4 0 8 1q10 11 18 31.5t15 42.5t12 42t9 32q8 23 21 50t27 54q18 -7 29.5 -23t11.5 -28z" />
    <glyph glyph-name="momathai" unicode="&#xe21;" horiz-adv-x="472" 
d="M446 331q0 -10 -5 -18.5t-12 -16.5t-15 -16t-15 -17q-2 -5 1 -11.5t5 -11.5q-9 -15 -16 -38.5t-14 -40.5q0 -1 -5.5 -19t-15 -39.5t-22.5 -39.5t-28 -18q-14 0 -25 12t-21.5 27t-22.5 27t-27 12q-14 0 -26 -14.5t-21.5 -32.5t-16 -34.5t-9.5 -19.5q-5 -6 -16 -13.5
t-20 -11.5q-9 9 -18 21.5t-9 23.5q0 5 5.5 19t13 31.5t16 35.5t15.5 30q4 6 11.5 13.5t15.5 15t14.5 15.5t8.5 15q5 14 10 33t5 30q0 10 -3 15.5t-8 14.5q-5 0 -10.5 -3t-10.5 -5q-12 -13 -25.5 -24.5t-24.5 -23.5t-18 -24.5t-6 -25.5q-2 -1 -3 -5t-12 -4q-8 0 -14.5 8
t-11.5 18t-7.5 18.5t-2.5 10.5q0 18 18 43.5t42.5 49t50 40.5t40.5 17q18 0 29 -8t17.5 -21.5t8.5 -30t2 -34.5q-1 -41 -14 -94q15 -20 35 -40t34 -43h2q4 0 8 1q10 11 18 31.5t15 42.5t12 42t9 32q8 23 21 50t27 54q18 -7 29.5 -23t11.5 -28z" />
    <glyph glyph-name="yoyakthai" unicode="&#xc2;" horiz-adv-x="395" 
d="M348 366q0 -17 -9.5 -51.5t-21.5 -70.5t-23.5 -66t-14.5 -39q-3 -10 -9 -27.5t-13 -29.5q-2 -2 -13.5 -15t-27 -27t-31 -25.5t-24.5 -11.5q-8 0 -18 7.5t-16 15.5q-14 18 -15 34t3 30.5t9.5 28t5.5 27.5v16q0 4 -3.5 5t-8 0.5t-10 -1.5t-9.5 0q-7 2 -17 9.5t-19 18.5
t-15.5 23t-6.5 23q0 5 6 18.5t16.5 30.5t23.5 35.5t27.5 34t29 25.5t26.5 10q25 0 32 -12.5t7 -32.5q0 -5 -3 -16.5t-7.5 -25.5t-10 -28.5t-9.5 -24.5q-8 5 -17 16.5t-20 11.5q-16 0 -25.5 -16t-14.5 -30q19 0 28.5 1t14.5 2.5t8 2.5t8 1q22 0 32 -17.5t10 -35.5
q0 -11 -6.5 -33.5t-11.5 -48.5q13 9 27.5 29t27 43t23 47t16.5 42q4 12 6 28.5t5 33.5t9 34t18 29q9 -4 20 -10.5t11 -17.5z" />
    <glyph glyph-name="yoyakthai" unicode="&#xe22;" horiz-adv-x="395" 
d="M348 366q0 -17 -9.5 -51.5t-21.5 -70.5t-23.5 -66t-14.5 -39q-3 -10 -9 -27.5t-13 -29.5q-2 -2 -13.5 -15t-27 -27t-31 -25.5t-24.5 -11.5q-8 0 -18 7.5t-16 15.5q-14 18 -15 34t3 30.5t9.5 28t5.5 27.5v16q0 4 -3.5 5t-8 0.5t-10 -1.5t-9.5 0q-7 2 -17 9.5t-19 18.5
t-15.5 23t-6.5 23q0 5 6 18.5t16.5 30.5t23.5 35.5t27.5 34t29 25.5t26.5 10q25 0 32 -12.5t7 -32.5q0 -5 -3 -16.5t-7.5 -25.5t-10 -28.5t-9.5 -24.5q-8 5 -17 16.5t-20 11.5q-16 0 -25.5 -16t-14.5 -30q19 0 28.5 1t14.5 2.5t8 2.5t8 1q22 0 32 -17.5t10 -35.5
q0 -11 -6.5 -33.5t-11.5 -48.5q13 9 27.5 29t27 43t23 47t16.5 42q4 12 6 28.5t5 33.5t9 34t18 29q9 -4 20 -10.5t11 -17.5z" />
    <glyph glyph-name="roruathai" unicode="&#xc3;" horiz-adv-x="314" 
d="M377 316q-20 0 -27.5 1t-10 1.5t-4 1.5t-10.5 1t-28.5 -8t-36.5 -12q-11 -3 -26.5 -6t-31.5 -7t-30.5 -10t-23.5 -14q1 -17 3 -32t2 -30q0 -8 -3 -19.5t-4 -19.5q-1 -10 -11.5 -36.5t-25.5 -54t-31.5 -49t-28.5 -21.5q-8 0 -14.5 5.5t-11.5 13t-8 14t-3 9.5q0 16 15 33
t33 39t33 50.5t15 69.5q0 4 -5 14.5t-11 22.5t-11 22.5t-5 14.5q0 9 17.5 19t43.5 19.5t56.5 18t57.5 15t45.5 10t20.5 3.5q4 0 12.5 -1t17.5 -3t15.5 -5.5t6.5 -8.5q3 -12 9 -24t6 -22z" />
    <glyph glyph-name="roruathai" unicode="&#xe23;" horiz-adv-x="314" 
d="M377 316q-20 0 -27.5 1t-10 1.5t-4 1.5t-10.5 1t-28.5 -8t-36.5 -12q-11 -3 -26.5 -6t-31.5 -7t-30.5 -10t-23.5 -14q1 -17 3 -32t2 -30q0 -8 -3 -19.5t-4 -19.5q-1 -10 -11.5 -36.5t-25.5 -54t-31.5 -49t-28.5 -21.5q-8 0 -14.5 5.5t-11.5 13t-8 14t-3 9.5q0 16 15 33
t33 39t33 50.5t15 69.5q0 4 -5 14.5t-11 22.5t-11 22.5t-5 14.5q0 9 17.5 19t43.5 19.5t56.5 18t57.5 15t45.5 10t20.5 3.5q4 0 12.5 -1t17.5 -3t15.5 -5.5t6.5 -8.5q3 -12 9 -24t6 -22z" />
    <glyph glyph-name="ruthai" unicode="&#xc4;" horiz-adv-x="375" 
d="M329 231q0 -4 -3.5 -33.5t-8.5 -70t-11 -83t-10 -72.5q-5 -28 -13.5 -59.5t-16.5 -65.5q-1 -2 -2 -3q-3 -3 -10 -3q-5 0 -11 8.5t-11 19t-8.5 20t-3.5 11.5q0 4 3 14t7 22t8 25t6 23q7 32 14.5 75t14 82.5t10.5 68.5t4 34q0 32 -16 55t-48 23q-9 0 -26.5 -2t-29.5 -10
q-8 -5 -13.5 -15.5t-9.5 -22.5t-6 -23t-3 -18q-2 -16 -9 -31t-3 -30q2 -11 8 -26.5t2 -26.5q-4 -13 -16 -33t-23 -36q-15 9 -30 16t-15 25q0 4 5 28t12.5 56.5t16 66.5t16.5 59q2 7 5.5 18t6.5 23.5t5 23.5t2 18l6 8t13 4t14.5 -7.5t14.5 -7.5t29.5 5t29.5 5q9 0 27 -8
t32 -15q8 -5 21 -18.5t16 -27.5q3 -9 4.5 -22.5t2 -26.5t1 -24t0.5 -16z" />
    <glyph glyph-name="ruthai" unicode="&#xe24;" horiz-adv-x="375" 
d="M329 231q0 -4 -3.5 -33.5t-8.5 -70t-11 -83t-10 -72.5q-5 -28 -13.5 -59.5t-16.5 -65.5q-1 -2 -2 -3q-3 -3 -10 -3q-5 0 -11 8.5t-11 19t-8.5 20t-3.5 11.5q0 4 3 14t7 22t8 25t6 23q7 32 14.5 75t14 82.5t10.5 68.5t4 34q0 32 -16 55t-48 23q-9 0 -26.5 -2t-29.5 -10
q-8 -5 -13.5 -15.5t-9.5 -22.5t-6 -23t-3 -18q-2 -16 -9 -31t-3 -30q2 -11 8 -26.5t2 -26.5q-4 -13 -16 -33t-23 -36q-15 9 -30 16t-15 25q0 4 5 28t12.5 56.5t16 66.5t16.5 59q2 7 5.5 18t6.5 23.5t5 23.5t2 18l6 8t13 4t14.5 -7.5t14.5 -7.5t29.5 5t29.5 5q9 0 27 -8
t32 -15q8 -5 21 -18.5t16 -27.5q3 -9 4.5 -22.5t2 -26.5t1 -24t0.5 -16z" />
    <glyph glyph-name="lolingthai" unicode="&#xc5;" horiz-adv-x="332" 
d="M271 271q0 -5 -4.5 -35.5t-11 -71.5t-14 -86t-13.5 -78h-18q-15 14 -17 35.5t-1.5 41.5t-1.5 34t-15 14q-11 0 -21.5 -9t-20.5 -22t-19.5 -26t-18.5 -21q-2 -3 1 -9.5t4 -14.5q0 -5 -6.5 -14.5t-15.5 -9.5q-5 0 -13 4.5t-15.5 10.5t-13 12.5t-5.5 11.5q0 14 16.5 41
t39 53.5t46.5 46t39 19.5q8 0 12 -3t14 -3t13.5 2.5t5.5 6.5q6 20 9 42.5t3 32.5q0 7 -1 16t-4 17t-8.5 13.5t-14.5 5.5t-28.5 -11t-39 -27t-34.5 -34t-17 -32q-22 7 -31.5 20t-9.5 24q0 21 21.5 43.5t49.5 41.5t55 31t39 12q20 0 32.5 -16t20 -37t10 -42t2.5 -30z" />
    <glyph glyph-name="lolingthai" unicode="&#xe25;" horiz-adv-x="332" 
d="M271 271q0 -5 -4.5 -35.5t-11 -71.5t-14 -86t-13.5 -78h-18q-15 14 -17 35.5t-1.5 41.5t-1.5 34t-15 14q-11 0 -21.5 -9t-20.5 -22t-19.5 -26t-18.5 -21q-2 -3 1 -9.5t4 -14.5q0 -5 -6.5 -14.5t-15.5 -9.5q-5 0 -13 4.5t-15.5 10.5t-13 12.5t-5.5 11.5q0 14 16.5 41
t39 53.5t46.5 46t39 19.5q8 0 12 -3t14 -3t13.5 2.5t5.5 6.5q6 20 9 42.5t3 32.5q0 7 -1 16t-4 17t-8.5 13.5t-14.5 5.5t-28.5 -11t-39 -27t-34.5 -34t-17 -32q-22 7 -31.5 20t-9.5 24q0 21 21.5 43.5t49.5 41.5t55 31t39 12q20 0 32.5 -16t20 -37t10 -42t2.5 -30z" />
    <glyph glyph-name="luthai" unicode="&#xc6;" horiz-adv-x="419" 
d="M369 306q0 -4 -2 -20.5t-5.5 -38.5t-8.5 -46t-10 -44q-19 -71 -42.5 -141t-43.5 -140q0 -2 -2 -6.5t-5 -9.5t-7 -9t-9 -4h-18q0 5 -6 9.5t-6 15.5q0 4 11 35t26 73.5t30.5 89.5t24.5 83q3 11 6 30.5t5.5 39t4.5 35.5t2 21q0 4 -1 11t-3 14t-5.5 11.5t-9.5 4.5
q-19 0 -31.5 -20.5t-23 -51t-20.5 -66t-23.5 -66t-33 -51t-47.5 -20.5q-11 0 -23 10.5t-21.5 24t-15.5 25.5t-6 14q0 10 6.5 30.5t11.5 37.5h36q0 -11 -2 -24.5t-2 -24.5q0 -9 2.5 -14l6.5 -13h15q16 8 28.5 21.5t21 29t14 31.5t9.5 31q2 11 4.5 28t6.5 28q1 3 7.5 22t17 40
t23.5 38t28 17q4 0 13.5 -5t20 -12.5t21.5 -16.5t20 -17q-1 -8 4.5 -19t5.5 -21z" />
    <glyph glyph-name="luthai" unicode="&#xe26;" horiz-adv-x="419" 
d="M369 306q0 -4 -2 -20.5t-5.5 -38.5t-8.5 -46t-10 -44q-19 -71 -42.5 -141t-43.5 -140q0 -2 -2 -6.5t-5 -9.5t-7 -9t-9 -4h-18q0 5 -6 9.5t-6 15.5q0 4 11 35t26 73.5t30.5 89.5t24.5 83q3 11 6 30.5t5.5 39t4.5 35.5t2 21q0 4 -1 11t-3 14t-5.5 11.5t-9.5 4.5
q-19 0 -31.5 -20.5t-23 -51t-20.5 -66t-23.5 -66t-33 -51t-47.5 -20.5q-11 0 -23 10.5t-21.5 24t-15.5 25.5t-6 14q0 10 6.5 30.5t11.5 37.5h36q0 -11 -2 -24.5t-2 -24.5q0 -9 2.5 -14l6.5 -13h15q16 8 28.5 21.5t21 29t14 31.5t9.5 31q2 11 4.5 28t6.5 28q1 3 7.5 22t17 40
t23.5 38t28 17q4 0 13.5 -5t20 -12.5t21.5 -16.5t20 -17q-1 -8 4.5 -19t5.5 -21z" />
    <glyph glyph-name="wowaenthai" unicode="&#xc7;" horiz-adv-x="322" 
d="M259 289q0 -9 -4.5 -34t-13 -57.5t-20.5 -67.5t-28 -64.5t-35.5 -48.5t-41.5 -19q-7 0 -17 13t-19 28.5t-15.5 29t-6.5 14.5q0 10 4.5 17t9.5 11.5t10 6t7 1.5q10 0 17.5 -6t18.5 -6q12 0 26.5 22t26.5 49q14 32 28 72v64q-5 0 -5.5 2.5t-11.5 2.5q-17 0 -31 -11.5
t-26 -27t-23.5 -32t-21.5 -25.5h-34q0 5 -3.5 10t-3.5 17q0 20 18.5 48.5t44 53t53.5 39t47 7.5q9 -14 18 -30.5t16 -32t11.5 -28t4.5 -18.5z" />
    <glyph glyph-name="wowaenthai" unicode="&#xe27;" horiz-adv-x="322" 
d="M259 289q0 -9 -4.5 -34t-13 -57.5t-20.5 -67.5t-28 -64.5t-35.5 -48.5t-41.5 -19q-7 0 -17 13t-19 28.5t-15.5 29t-6.5 14.5q0 10 4.5 17t9.5 11.5t10 6t7 1.5q10 0 17.5 -6t18.5 -6q12 0 26.5 22t26.5 49q14 32 28 72v64q-5 0 -5.5 2.5t-11.5 2.5q-17 0 -31 -11.5
t-26 -27t-23.5 -32t-21.5 -25.5h-34q0 5 -3.5 10t-3.5 17q0 20 18.5 48.5t44 53t53.5 39t47 7.5q9 -14 18 -30.5t16 -32t11.5 -28t4.5 -18.5z" />
    <glyph glyph-name="sosalathai" unicode="&#xc8;" horiz-adv-x="420" 
d="M466 443q0 -4 -15.5 -24t-37 -47t-44.5 -57t-37 -55q-2 -4 -2.5 -12t-0.5 -17.5v-19.5t-2 -17l-4.5 -18t-9 -33t-12 -39.5t-13 -37.5t-13 -28.5t-11.5 -11.5q-8 0 -13 5t-8 11t-4 11.5l-1 5.5q0 5 5 19.5t10.5 30.5t10.5 30.5t5 19.5v18h-6q-20 -17 -38 -36.5
t-34.5 -39.5t-31.5 -39t-29 -34v-3q0 -4 4 -7l-18 -18q-7 4 -16.5 11t-15.5 11q-1 11 -6.5 28.5t-5.5 27.5q0 4 1.5 19.5t4 36t4.5 42.5t4 39q0 5 3.5 15.5t7 22.5t7.5 24.5t6 21.5q3 14 16.5 28t31.5 25.5t37.5 18.5t34.5 7q11 0 31 -4.5t42 -31.5q17 13 38.5 33t42.5 39
t39.5 32.5t30.5 14.5q4 -4 8 -6t4 -12zM259 293q-4 5 -6 9t-12 4q-20 0 -39 -13.5t-34 -32.5t-24 -39t-9 -33v-32q39 38 73.5 70t50.5 67z" />
    <glyph glyph-name="sosalathai" unicode="&#xe28;" horiz-adv-x="420" 
d="M466 443q0 -4 -15.5 -24t-37 -47t-44.5 -57t-37 -55q-2 -4 -2.5 -12t-0.5 -17.5v-19.5t-2 -17l-4.5 -18t-9 -33t-12 -39.5t-13 -37.5t-13 -28.5t-11.5 -11.5q-8 0 -13 5t-8 11t-4 11.5l-1 5.5q0 5 5 19.5t10.5 30.5t10.5 30.5t5 19.5v18h-6q-20 -17 -38 -36.5
t-34.5 -39.5t-31.5 -39t-29 -34v-3q0 -4 4 -7l-18 -18q-7 4 -16.5 11t-15.5 11q-1 11 -6.5 28.5t-5.5 27.5q0 4 1.5 19.5t4 36t4.5 42.5t4 39q0 5 3.5 15.5t7 22.5t7.5 24.5t6 21.5q3 14 16.5 28t31.5 25.5t37.5 18.5t34.5 7q11 0 31 -4.5t42 -31.5q17 13 38.5 33t42.5 39
t39.5 32.5t30.5 14.5q4 -4 8 -6t4 -12zM259 293q-4 5 -6 9t-12 4q-20 0 -39 -13.5t-34 -32.5t-24 -39t-9 -33v-32q39 38 73.5 70t50.5 67z" />
    <glyph glyph-name="sorusithai" unicode="&#xc9;" horiz-adv-x="425" 
d="M399 280q-14 -11 -34.5 -21t-33.5 -25q-8 -10 -10.5 -24t-4.5 -26q-3 -18 -15 -48.5t-31 -60t-41.5 -51.5t-46.5 -22q-21 0 -37.5 12.5t-27.5 28.5t-16.5 32t-5.5 23q0 5 4.5 27t11 51.5t13 60.5t11.5 54q-2 2 -2.5 3.5t-1.5 3t-3 2t-8 0.5q-5 0 -13.5 -7.5t-18 -18.5
t-18 -22.5t-11.5 -18.5q-3 3 -9 8.5t-12.5 12.5t-11 14t-4.5 12q0 10 4 16t5 13q2 12 16 25t33 24.5t38.5 18.5t32.5 7q14 0 21 -15.5t10 -36t4 -40t3 -26.5q26 12 49 25t47 30q1 4 0.5 16.5t0.5 25.5t6 23t17 10q15 0 21.5 -7t9.5 -17.5t3.5 -21.5t2.5 -18q5 -8 16.5 -13
t22.5 -11q1 -2 5 -11t9 -17zM263 204q-8 0 -19 -5.5t-19 -5.5q-11 0 -23.5 12.5t-25.5 21.5q-5 -17 -10 -37.5t-9.5 -40t-7.5 -34.5t-3 -20q0 -10 8 -15t17 -5t24.5 13.5t30.5 32t26 36.5t11 27v20z" />
    <glyph glyph-name="sorusithai" unicode="&#xe29;" horiz-adv-x="425" 
d="M399 280q-14 -11 -34.5 -21t-33.5 -25q-8 -10 -10.5 -24t-4.5 -26q-3 -18 -15 -48.5t-31 -60t-41.5 -51.5t-46.5 -22q-21 0 -37.5 12.5t-27.5 28.5t-16.5 32t-5.5 23q0 5 4.5 27t11 51.5t13 60.5t11.5 54q-2 2 -2.5 3.5t-1.5 3t-3 2t-8 0.5q-5 0 -13.5 -7.5t-18 -18.5
t-18 -22.5t-11.5 -18.5q-3 3 -9 8.5t-12.5 12.5t-11 14t-4.5 12q0 10 4 16t5 13q2 12 16 25t33 24.5t38.5 18.5t32.5 7q14 0 21 -15.5t10 -36t4 -40t3 -26.5q26 12 49 25t47 30q1 4 0.5 16.5t0.5 25.5t6 23t17 10q15 0 21.5 -7t9.5 -17.5t3.5 -21.5t2.5 -18q5 -8 16.5 -13
t22.5 -11q1 -2 5 -11t9 -17zM263 204q-8 0 -19 -5.5t-19 -5.5q-11 0 -23.5 12.5t-25.5 21.5q-5 -17 -10 -37.5t-9.5 -40t-7.5 -34.5t-3 -20q0 -10 8 -15t17 -5t24.5 13.5t30.5 32t26 36.5t11 27v20z" />
    <glyph glyph-name="sosuathai" unicode="&#xca;" horiz-adv-x="387" 
d="M436 444q0 -11 -6 -21t-15.5 -20t-21 -20t-23.5 -21q-6 -5 -13 -16.5t-14 -19.5q-17 -23 -31 -41.5t-20 -44.5q-2 -9 -5.5 -24t-4.5 -26q-6 -46 -20 -94.5t-18 -93.5h-26q-9 -1 -12 8.5t-8 17.5q-2 12 2 31t6 36q0 3 -0.5 10t-3 14t-7.5 12.5t-13 5.5q-3 0 -14.5 -9.5
t-23.5 -22t-22.5 -25.5t-12.5 -19h50v-38q-10 -8 -26.5 -15t-25.5 -7q-11 0 -21 6.5t-18.5 15.5t-13.5 19.5t-5 19.5q0 22 14.5 46t35 44t43 33t38.5 13q14 0 21.5 -5t21.5 -21q15 9 16 26t1 32q0 4 1 14t0.5 19.5t-4 17t-12.5 7.5q-15 0 -31.5 -9.5t-31.5 -22.5t-27 -26.5
t-18 -21.5q-15 9 -24 16t-9 21q0 8 1 17.5t6 14.5q11 13 28 28.5t36.5 28.5t39.5 21.5t35 8.5q8 0 19.5 -7.5t20.5 -7.5q4 0 20 19.5t37 43t43.5 43t38.5 19.5q17 0 22 -11t5 -19z" />
    <glyph glyph-name="sosuathai" unicode="&#xe2a;" horiz-adv-x="387" 
d="M436 444q0 -11 -6 -21t-15.5 -20t-21 -20t-23.5 -21q-6 -5 -13 -16.5t-14 -19.5q-17 -23 -31 -41.5t-20 -44.5q-2 -9 -5.5 -24t-4.5 -26q-6 -46 -20 -94.5t-18 -93.5h-26q-9 -1 -12 8.5t-8 17.5q-2 12 2 31t6 36q0 3 -0.5 10t-3 14t-7.5 12.5t-13 5.5q-3 0 -14.5 -9.5
t-23.5 -22t-22.5 -25.5t-12.5 -19h50v-38q-10 -8 -26.5 -15t-25.5 -7q-11 0 -21 6.5t-18.5 15.5t-13.5 19.5t-5 19.5q0 22 14.5 46t35 44t43 33t38.5 13q14 0 21.5 -5t21.5 -21q15 9 16 26t1 32q0 4 1 14t0.5 19.5t-4 17t-12.5 7.5q-15 0 -31.5 -9.5t-31.5 -22.5t-27 -26.5
t-18 -21.5q-15 9 -24 16t-9 21q0 8 1 17.5t6 14.5q11 13 28 28.5t36.5 28.5t39.5 21.5t35 8.5q8 0 19.5 -7.5t20.5 -7.5q4 0 20 19.5t37 43t43.5 43t38.5 19.5q17 0 22 -11t5 -19z" />
    <glyph glyph-name="hohipthai" unicode="&#xcb;" horiz-adv-x="443" 
d="M412 363q0 -23 -12.5 -42.5t-33.5 -51.5q-9 -14 -18 -34t-16.5 -40t-12.5 -36t-5 -21q0 -32 8 -44t17.5 -17t17.5 -8.5t8 -17.5q0 -8 -5.5 -13.5t-13 -9.5t-14 -6t-7.5 -2q-11 0 -17 6t-9 7q-11 10 -22.5 28.5t-16.5 34.5q2 1 2 2q0 3 -9 3q-7 0 -16.5 -15.5t-22 -34
t-27.5 -34t-32 -15.5q-13 0 -23.5 7t-17.5 17t-10.5 21t-3.5 19q0 3 3 16t7.5 31l9.5 38l9.5 38t7.5 31t3 17v39l-9 9q-19 -10 -31 -27t-6 -35q-20 2 -33 18t-13 36q0 17 8.5 34t22 30.5t30.5 22t34 8.5q18 0 29 -11t17 -25.5t7.5 -29.5t1.5 -24q0 -5 -4.5 -26.5t-10 -46.5
t-10 -46.5t-4.5 -27.5l6 -14q0 -7 8 -2.5t13 15.5q17 31 40 64t39 61q19 32 39.5 66.5t46.5 69.5h43q8 -8 8 -32z" />
    <glyph glyph-name="hohipthai" unicode="&#xe2b;" horiz-adv-x="443" 
d="M412 363q0 -23 -12.5 -42.5t-33.5 -51.5q-9 -14 -18 -34t-16.5 -40t-12.5 -36t-5 -21q0 -32 8 -44t17.5 -17t17.5 -8.5t8 -17.5q0 -8 -5.5 -13.5t-13 -9.5t-14 -6t-7.5 -2q-11 0 -17 6t-9 7q-11 10 -22.5 28.5t-16.5 34.5q2 1 2 2q0 3 -9 3q-7 0 -16.5 -15.5t-22 -34
t-27.5 -34t-32 -15.5q-13 0 -23.5 7t-17.5 17t-10.5 21t-3.5 19q0 3 3 16t7.5 31l9.5 38l9.5 38t7.5 31t3 17v39l-9 9q-19 -10 -31 -27t-6 -35q-20 2 -33 18t-13 36q0 17 8.5 34t22 30.5t30.5 22t34 8.5q18 0 29 -11t17 -25.5t7.5 -29.5t1.5 -24q0 -5 -4.5 -26.5t-10 -46.5
t-10 -46.5t-4.5 -27.5l6 -14q0 -7 8 -2.5t13 15.5q17 31 40 64t39 61q19 32 39.5 66.5t46.5 69.5h43q8 -8 8 -32z" />
    <glyph glyph-name="lochulathai" unicode="&#xcc;" horiz-adv-x="440" 
d="M554 424q0 -5 -15.5 -20t-37 -35t-44.5 -43t-38 -44q-3 -4 -5.5 -11.5t-4 -15.5l-3 -16t-2.5 -13q0 -1 -5.5 -18.5t-14.5 -42.5t-20.5 -53.5t-23.5 -53t-24 -41t-22 -16.5q-21 0 -31 13.5t-15 31.5t-7.5 36t-7.5 27q-11 -11 -19.5 -26.5t-16.5 -30t-16.5 -24.5t-19.5 -10
q-18 0 -31 16.5t-22 42.5q-2 43 2.5 88.5t0.5 93.5q-10 -6 -21 -24.5t-21.5 -39t-19.5 -36t-15 -15.5q-8 0 -16.5 10t-8.5 21t7 32t18 45t24.5 48.5t27.5 43.5t26 30t21 8q24 -23 29.5 -55.5t3 -69.5t-7 -75.5t0.5 -72.5q11 5 19.5 17.5t15.5 27.5t12.5 30t11.5 27q1 3 7 19
t14 34t17 32t18 14t15.5 -7.5t10 -17t5.5 -18.5t2 -12q0 -5 -3 -20.5t-7 -33t-7 -33t-3 -21.5v-51q-1 -1 -1 -2q0 -2 8 -2q10 0 22.5 21t24 50t21.5 59l16 48q-5 9 -17 14.5t-18 10.5q-10 8 -15.5 23t-5.5 26q0 18 8 36t19 33t23.5 24.5t20.5 9.5q6 0 12.5 -6.5t12.5 -14
t11 -13.5t9 -6q5 0 17.5 7t26 16t25.5 16t17 7q12 0 21 -9t9 -20z" />
    <glyph glyph-name="lochulathai" unicode="&#xe2c;" horiz-adv-x="440" 
d="M554 424q0 -5 -15.5 -20t-37 -35t-44.5 -43t-38 -44q-3 -4 -5.5 -11.5t-4 -15.5l-3 -16t-2.5 -13q0 -1 -5.5 -18.5t-14.5 -42.5t-20.5 -53.5t-23.5 -53t-24 -41t-22 -16.5q-21 0 -31 13.5t-15 31.5t-7.5 36t-7.5 27q-11 -11 -19.5 -26.5t-16.5 -30t-16.5 -24.5t-19.5 -10
q-18 0 -31 16.5t-22 42.5q-2 43 2.5 88.5t0.5 93.5q-10 -6 -21 -24.5t-21.5 -39t-19.5 -36t-15 -15.5q-8 0 -16.5 10t-8.5 21t7 32t18 45t24.5 48.5t27.5 43.5t26 30t21 8q24 -23 29.5 -55.5t3 -69.5t-7 -75.5t0.5 -72.5q11 5 19.5 17.5t15.5 27.5t12.5 30t11.5 27q1 3 7 19
t14 34t17 32t18 14t15.5 -7.5t10 -17t5.5 -18.5t2 -12q0 -5 -3 -20.5t-7 -33t-7 -33t-3 -21.5v-51q-1 -1 -1 -2q0 -2 8 -2q10 0 22.5 21t24 50t21.5 59l16 48q-5 9 -17 14.5t-18 10.5q-10 8 -15.5 23t-5.5 26q0 18 8 36t19 33t23.5 24.5t20.5 9.5q6 0 12.5 -6.5t12.5 -14
t11 -13.5t9 -6q5 0 17.5 7t26 16t25.5 16t17 7q12 0 21 -9t9 -20z" />
    <glyph glyph-name="oangthai" unicode="&#xcd;" horiz-adv-x="356" 
d="M310 283q0 -9 -8.5 -24.5t-14.5 -38.5q-7 -24 -14.5 -53.5t-21.5 -55.5q-6 -11 -18.5 -29.5t-25.5 -36t-25.5 -30.5t-18.5 -13q-15 0 -25 13t-15 29.5t-7 30t-2 15.5q0 18 8 44.5t21.5 55t31.5 54.5t38 44q1 1 12.5 6t17.5 19q-4 4 -5 9t-11 5q-4 0 -16 -3t-26 -8
t-28.5 -10.5t-23.5 -11.5q-11 -6 -23.5 -17.5t-24.5 -23.5t-21.5 -20.5t-14.5 -8.5q-7 0 -12 3.5t-8.5 8.5t-5.5 10t-2 8q0 8 6.5 19.5t16 23.5t20.5 22.5t20 18.5q18 15 33 25.5t29.5 17.5t30.5 10t37 3q18 0 30.5 -3t21 -12t14 -24.5t10.5 -40.5q2 -7 11 -15t9 -16z
M226 198q-6 -8 -15 -18t-16.5 -20.5t-13 -19t-5.5 -12.5v-18l17 17t16.5 18t12 16.5t4.5 12.5v24z" />
    <glyph glyph-name="oangthai" unicode="&#xe2d;" horiz-adv-x="356" 
d="M310 283q0 -9 -8.5 -24.5t-14.5 -38.5q-7 -24 -14.5 -53.5t-21.5 -55.5q-6 -11 -18.5 -29.5t-25.5 -36t-25.5 -30.5t-18.5 -13q-15 0 -25 13t-15 29.5t-7 30t-2 15.5q0 18 8 44.5t21.5 55t31.5 54.5t38 44q1 1 12.5 6t17.5 19q-4 4 -5 9t-11 5q-4 0 -16 -3t-26 -8
t-28.5 -10.5t-23.5 -11.5q-11 -6 -23.5 -17.5t-24.5 -23.5t-21.5 -20.5t-14.5 -8.5q-7 0 -12 3.5t-8.5 8.5t-5.5 10t-2 8q0 8 6.5 19.5t16 23.5t20.5 22.5t20 18.5q18 15 33 25.5t29.5 17.5t30.5 10t37 3q18 0 30.5 -3t21 -12t14 -24.5t10.5 -40.5q2 -7 11 -15t9 -16z
M226 198q-6 -8 -15 -18t-16.5 -20.5t-13 -19t-5.5 -12.5v-18l17 17t16.5 18t12 16.5t4.5 12.5v24z" />
    <glyph glyph-name="honokhukthai" unicode="&#xce;" horiz-adv-x="363" 
d="M448 431q0 -8 -11 -19t-27 -22.5t-35 -23t-35 -21t-27.5 -16.5t-11.5 -10q-7 -35 -16.5 -75t-21.5 -85q-3 -13 -16.5 -32.5t-20.5 -37.5q-17 -40 -41.5 -63t-50.5 -23q-19 0 -32 10t-21.5 23.5t-12 28.5t-3.5 25q0 29 9 60t20.5 57.5t20.5 44.5t9 22t-5 13t-11 19.5
t-11 20t-5 14.5q0 19 13 39.5t31 37t38 27t35 10.5q25 0 37 -8.5t18.5 -18t11.5 -18t15 -8.5q5 0 20.5 8.5t33 18t33 18t20.5 8.5h44q0 -5 3 -9t3 -15zM246 372q-4 5 -6 10t-6 9h-22q-5 0 -12.5 -5t-15 -12.5t-14 -15.5t-9.5 -14h34q10 -1 24.5 9.5t26.5 18.5zM250 290
q-8 -3 -16.5 -11t-8.5 -18t2.5 -12t8.5 -7q6 8 10 19.5t4 28.5zM224 194q-12 8 -25.5 20.5t-25.5 16.5q-2 -5 -11 -22.5t-19 -38.5t-17.5 -40.5t-7.5 -28.5q0 -22 7 -29h18q40 28 60.5 63.5t20.5 58.5z" />
    <glyph glyph-name="honokhukthai" unicode="&#xe2e;" horiz-adv-x="363" 
d="M448 431q0 -8 -11 -19t-27 -22.5t-35 -23t-35 -21t-27.5 -16.5t-11.5 -10q-7 -35 -16.5 -75t-21.5 -85q-3 -13 -16.5 -32.5t-20.5 -37.5q-17 -40 -41.5 -63t-50.5 -23q-19 0 -32 10t-21.5 23.5t-12 28.5t-3.5 25q0 29 9 60t20.5 57.5t20.5 44.5t9 22t-5 13t-11 19.5
t-11 20t-5 14.5q0 19 13 39.5t31 37t38 27t35 10.5q25 0 37 -8.5t18.5 -18t11.5 -18t15 -8.5q5 0 20.5 8.5t33 18t33 18t20.5 8.5h44q0 -5 3 -9t3 -15zM246 372q-4 5 -6 10t-6 9h-22q-5 0 -12.5 -5t-15 -12.5t-14 -15.5t-9.5 -14h34q10 -1 24.5 9.5t26.5 18.5zM250 290
q-8 -3 -16.5 -11t-8.5 -18t2.5 -12t8.5 -7q6 8 10 19.5t4 28.5zM224 194q-12 8 -25.5 20.5t-25.5 16.5q-2 -5 -11 -22.5t-19 -38.5t-17.5 -40.5t-7.5 -28.5q0 -22 7 -29h18q40 28 60.5 63.5t20.5 58.5z" />
    <glyph glyph-name="paiyannoithai" unicode="&#xcf;" horiz-adv-x="331" 
d="M285 286q0 -5 -10 -37.5t-24.5 -76.5t-31 -92t-29.5 -83h-17q-4 4 -7.5 8.5t-3.5 13.5q0 8 7 20.5t11 24.5q11 44 20.5 88t20.5 89l-8 8q-18 -9 -31 -18t-24.5 -16t-23 -11.5t-27.5 -4.5t-28.5 9.5t-21.5 22.5t-14 26.5t-5 20.5q0 4 3.5 23t10 40.5t15.5 38.5t20 17
q23 0 31 -19.5t8 -43.5t-4 -44.5t-5 -23.5q4 -3 5 -5t10 -2q17 0 35 14t35 30.5t31 30.5t22 14q9 0 15 -4q3 -2 5 -3q0 -10 5 -28t5 -27zM106 273q-7 0 -7.5 -7.5t6.5 -11.5q4 8 2.5 11.5t-1.5 7.5z" />
    <glyph glyph-name="paiyannoithai" unicode="&#xe2f;" horiz-adv-x="331" 
d="M285 286q0 -5 -10 -37.5t-24.5 -76.5t-31 -92t-29.5 -83h-17q-4 4 -7.5 8.5t-3.5 13.5q0 8 7 20.5t11 24.5q11 44 20.5 88t20.5 89l-8 8q-18 -9 -31 -18t-24.5 -16t-23 -11.5t-27.5 -4.5t-28.5 9.5t-21.5 22.5t-14 26.5t-5 20.5q0 4 3.5 23t10 40.5t15.5 38.5t20 17
q23 0 31 -19.5t8 -43.5t-4 -44.5t-5 -23.5q4 -3 5 -5t10 -2q17 0 35 14t35 30.5t31 30.5t22 14q9 0 15 -4q3 -2 5 -3q0 -10 5 -28t5 -27zM106 273q-7 0 -7.5 -7.5t6.5 -11.5q4 8 2.5 11.5t-1.5 7.5z" />
    <glyph glyph-name="saraathai" unicode="&#xd0;" horiz-adv-x="328" 
d="M301 317q-35 -11 -76 -36t-76 -48q-3 -2 -7 -7t-8.5 -10t-9.5 -9t-12 -4q-6 0 -13.5 5t-14 11.5t-11.5 14.5t-5 14q0 14 13 29t33 29.5t43.5 28t44.5 23.5t36.5 16t18.5 6q12 0 23.5 -5.5t20.5 -14.5v-43zM232 115q0 -12 -3.5 -18.5t-5.5 -11.5q-12 -11 -33 -25t-42 -27
t-38.5 -22t-22.5 -9t-12.5 4t-14.5 9.5t-12 12t-5 11.5q0 15 22 33t50 33t53.5 25t32.5 10q16 0 23.5 -7.5t7.5 -17.5z" />
    <glyph glyph-name="saraathai" unicode="&#xe30;" horiz-adv-x="328" 
d="M301 317q-35 -11 -76 -36t-76 -48q-3 -2 -7 -7t-8.5 -10t-9.5 -9t-12 -4q-6 0 -13.5 5t-14 11.5t-11.5 14.5t-5 14q0 14 13 29t33 29.5t43.5 28t44.5 23.5t36.5 16t18.5 6q12 0 23.5 -5.5t20.5 -14.5v-43zM232 115q0 -12 -3.5 -18.5t-5.5 -11.5q-12 -11 -33 -25t-42 -27
t-38.5 -22t-22.5 -9t-12.5 4t-14.5 9.5t-12 12t-5 11.5q0 15 22 33t50 33t53.5 25t32.5 10q16 0 23.5 -7.5t7.5 -17.5z" />
    <glyph glyph-name="maihanakatthai" unicode="&#xd1;" horiz-adv-x="15" 
d="M220 566q0 -5 -5.5 -15t-6.5 -14q-19 -10 -47 -23t-55.5 -24.5t-49 -19.5t-26.5 -8h-51q-17 0 -35.5 5t-35 16.5t-27 29.5t-10.5 45q0 6 0.5 15.5t4.5 19t12 16t22 6.5q22 0 34 -12.5t19.5 -27.5t14.5 -27.5t19 -12.5q9 0 17.5 3.5t18.5 3.5q8 0 24 5.5t27 9.5
q7 2 16.5 2t20 1t20.5 3t19 7q8 5 15 15t17 10t17 -9.5t11 -19.5z" />
    <glyph glyph-name="maihanakatthai" unicode="&#xe31;" horiz-adv-x="15" 
d="M220 566q0 -5 -5.5 -15t-6.5 -14q-19 -10 -47 -23t-55.5 -24.5t-49 -19.5t-26.5 -8h-51q-17 0 -35.5 5t-35 16.5t-27 29.5t-10.5 45q0 6 0.5 15.5t4.5 19t12 16t22 6.5q22 0 34 -12.5t19.5 -27.5t14.5 -27.5t19 -12.5q9 0 17.5 3.5t18.5 3.5q8 0 24 5.5t27 9.5
q7 2 16.5 2t20 1t20.5 3t19 7q8 5 15 15t17 10t17 -9.5t11 -19.5z" />
    <glyph glyph-name="saraaathai" unicode="&#xd2;" horiz-adv-x="312" 
d="M236 321q0 -43 -19 -87t-38 -87q-4 -10 -11.5 -25.5t-12.5 -32t-5 -31.5t10 -24q1 -2 1 -5q0 -6 -1 -8q-6 -8 -9.5 -15.5t-16.5 -7.5q-7 0 -14 4t-13 10t-9.5 12.5t-3.5 10.5q0 9 3.5 21t5.5 19q10 45 30.5 91t37.5 93q5 13 8.5 23t-2.5 27q-22 -12 -44 -27t-40 -28
q-4 -2 -5.5 -8.5t-5.5 -9.5q-7 -1 -14.5 -3.5t-17.5 -2.5q-9 0 -16.5 6t-7.5 15q0 7 9.5 21t24.5 30.5t33.5 33.5t36.5 30.5t34.5 22.5t26.5 9q17 0 26.5 -10t13.5 -23t4.5 -26t0.5 -18z" />
    <glyph glyph-name="saraaathai" unicode="&#xe32;" horiz-adv-x="312" 
d="M236 321q0 -43 -19 -87t-38 -87q-4 -10 -11.5 -25.5t-12.5 -32t-5 -31.5t10 -24q1 -2 1 -5q0 -6 -1 -8q-6 -8 -9.5 -15.5t-16.5 -7.5q-7 0 -14 4t-13 10t-9.5 12.5t-3.5 10.5q0 9 3.5 21t5.5 19q10 45 30.5 91t37.5 93q5 13 8.5 23t-2.5 27q-22 -12 -44 -27t-40 -28
q-4 -2 -5.5 -8.5t-5.5 -9.5q-7 -1 -14.5 -3.5t-17.5 -2.5q-9 0 -16.5 6t-7.5 15q0 7 9.5 21t24.5 30.5t33.5 33.5t36.5 30.5t34.5 22.5t26.5 9q17 0 26.5 -10t13.5 -23t4.5 -26t0.5 -18z" />
    <glyph glyph-name="saraamthai" unicode="&#xd3;" horiz-adv-x="356" 
d="M278 301q0 -32 -7 -67.5t-17 -71.5t-21 -71t-19 -65q-3 -5 -12.5 -14.5l-14.5 -14.5q-5 2 -11.5 6.5t-12.5 10.5t-10 12t-4 12t9.5 30.5t21 52.5t21.5 52.5t10 30.5v85q-5 0 -6.5 2.5t-14.5 2.5q-6 0 -14.5 -6.5t-17.5 -14t-17.5 -13.5t-14.5 -6q-12 0 -24.5 11t-12.5 23
q0 20 14.5 38t34 32t39.5 22.5t30 8.5q20 0 33.5 -11t22 -25.5t12 -29t3.5 -22.5zM19 579q0 -8 -7.5 -22.5t-19 -29t-25 -25.5t-26.5 -11q-9 0 -20.5 5.5t-22 14.5t-18 20t-7.5 22q0 23 15 36.5t42 36.5q5 5 14.5 6t19.5 1q26 0 40.5 -16t14.5 -38zM-40 590
q-11 -7 -21.5 -18t-10.5 -19q0 -9 2 -10t6 -5q15 11 26.5 26t15.5 26h-18z" />
    <glyph glyph-name="saraamthai" unicode="&#xe33;" horiz-adv-x="356" 
d="M278 301q0 -32 -7 -67.5t-17 -71.5t-21 -71t-19 -65q-3 -5 -12.5 -14.5l-14.5 -14.5q-5 2 -11.5 6.5t-12.5 10.5t-10 12t-4 12t9.5 30.5t21 52.5t21.5 52.5t10 30.5v85q-5 0 -6.5 2.5t-14.5 2.5q-6 0 -14.5 -6.5t-17.5 -14t-17.5 -13.5t-14.5 -6q-12 0 -24.5 11t-12.5 23
q0 20 14.5 38t34 32t39.5 22.5t30 8.5q20 0 33.5 -11t22 -25.5t12 -29t3.5 -22.5zM19 579q0 -8 -7.5 -22.5t-19 -29t-25 -25.5t-26.5 -11q-9 0 -20.5 5.5t-22 14.5t-18 20t-7.5 22q0 23 15 36.5t42 36.5q5 5 14.5 6t19.5 1q26 0 40.5 -16t14.5 -38zM-40 590
q-11 -7 -21.5 -18t-10.5 -19q0 -9 2 -10t6 -5q15 11 26.5 26t15.5 26h-18z" />
    <glyph glyph-name="saraithai" unicode="&#xd4;" 
d="M23 481q-4 -4 -4.5 -11t-11.5 -7q-9 0 -25 5.5t-27 5.5q-15 0 -20.5 -4t-9 -9.5t-9.5 -9.5t-23 -4q-5 0 -19.5 2.5t-30 5.5t-29.5 5.5t-19 2.5t-16 -1.5t-22.5 -4t-22 -4t-15.5 -1.5q-14 0 -19.5 7t-7 16.5t-2 19.5t-4.5 16q38 14 91.5 24t101.5 10q4 0 15.5 -1.5
t26.5 -3.5t30 -6t25 -8q8 -3 17.5 -10t16.5 -10q2 -5 7.5 -13t5.5 -12z" />
    <glyph glyph-name="saraithai" unicode="&#xe34;" 
d="M23 481q-4 -4 -4.5 -11t-11.5 -7q-9 0 -25 5.5t-27 5.5q-15 0 -20.5 -4t-9 -9.5t-9.5 -9.5t-23 -4q-5 0 -19.5 2.5t-30 5.5t-29.5 5.5t-19 2.5t-16 -1.5t-22.5 -4t-22 -4t-15.5 -1.5q-14 0 -19.5 7t-7 16.5t-2 19.5t-4.5 16q38 14 91.5 24t101.5 10q4 0 15.5 -1.5
t26.5 -3.5t30 -6t25 -8q8 -3 17.5 -10t16.5 -10q2 -5 7.5 -13t5.5 -12z" />
    <glyph glyph-name="saraiithai" unicode="&#xd5;" horiz-adv-x="30" 
d="M49 665q0 -14 -11 -25.5t-23 -33.5q-7 -12 -11 -29t-9 -35t-12.5 -35.5t-20.5 -29.5q-22 13 -32.5 26.5t-19.5 24.5t-21 18t-37 7q-13 0 -28.5 -0.5t-29.5 -14.5v-10q13 -2 25.5 -1t25 1.5t26 -3t28.5 -14.5q-3 -5 -10 -11.5t-15 -6.5q-5 0 -13 -1.5t-17.5 -3t-18 -2.5
t-13.5 -1q-15 0 -31.5 2t-30 8t-22 16.5t-8.5 27.5q0 18 14 31t33 20.5t39 11t31 3.5q13 0 25 -1.5t24.5 -6t26 -14.5t29.5 -26q14 10 20 30q1 3 7 19.5t15 35t20.5 33t24.5 14.5q17 0 18.5 -9t1.5 -15z" />
    <glyph glyph-name="saraiithai" unicode="&#xe35;" horiz-adv-x="30" 
d="M49 665q0 -14 -11 -25.5t-23 -33.5q-7 -12 -11 -29t-9 -35t-12.5 -35.5t-20.5 -29.5q-22 13 -32.5 26.5t-19.5 24.5t-21 18t-37 7q-13 0 -28.5 -0.5t-29.5 -14.5v-10q13 -2 25.5 -1t25 1.5t26 -3t28.5 -14.5q-3 -5 -10 -11.5t-15 -6.5q-5 0 -13 -1.5t-17.5 -3t-18 -2.5
t-13.5 -1q-15 0 -31.5 2t-30 8t-22 16.5t-8.5 27.5q0 18 14 31t33 20.5t39 11t31 3.5q13 0 25 -1.5t24.5 -6t26 -14.5t29.5 -26q14 10 20 30q1 3 7 19.5t15 35t20.5 33t24.5 14.5q17 0 18.5 -9t1.5 -15z" />
    <glyph glyph-name="sarauethai" unicode="&#xd6;" 
d="M70 594q0 -26 -14 -44.5t-34.5 -30t-44 -17.5t-42.5 -7q-8 0 -16.5 -4.5t-19.5 -4.5q-10 0 -33.5 4.5t-48 14t-43 23.5t-18.5 33q0 9 7 17t18 8q9 0 21 -8.5t24 -12.5q9 -3 27.5 -5t29.5 -2q22 0 32 7.5t15 18.5t7.5 23.5t9 23.5t20 18.5t40.5 7.5q36 0 49.5 -17.5
t13.5 -45.5z" />
    <glyph glyph-name="sarauethai" unicode="&#xe36;" 
d="M70 594q0 -26 -14 -44.5t-34.5 -30t-44 -17.5t-42.5 -7q-8 0 -16.5 -4.5t-19.5 -4.5q-10 0 -33.5 4.5t-48 14t-43 23.5t-18.5 33q0 9 7 17t18 8q9 0 21 -8.5t24 -12.5q9 -3 27.5 -5t29.5 -2q22 0 32 7.5t15 18.5t7.5 23.5t9 23.5t20 18.5t40.5 7.5q36 0 49.5 -17.5
t13.5 -45.5z" />
    <glyph glyph-name="saraueethai" unicode="&#xd7;" 
d="M63 627q0 -3 -8.5 -20l-21 -42t-28 -55t-28.5 -59q-2 -2 -4 -8t-11 -6q-12 0 -16.5 7.5t-6 16t-2 16t-5.5 7.5q-8 0 -22 -8.5t-22 -8.5q-4 0 -17.5 1t-32 3t-38 4.5t-35.5 5.5q-7 1 -15 11t-8 15q0 9 4 14.5t10 8.5t12.5 3.5t11.5 0.5q4 0 18.5 -2.5t30.5 -5.5t30 -5.5
t18 -2.5q20 0 32.5 12.5t20 29.5t11.5 33.5t9 24.5q2 3 7.5 6t12.5 3q8 0 13 -12t15 -21q6 3 11.5 12.5t12.5 19t16 15.5t21 3q0 -4 2 -6.5t2 -10.5z" />
    <glyph glyph-name="saraueethai" unicode="&#xe37;" 
d="M63 627q0 -3 -8.5 -20l-21 -42t-28 -55t-28.5 -59q-2 -2 -4 -8t-11 -6q-12 0 -16.5 7.5t-6 16t-2 16t-5.5 7.5q-8 0 -22 -8.5t-22 -8.5q-4 0 -17.5 1t-32 3t-38 4.5t-35.5 5.5q-7 1 -15 11t-8 15q0 9 4 14.5t10 8.5t12.5 3.5t11.5 0.5q4 0 18.5 -2.5t30.5 -5.5t30 -5.5
t18 -2.5q20 0 32.5 12.5t20 29.5t11.5 33.5t9 24.5q2 3 7.5 6t12.5 3q8 0 13 -12t15 -21q6 3 11.5 12.5t12.5 19t16 15.5t21 3q0 -4 2 -6.5t2 -10.5z" />
    <glyph glyph-name="sarauthai" unicode="&#xd8;" 
d="M-121 -128q0 -16 -6 -38t-13.5 -44t-15 -42t-11.5 -32q-5 -17 -7.5 -33t-10.5 -31h-18q-8 2 -13 9t-5 14q0 4 5 24t12 46t14 55t11 51q-5 6 -14 7t-19 2t-19.5 3.5t-15.5 11.5q-3 11 1.5 24.5t15 25.5t26 20.5t33.5 8.5q16 0 26 -11t15.5 -25t7 -27.5t1.5 -18.5z" />
    <glyph glyph-name="sarauthai" unicode="&#xe38;" 
d="M-121 -128q0 -16 -6 -38t-13.5 -44t-15 -42t-11.5 -32q-5 -17 -7.5 -33t-10.5 -31h-18q-8 2 -13 9t-5 14q0 4 5 24t12 46t14 55t11 51q-5 6 -14 7t-19 2t-19.5 3.5t-15.5 11.5q-3 11 1.5 24.5t15 25.5t26 20.5t33.5 8.5q16 0 26 -11t15.5 -25t7 -27.5t1.5 -18.5z" />
    <glyph glyph-name="sarauuthai" unicode="&#xd9;" 
d="M-143 -62q0 -7 -10 -16.5t-12 -20.5q-4 -20 -7 -44.5t-11 -47.5q-5 -15 -15 -33.5t-17 -35.5q-2 -5 -5 -16.5t-8.5 -23.5t-13 -21t-18.5 -9q-20 0 -25.5 14.5t-4.5 33t5.5 35t4.5 21.5v26q-6 3 -16 3.5t-20 5.5q-8 4 -13 12.5t-8.5 17.5t-5 17t-1.5 11q0 15 7 26t17 18.5
t20 11.5t15 4q14 0 23 -12.5t14.5 -28.5t7.5 -30t2 -18q2 -3 2 -8t3 -9q12 19 19 41.5t13 44t13 39t19 27.5q5 -2 9 -7.5t8 -11.5q4 -7 9 -16zM-276 -138q-8 0 -13.5 -3t-8.5 -6v-17q2 -2 4 -3.5t5 -3.5t7 -3q2 5 4 18t2 18z" />
    <glyph glyph-name="sarauuthai" unicode="&#xe39;" 
d="M-143 -62q0 -7 -10 -16.5t-12 -20.5q-4 -20 -7 -44.5t-11 -47.5q-5 -15 -15 -33.5t-17 -35.5q-2 -5 -5 -16.5t-8.5 -23.5t-13 -21t-18.5 -9q-20 0 -25.5 14.5t-4.5 33t5.5 35t4.5 21.5v26q-6 3 -16 3.5t-20 5.5q-8 4 -13 12.5t-8.5 17.5t-5 17t-1.5 11q0 15 7 26t17 18.5
t20 11.5t15 4q14 0 23 -12.5t14.5 -28.5t7.5 -30t2 -18q2 -3 2 -8t3 -9q12 19 19 41.5t13 44t13 39t19 27.5q5 -2 9 -7.5t8 -11.5q4 -7 9 -16zM-276 -138q-8 0 -13.5 -3t-8.5 -6v-17q2 -2 4 -3.5t5 -3.5t7 -3q2 5 4 18t2 18z" />
    <glyph glyph-name="phinthuthai" unicode="&#xda;" 
d="M-36 -87q-10 -25 -17 -41t-27 -16q-9 0 -16.5 5.5t-12 14t-7 17.5t-2.5 16q0 11 3.5 15.5t3.5 13.5q16 -1 36.5 -2.5t38.5 -22.5z" />
    <glyph glyph-name="phinthuthai" unicode="&#xe3a;" 
d="M-36 -87q-10 -25 -17 -41t-27 -16q-9 0 -16.5 5.5t-12 14t-7 17.5t-2.5 16q0 11 3.5 15.5t3.5 13.5q16 -1 36.5 -2.5t38.5 -22.5z" />
    <glyph glyph-name="NPNaipolTemplate3.000_July2006p" unicode="&#xdb;" 
 />
    <glyph glyph-name="NPNaipolTemplate3.000_July2006p" unicode="&#xe3b;" 
 />
    <glyph glyph-name="NPNaipolTemplate3.000_July2006u" unicode="&#xdc;" 
 />
    <glyph glyph-name="NPNaipolTemplate3.000_July2006u" unicode="&#xe3c;" 
 />
    <glyph glyph-name="NPNaipolTemplate3.000_July2006c" unicode="&#xdd;" 
 />
    <glyph glyph-name="NPNaipolTemplate3.000_July2006c" unicode="&#xe3d;" 
 />
    <glyph glyph-name="bahtthai" unicode="&#xdf;" horiz-adv-x="372" 
d="M281 210q0 -28 -15 -47.5t-36.5 -37.5t-44.5 -37.5t-38 -46.5q-3 -6 -4 -13.5t0 -15.5t2 -15t1 -12q0 -8 -4 -17t-7 -17q-8 3 -19.5 11t-17.5 15q2 8 5 17.5t2 21.5q-5 2 -13 7t-16 12t-13.5 16.5t-5.5 21.5q0 4 1.5 16t4.5 29t6 37.5t6 41.5q4 31 12.5 66t7.5 69
q2 4 4.5 10.5t4.5 9.5q7 1 18.5 1t23.5 1t22.5 5t16.5 14q10 17 15.5 39t16.5 41h18q5 -21 3.5 -39t-7.5 -37q8 -5 15 -6t13 -4q9 -5 15.5 -14t6.5 -19q0 -5 -4 -15t-8.5 -21t-8.5 -21.5t-4 -14.5q0 -8 8 -15t13 -15q-1 -3 1.5 -7.5t2.5 -14.5zM209 294q-4 -8 -6.5 -19.5
t1.5 -15.5q4 8 6.5 17.5t-1.5 17.5zM155 284q-8 -8 -13.5 -20.5t-9.5 -23.5q2 0 4 -1l4 -2q3 -1 5 -2q4 11 7 24.5t3 24.5zM201 173q-11 1 -17.5 -2t-9.5 -8t-4.5 -10t-2.5 -7q8 4 17 11.5t17 15.5zM131 154q-8 -3 -16.5 -10.5t-8.5 -18.5q0 -8 4 -15t4 -10q3 11 8 27t9 27z
" />
    <glyph glyph-name="bahtthai" unicode="&#xe3f;" horiz-adv-x="372" 
d="M281 210q0 -28 -15 -47.5t-36.5 -37.5t-44.5 -37.5t-38 -46.5q-3 -6 -4 -13.5t0 -15.5t2 -15t1 -12q0 -8 -4 -17t-7 -17q-8 3 -19.5 11t-17.5 15q2 8 5 17.5t2 21.5q-5 2 -13 7t-16 12t-13.5 16.5t-5.5 21.5q0 4 1.5 16t4.5 29t6 37.5t6 41.5q4 31 12.5 66t7.5 69
q2 4 4.5 10.5t4.5 9.5q7 1 18.5 1t23.5 1t22.5 5t16.5 14q10 17 15.5 39t16.5 41h18q5 -21 3.5 -39t-7.5 -37q8 -5 15 -6t13 -4q9 -5 15.5 -14t6.5 -19q0 -5 -4 -15t-8.5 -21t-8.5 -21.5t-4 -14.5q0 -8 8 -15t13 -15q-1 -3 1.5 -7.5t2.5 -14.5zM209 294q-4 -8 -6.5 -19.5
t1.5 -15.5q4 8 6.5 17.5t-1.5 17.5zM155 284q-8 -8 -13.5 -20.5t-9.5 -23.5q2 0 4 -1l4 -2q3 -1 5 -2q4 11 7 24.5t3 24.5zM201 173q-11 1 -17.5 -2t-9.5 -8t-4.5 -10t-2.5 -7q8 4 17 11.5t17 15.5zM131 154q-8 -3 -16.5 -10.5t-8.5 -18.5q0 -8 4 -15t4 -10q3 11 8 27t9 27z
" />
    <glyph glyph-name="saraethai" unicode="&#xe0;" horiz-adv-x="232" 
d="M216 86q0 -14 -12 -29.5t-28 -28t-32.5 -20.5t-26.5 -8q-19 0 -34 12t-25 28t-15.5 32.5t-5.5 26.5q0 5 4.5 29t12.5 57t17.5 71.5t20.5 73.5q4 11 16 31.5t22 35.5q9 -10 22 -28.5t13 -39.5q0 -4 -4.5 -18.5t-12 -34.5t-15.5 -42.5t-15.5 -42.5t-12 -34.5t-4.5 -18.5
v-62h34q10 0 23.5 11.5t28.5 20.5h21q5 -5 6.5 -7.5t1.5 -14.5z" />
    <glyph glyph-name="saraethai" unicode="&#xe40;" horiz-adv-x="232" 
d="M216 86q0 -14 -12 -29.5t-28 -28t-32.5 -20.5t-26.5 -8q-19 0 -34 12t-25 28t-15.5 32.5t-5.5 26.5q0 5 4.5 29t12.5 57t17.5 71.5t20.5 73.5q4 11 16 31.5t22 35.5q9 -10 22 -28.5t13 -39.5q0 -4 -4.5 -18.5t-12 -34.5t-15.5 -42.5t-15.5 -42.5t-12 -34.5t-4.5 -18.5
v-62h34q10 0 23.5 11.5t28.5 20.5h21q5 -5 6.5 -7.5t1.5 -14.5z" />
    <glyph glyph-name="saraaethai" unicode="&#xe1;" horiz-adv-x="346" 
d="M316 95q0 -8 -9 -18.5t-21 -19.5t-23.5 -15t-17.5 -6q-5 0 -12 5t-13.5 11.5t-13.5 11.5t-12 5q-7 0 -16 -10.5t-19.5 -23t-23 -23t-26.5 -10.5q-15 0 -24.5 11t-15 24.5t-7 25t-1.5 12.5q0 5 7.5 41t17.5 85t21 102t17 94h32q5 -13 9 -27.5t4 -25.5q0 -4 -4 -21
t-10.5 -41t-14 -51t-14 -51t-10.5 -41.5t-4 -20.5v-27q-1 -2 -1 -3q0 -2 9 -2q4 0 13.5 5t20.5 13.5t22 18.5t19 19q8 8 8 23t3 27q10 44 20 89.5t23 92.5q9 2 17.5 0t16 -6t12 -10t4.5 -11t-8 -32.5t-17.5 -59t-18 -59t-8.5 -32.5v-50q5 0 4.5 -2.5t10.5 -2.5q8 0 16.5 6
t17.5 11q8 -5 14 -12.5t6 -18.5z" />
    <glyph glyph-name="saraaethai" unicode="&#xe41;" horiz-adv-x="346" 
d="M316 95q0 -8 -9 -18.5t-21 -19.5t-23.5 -15t-17.5 -6q-5 0 -12 5t-13.5 11.5t-13.5 11.5t-12 5q-7 0 -16 -10.5t-19.5 -23t-23 -23t-26.5 -10.5q-15 0 -24.5 11t-15 24.5t-7 25t-1.5 12.5q0 5 7.5 41t17.5 85t21 102t17 94h32q5 -13 9 -27.5t4 -25.5q0 -4 -4 -21
t-10.5 -41t-14 -51t-14 -51t-10.5 -41.5t-4 -20.5v-27q-1 -2 -1 -3q0 -2 9 -2q4 0 13.5 5t20.5 13.5t22 18.5t19 19q8 8 8 23t3 27q10 44 20 89.5t23 92.5q9 2 17.5 0t16 -6t12 -10t4.5 -11t-8 -32.5t-17.5 -59t-18 -59t-8.5 -32.5v-50q5 0 4.5 -2.5t10.5 -2.5q8 0 16.5 6
t17.5 11q8 -5 14 -12.5t6 -18.5z" />
    <glyph glyph-name="saraothai" unicode="&#xe2;" horiz-adv-x="275" 
d="M442 640q-16 -10 -35.5 -17.5t-35.5 -14.5q-44 -17 -84 -39t-82 -47q0 -12 -1 -28t-3.5 -33.5t-5.5 -35.5t-7 -33q-11 -42 -26.5 -92t-31.5 -96q-3 -9 -7.5 -21.5t-10 -26.5t-10.5 -28.5t-9 -26.5q-2 -3 -4.5 -20t-6.5 -35.5t-10.5 -33.5t-15.5 -15t-15 6t-9.5 13.5
t-4.5 15t-1 9.5q0 4 2.5 16.5t6 28t8 31.5t9.5 28q29 70 49.5 117.5t34.5 85t23.5 72t16.5 79.5q-6 4 -15 8.5t-17 10t-14 13t-6 18.5q0 9 2.5 14.5t2.5 12.5q34 7 67.5 22.5t67 31.5t68.5 28.5t71 12.5h14t9 -2.5t7 -9z" />
    <glyph glyph-name="saraothai" unicode="&#xe42;" horiz-adv-x="275" 
d="M442 640q-16 -10 -35.5 -17.5t-35.5 -14.5q-44 -17 -84 -39t-82 -47q0 -12 -1 -28t-3.5 -33.5t-5.5 -35.5t-7 -33q-11 -42 -26.5 -92t-31.5 -96q-3 -9 -7.5 -21.5t-10 -26.5t-10.5 -28.5t-9 -26.5q-2 -3 -4.5 -20t-6.5 -35.5t-10.5 -33.5t-15.5 -15t-15 6t-9.5 13.5
t-4.5 15t-1 9.5q0 4 2.5 16.5t6 28t8 31.5t9.5 28q29 70 49.5 117.5t34.5 85t23.5 72t16.5 79.5q-6 4 -15 8.5t-17 10t-14 13t-6 18.5q0 9 2.5 14.5t2.5 12.5q34 7 67.5 22.5t67 31.5t68.5 28.5t71 12.5h14t9 -2.5t7 -9z" />
    <glyph glyph-name="saraaimaimuanthai" unicode="&#xe3;" horiz-adv-x="274" 
d="M260 644q2 -24 0.5 -48t-4.5 -47q-1 -11 -4 -26.5t-6 -26.5q-12 -41 -29.5 -95.5t-34.5 -105t-29 -87t-12 -41.5q0 -15 13 -15q5 0 9 -4t4 -9q0 -10 -9.5 -33t-23 -46t-28.5 -41t-25 -18t-15.5 8.5t-8.5 19t-3.5 19.5t-0.5 10q0 11 8.5 39.5t21.5 65t28 76t28.5 73.5
t22.5 57.5t10 28.5q-8 10 -17 12.5t-18.5 2.5t-19.5 -1.5t-21 1.5q-5 1 -16 8t-21.5 17t-18.5 21.5t-8 21.5q0 8 6 19.5t8 22.5q1 16 20.5 40t46 47t54 39.5t44.5 16.5q10 0 23.5 -7t25.5 -15zM229 613q-17 -2 -41 -15.5t-46 -32t-37.5 -38.5t-15.5 -35q0 -10 7 -15.5
t16.5 -8.5t18.5 -4t13 -1q14 0 24.5 1.5t18.5 7.5t14 18t11 32q4 16 10.5 32.5t6.5 24.5v34z" />
    <glyph glyph-name="saraaimaimuanthai" unicode="&#xe43;" horiz-adv-x="274" 
d="M260 644q2 -24 0.5 -48t-4.5 -47q-1 -11 -4 -26.5t-6 -26.5q-12 -41 -29.5 -95.5t-34.5 -105t-29 -87t-12 -41.5q0 -15 13 -15q5 0 9 -4t4 -9q0 -10 -9.5 -33t-23 -46t-28.5 -41t-25 -18t-15.5 8.5t-8.5 19t-3.5 19.5t-0.5 10q0 11 8.5 39.5t21.5 65t28 76t28.5 73.5
t22.5 57.5t10 28.5q-8 10 -17 12.5t-18.5 2.5t-19.5 -1.5t-21 1.5q-5 1 -16 8t-21.5 17t-18.5 21.5t-8 21.5q0 8 6 19.5t8 22.5q1 16 20.5 40t46 47t54 39.5t44.5 16.5q10 0 23.5 -7t25.5 -15zM229 613q-17 -2 -41 -15.5t-46 -32t-37.5 -38.5t-15.5 -35q0 -10 7 -15.5
t16.5 -8.5t18.5 -4t13 -1q14 0 24.5 1.5t18.5 7.5t14 18t11 32q4 16 10.5 32.5t6.5 24.5v34z" />
    <glyph glyph-name="saraaimaimalaithai" unicode="&#xe4;" horiz-adv-x="274" 
d="M317 603q0 -4 -14.5 -41.5t-37 -92t-48 -118t-48 -118t-37 -92t-14.5 -41.5q0 -11 -1 -12.5t4 -5.5q9 10 22 20t24 10t17.5 -6.5t11.5 -6.5q-3 -8 -10.5 -25t-19 -34t-27 -30t-36.5 -13q-16 0 -25 7.5t-13.5 18t-5.5 22t-1 19.5q0 21 8 46.5t18.5 51t21.5 48.5t16 39
q9 27 23 63t27 69.5t22 59t9 31.5v21q-9 4 -24.5 -6t-32 -23.5t-32.5 -25.5t-26 -12q-12 0 -24 7t-21 17.5t-15 21.5t-6 20q0 6 4 25.5t9 45t10.5 53t7.5 50.5h28q4 -14 10 -30.5t11 -30.5q1 -4 -1 -10.5t-5 -13.5t-5.5 -14t-2.5 -11v-41q4 0 2.5 -2.5t9.5 -2.5q7 0 21.5 10
t32 25.5t36.5 34t35 34.5l27 27l13 13h40q0 -9 6 -24.5t6 -26.5z" />
    <glyph glyph-name="saraaimaimalaithai" unicode="&#xe44;" horiz-adv-x="274" 
d="M317 603q0 -4 -14.5 -41.5t-37 -92t-48 -118t-48 -118t-37 -92t-14.5 -41.5q0 -11 -1 -12.5t4 -5.5q9 10 22 20t24 10t17.5 -6.5t11.5 -6.5q-3 -8 -10.5 -25t-19 -34t-27 -30t-36.5 -13q-16 0 -25 7.5t-13.5 18t-5.5 22t-1 19.5q0 21 8 46.5t18.5 51t21.5 48.5t16 39
q9 27 23 63t27 69.5t22 59t9 31.5v21q-9 4 -24.5 -6t-32 -23.5t-32.5 -25.5t-26 -12q-12 0 -24 7t-21 17.5t-15 21.5t-6 20q0 6 4 25.5t9 45t10.5 53t7.5 50.5h28q4 -14 10 -30.5t11 -30.5q1 -4 -1 -10.5t-5 -13.5t-5.5 -14t-2.5 -11v-41q4 0 2.5 -2.5t9.5 -2.5q7 0 21.5 10
t32 25.5t36.5 34t35 34.5l27 27l13 13h40q0 -9 6 -24.5t6 -26.5z" />
    <glyph glyph-name="lakkhangyaothai" unicode="&#xe5;" horiz-adv-x="289" 
d="M228 300q0 -25 -8 -62.5t-19.5 -81t-24.5 -88t-23 -84t-15 -69t-1 -42.5q-5 0 -5.5 -3.5t-11.5 -3.5q-9 0 -14.5 5.5t-8.5 13t-4 14.5t-1 10t6.5 31.5t17 69.5t22 87.5t22 87.5t17 69t6.5 32q0 10 -2.5 15t-7.5 14q-30 -18 -59.5 -36.5t-51.5 -48.5q-5 0 -10.5 3t-8.5 5
q-2 7 -8 16.5t-6 17.5q0 22 18 43.5t43 39t52.5 28.5t45.5 11q15 0 23.5 -12.5t12 -29t4 -31.5t0.5 -21z" />
    <glyph glyph-name="lakkhangyaothai" unicode="&#xe45;" horiz-adv-x="289" 
d="M228 300q0 -25 -8 -62.5t-19.5 -81t-24.5 -88t-23 -84t-15 -69t-1 -42.5q-5 0 -5.5 -3.5t-11.5 -3.5q-9 0 -14.5 5.5t-8.5 13t-4 14.5t-1 10t6.5 31.5t17 69.5t22 87.5t22 87.5t17 69t6.5 32q0 10 -2.5 15t-7.5 14q-30 -18 -59.5 -36.5t-51.5 -48.5q-5 0 -10.5 3t-8.5 5
q-2 7 -8 16.5t-6 17.5q0 22 18 43.5t43 39t52.5 28.5t45.5 11q15 0 23.5 -12.5t12 -29t4 -31.5t0.5 -21z" />
    <glyph glyph-name="maiyamokthai" unicode="&#xe6;" horiz-adv-x="426" 
d="M385 332q0 -24 -4.5 -44.5t-13.5 -47t-22.5 -64t-31.5 -97.5q-2 -8 -9.5 -20t-9.5 -20q-5 -22 -12.5 -45t-14.5 -45.5t-10.5 -44t0.5 -40.5q0 -2 -2 -4q-3 -3 -12 -3q-5 0 -11.5 4t-12.5 9.5t-10 12t-4 11.5q0 9 7 33.5t16 51.5t17 50t10 29q8 20 14 51t15 59
q6 17 11.5 31t4.5 40q-11 -9 -23.5 -22.5t-24.5 -26.5t-21.5 -22.5t-13.5 -9.5q-10 0 -26 13.5t-24 28.5q-4 6 -3 16.5t2 19.5q-1 5 -1 10.5t-13 10.5q0 -15 0.5 -33.5t-3.5 -34.5t-14 -26.5t-31 -10.5q-11 0 -17.5 5.5t-9.5 13.5t-4 16t-1 14q0 12 8.5 37.5t19 51.5t20 46
t11.5 22q8 5 14 6.5t20 1.5q17 0 27 -6.5t16 -18.5t9.5 -29t8.5 -38q25 22 53.5 56t54.5 63q5 2 6.5 2h12.5q12 0 18.5 -7t9.5 -17t3.5 -21t0.5 -18z" />
    <glyph glyph-name="maiyamokthai" unicode="&#xe46;" horiz-adv-x="426" 
d="M385 332q0 -24 -4.5 -44.5t-13.5 -47t-22.5 -64t-31.5 -97.5q-2 -8 -9.5 -20t-9.5 -20q-5 -22 -12.5 -45t-14.5 -45.5t-10.5 -44t0.5 -40.5q0 -2 -2 -4q-3 -3 -12 -3q-5 0 -11.5 4t-12.5 9.5t-10 12t-4 11.5q0 9 7 33.5t16 51.5t17 50t10 29q8 20 14 51t15 59
q6 17 11.5 31t4.5 40q-11 -9 -23.5 -22.5t-24.5 -26.5t-21.5 -22.5t-13.5 -9.5q-10 0 -26 13.5t-24 28.5q-4 6 -3 16.5t2 19.5q-1 5 -1 10.5t-13 10.5q0 -15 0.5 -33.5t-3.5 -34.5t-14 -26.5t-31 -10.5q-11 0 -17.5 5.5t-9.5 13.5t-4 16t-1 14q0 12 8.5 37.5t19 51.5t20 46
t11.5 22q8 5 14 6.5t20 1.5q17 0 27 -6.5t16 -18.5t9.5 -29t8.5 -38q25 22 53.5 56t54.5 63q5 2 6.5 2h12.5q12 0 18.5 -7t9.5 -17t3.5 -21t0.5 -18z" />
    <glyph glyph-name="maitaikhuthai" unicode="&#xe7;" 
d="M149 717q0 -2 -1 -5.5t-4 -5.5l-26 -6.5t-26 -5.5q-1 0 -22 -9t-46 -20t-46 -22t-21 -15q0 -5 9.5 -10.5t12.5 -11.5q6 -11 10 -26.5t4 -21.5q0 -3 -3.5 -14t-9 -25.5t-12 -30t-12.5 -27.5h-19q-17 13 -20.5 30t-5.5 29q1 0 2 1h-1q-1 0 -1.5 0.5t-2.5 0.5q-7 0 -16 -8
t-16 -8q-11 0 -17.5 5t-11 12t-6 12.5t-1.5 7.5q0 12 5.5 27.5t14.5 31.5t21.5 30t27.5 25q7 5 20.5 8t19.5 8q45 32 87 41.5t81 9.5q8 0 17 -2.5t15 -4.5zM-47 566q-6 5 -12.5 10t-11 9.5t-5.5 9t4 8.5q-6 -2 -16 -6.5t-15 -9.5v-9q12 -2 26.5 -8.5t23.5 -11.5q0 2 3 5z
" />
    <glyph glyph-name="maitaikhuthai" unicode="&#xe47;" 
d="M149 717q0 -2 -1 -5.5t-4 -5.5l-26 -6.5t-26 -5.5q-1 0 -22 -9t-46 -20t-46 -22t-21 -15q0 -5 9.5 -10.5t12.5 -11.5q6 -11 10 -26.5t4 -21.5q0 -3 -3.5 -14t-9 -25.5t-12 -30t-12.5 -27.5h-19q-17 13 -20.5 30t-5.5 29q1 0 2 1h-1q-1 0 -1.5 0.5t-2.5 0.5q-7 0 -16 -8
t-16 -8q-11 0 -17.5 5t-11 12t-6 12.5t-1.5 7.5q0 12 5.5 27.5t14.5 31.5t21.5 30t27.5 25q7 5 20.5 8t19.5 8q45 32 87 41.5t81 9.5q8 0 17 -2.5t15 -4.5zM-47 566q-6 5 -12.5 10t-11 9.5t-5.5 9t4 8.5q-6 -2 -16 -6.5t-15 -9.5v-9q12 -2 26.5 -8.5t23.5 -11.5q0 2 3 5z
" />
    <glyph glyph-name="maiekthai" unicode="&#xe8;" horiz-adv-x="14" 
d="M98 833q0 -7 -7.5 -29t-20 -48t-28.5 -49t-32 -32q-11 -5 -20.5 1.5t-10.5 14.5q0 3 4 21t12.5 43.5t21 54t29.5 54.5l40 3q6 -8 8.5 -17t3.5 -17z" />
    <glyph glyph-name="maiekthai" unicode="&#xe48;" horiz-adv-x="14" 
d="M98 833q0 -7 -7.5 -29t-20 -48t-28.5 -49t-32 -32q-11 -5 -20.5 1.5t-10.5 14.5q0 3 4 21t12.5 43.5t21 54t29.5 54.5l40 3q6 -8 8.5 -17t3.5 -17z" />
    <glyph glyph-name="maithothai" unicode="&#xe9;" 
d="M129 748q0 -7 -4 -16.5t-9 -12.5q-20 -11 -48.5 -25.5t-55.5 -27.5t-47 -22.5t-24 -9.5q-5 0 -9.5 4t-7.5 9t-5 10t-2 7q0 6 8 16.5t18 21t18.5 19t9.5 11.5q2 5 5 14t9 18q-5 5 -11.5 6t-11.5 4q-4 9 -6.5 19.5t-2.5 19.5q10 8 19 14.5t23 6.5q10 0 16.5 -6.5
t10.5 -14.5t5.5 -16t1.5 -11q0 -7 -7 -24.5t-13 -29.5q3 -3 3.5 -2.5t8.5 0.5q4 0 17.5 5t28.5 11t28.5 11t17.5 5q5 0 10.5 -4.5t5.5 -9.5z" />
    <glyph glyph-name="maithothai" unicode="&#xe49;" 
d="M129 748q0 -7 -4 -16.5t-9 -12.5q-20 -11 -48.5 -25.5t-55.5 -27.5t-47 -22.5t-24 -9.5q-5 0 -9.5 4t-7.5 9t-5 10t-2 7q0 6 8 16.5t18 21t18.5 19t9.5 11.5q2 5 5 14t9 18q-5 5 -11.5 6t-11.5 4q-4 9 -6.5 19.5t-2.5 19.5q10 8 19 14.5t23 6.5q10 0 16.5 -6.5
t10.5 -14.5t5.5 -16t1.5 -11q0 -7 -7 -24.5t-13 -29.5q3 -3 3.5 -2.5t8.5 0.5q4 0 17.5 5t28.5 11t28.5 11t17.5 5q5 0 10.5 -4.5t5.5 -9.5z" />
    <glyph glyph-name="maitrithai" unicode="&#xea;" 
d="M212 873q-13 -20 -29.5 -44.5t-36.5 -54.5q-3 -5 -11.5 -19t-19.5 -29.5t-23 -27.5t-21 -12q-4 0 -8.5 4.5t-9.5 7.5q-2 8 -4 15.5t0 16.5q0 2 2 5.5t2 7.5q0 2 -0.5 5.5t-0.5 7.5v1q0 1 -2 3q-4 0 -8 -4q-4 -10 -17 -24t-19 -25q-3 0 -9 4.5t-8 9.5q-2 10 0 22t2 26
q-2 0 -2 1t-5 1q-4 0 -8.5 -5.5t-8 -12t-6 -13t-2.5 -8.5q0 -5 5.5 -14t5.5 -14q0 -8 -8 -21t-15 -13q-5 0 -8.5 4.5t-6 10t-4 10.5t-1.5 7t1 9.5t3.5 16.5t5 18.5t5.5 15.5q8 16 19 32.5t27 16.5q8 0 12 -3.5t7 -9t5 -11.5t7 -11q10 8 22.5 21.5t17.5 13.5q11 0 14 -8.5
t3 -13.5v-48l4 -5q35 33 61.5 72t55.5 80q8 0 10.5 -1.5t4.5 -1.5v-12v0z" />
    <glyph glyph-name="maitrithai" unicode="&#xe4a;" 
d="M212 873q-13 -20 -29.5 -44.5t-36.5 -54.5q-3 -5 -11.5 -19t-19.5 -29.5t-23 -27.5t-21 -12q-4 0 -8.5 4.5t-9.5 7.5q-2 8 -4 15.5t0 16.5q0 2 2 5.5t2 7.5q0 2 -0.5 5.5t-0.5 7.5v1q0 1 -2 3q-4 0 -8 -4q-4 -10 -17 -24t-19 -25q-3 0 -9 4.5t-8 9.5q-2 10 0 22t2 26
q-2 0 -2 1t-5 1q-4 0 -8.5 -5.5t-8 -12t-6 -13t-2.5 -8.5q0 -5 5.5 -14t5.5 -14q0 -8 -8 -21t-15 -13q-5 0 -8.5 4.5t-6 10t-4 10.5t-1.5 7t1 9.5t3.5 16.5t5 18.5t5.5 15.5q8 16 19 32.5t27 16.5q8 0 12 -3.5t7 -9t5 -11.5t7 -11q10 8 22.5 21.5t17.5 13.5q11 0 14 -8.5
t3 -13.5v-48l4 -5q35 33 61.5 72t55.5 80q8 0 10.5 -1.5t4.5 -1.5v-12v0z" />
    <glyph glyph-name="maichattawathai" unicode="&#xeb;" 
d="M79 750q-14 -5 -29.5 -9t-26.5 -8q-15 -5 -22 -18.5t-13 -24.5q-3 -5 -7.5 -10t-7.5 -9.5t-3.5 -9.5t3.5 -11q-4 0 -7 -1.5t-12 -1.5t-13 3t-5 7t-0.5 7.5l0.5 3.5q0 3 3.5 10t8 15.5t8 15.5t3.5 9q0 5 -2 4.5t-2 3.5q-8 -1 -17.5 -0.5t-18 3t-14.5 6.5t-6 10
q0 7 11.5 11t25.5 6.5t27 4t15 4.5q7 9 16.5 20.5t16.5 21.5h26v-17.5t-4 -20.5q9 -5 21.5 -8.5t24.5 -6.5v-10v0z" />
    <glyph glyph-name="maichattawathai" unicode="&#xe4b;" 
d="M79 750q-14 -5 -29.5 -9t-26.5 -8q-15 -5 -22 -18.5t-13 -24.5q-3 -5 -7.5 -10t-7.5 -9.5t-3.5 -9.5t3.5 -11q-4 0 -7 -1.5t-12 -1.5t-13 3t-5 7t-0.5 7.5l0.5 3.5q0 3 3.5 10t8 15.5t8 15.5t3.5 9q0 5 -2 4.5t-2 3.5q-8 -1 -17.5 -0.5t-18 3t-14.5 6.5t-6 10
q0 7 11.5 11t25.5 6.5t27 4t15 4.5q7 9 16.5 20.5t16.5 21.5h26v-17.5t-4 -20.5q9 -5 21.5 -8.5t24.5 -6.5v-10v0z" />
    <glyph glyph-name="thanthakhatthai" unicode="&#xec;" 
d="M59 738q0 -5 -3 -7.5t-8 -4t-10.5 -3t-9.5 -4.5q-24 -16 -50 -32.5t-44 -40.5q-3 -4 0 -17t1 -23q-1 -5 -6 -12t-10 -12q-3 -1 -5 -1h-8q-5 0 -11 4t-11 10t-8.5 12t-3.5 11q0 24 20 45t44.5 37.5t47 27t28.5 13.5q7 3 15.5 8t14.5 5t10 -2t7 -2v-12v0z" />
    <glyph glyph-name="thanthakhatthai" unicode="&#xe4c;" 
d="M59 738q0 -5 -3 -7.5t-8 -4t-10.5 -3t-9.5 -4.5q-24 -16 -50 -32.5t-44 -40.5q-3 -4 0 -17t1 -23q-1 -5 -6 -12t-10 -12q-3 -1 -5 -1h-8q-5 0 -11 4t-11 10t-8.5 12t-3.5 11q0 24 20 45t44.5 37.5t47 27t28.5 13.5q7 3 15.5 8t14.5 5t10 -2t7 -2v-12v0z" />
    <glyph glyph-name="nikhahitthai" unicode="&#xed;" 
d="M19 579q0 -8 -7.5 -22.5t-19 -29t-25 -25.5t-26.5 -11q-9 0 -20.5 5.5t-22 14.5t-18 20t-7.5 22q0 23 15 36.5t42 36.5q5 5 14.5 6t19.5 1q26 0 40.5 -16t14.5 -38zM-40 590q-11 -7 -21.5 -18t-10.5 -19q0 -9 2 -10t6 -5q15 11 26.5 26t15.5 26h-18z" />
    <glyph glyph-name="nikhahitthai" unicode="&#xe4d;" 
d="M19 579q0 -8 -7.5 -22.5t-19 -29t-25 -25.5t-26.5 -11q-9 0 -20.5 5.5t-22 14.5t-18 20t-7.5 22q0 23 15 36.5t42 36.5q5 5 14.5 6t19.5 1q26 0 40.5 -16t14.5 -38zM-40 590q-11 -7 -21.5 -18t-10.5 -19q0 -9 2 -10t6 -5q15 11 26.5 26t15.5 26h-18z" />
    <glyph glyph-name="yamakkanthai" unicode="&#xee;" horiz-adv-x="378" 
d="M345 324q0 -17 -9 -26q-12 -12 -30.5 -27.5t-36 -30.5t-30 -27.5t-12.5 -16.5q0 -10 17 -30t38 -41.5t40 -39t23 -22.5q-5 -4 -7.5 -8t-14.5 -4t-29 5t-36.5 16.5t-39.5 29t-39 41.5q-17 -2 -29 -17t-22.5 -33t-21.5 -32.5t-25 -14.5q-9 0 -15.5 3.5t-10.5 8.5t-6 10
t-2 7q0 16 14.5 36t32 39t32 34.5t14.5 23.5q0 4 -7 20t-15 34t-15 33.5t-7 20.5q0 8 13 16t25 8q10 0 18.5 -10t15 -23t13 -25.5t12.5 -18.5q16 11 33 27t33.5 30.5t30.5 24.5t24 10q8 0 14 -5t10 -11q4 -7 7 -15z" />
    <glyph glyph-name="yamakkanthai" unicode="&#xe4e;" horiz-adv-x="378" 
d="M345 324q0 -17 -9 -26q-12 -12 -30.5 -27.5t-36 -30.5t-30 -27.5t-12.5 -16.5q0 -10 17 -30t38 -41.5t40 -39t23 -22.5q-5 -4 -7.5 -8t-14.5 -4t-29 5t-36.5 16.5t-39.5 29t-39 41.5q-17 -2 -29 -17t-22.5 -33t-21.5 -32.5t-25 -14.5q-9 0 -15.5 3.5t-10.5 8.5t-6 10
t-2 7q0 16 14.5 36t32 39t32 34.5t14.5 23.5q0 4 -7 20t-15 34t-15 33.5t-7 20.5q0 8 13 16t25 8q10 0 18.5 -10t15 -23t13 -25.5t12.5 -18.5q16 11 33 27t33.5 30.5t30.5 24.5t24 10q8 0 14 -5t10 -11q4 -7 7 -15z" />
    <glyph glyph-name="fongmanthai" unicode="&#xef;" horiz-adv-x="516" 
d="M464 224q0 -9 -1.5 -26t-2.5 -31q-1 -26 -21 -55.5t-46.5 -54t-53.5 -40.5t-43 -16q-4 0 -17 1t-29.5 2.5t-34.5 2.5t-32 2q-18 1 -37.5 25t-36.5 55t-28 61t-11 44q0 5 2 14.5t4.5 20t5.5 20.5t6 16q18 46 48 71.5t63 38t65.5 15.5t55.5 3q16 0 34.5 -3.5t37.5 -15
t37 -33.5t33 -58q4 -10 3 -29t-1 -30zM417 224q0 17 -6.5 40t-20.5 43.5t-36 35t-53 14.5q-5 0 -16.5 -1t-25.5 -3t-28 -6t-23 -11q-11 -8 -26 -23t-28 -32t-22 -35t-9 -31q0 -12 3.5 -33.5t8.5 -39.5q3 -5 9 -12.5t9 -12.5q5 -14 13 -28t16 -19q10 -6 24 -11t28 -8t25 -5
t16 -2q28 0 53.5 17.5t45 44t31.5 58t12 60.5zM380 215q0 -24 -11 -46t-27.5 -39t-36.5 -27.5t-38 -10.5q-21 0 -39 8.5t-30.5 23t-20 32.5t-7.5 38q0 21 11 40t27.5 33t35 22t34.5 8q12 0 29 -5.5t33.5 -16t28 -26t11.5 -34.5z" />
    <glyph glyph-name="fongmanthai" unicode="&#xe4f;" horiz-adv-x="516" 
d="M464 224q0 -9 -1.5 -26t-2.5 -31q-1 -26 -21 -55.5t-46.5 -54t-53.5 -40.5t-43 -16q-4 0 -17 1t-29.5 2.5t-34.5 2.5t-32 2q-18 1 -37.5 25t-36.5 55t-28 61t-11 44q0 5 2 14.5t4.5 20t5.5 20.5t6 16q18 46 48 71.5t63 38t65.5 15.5t55.5 3q16 0 34.5 -3.5t37.5 -15
t37 -33.5t33 -58q4 -10 3 -29t-1 -30zM417 224q0 17 -6.5 40t-20.5 43.5t-36 35t-53 14.5q-5 0 -16.5 -1t-25.5 -3t-28 -6t-23 -11q-11 -8 -26 -23t-28 -32t-22 -35t-9 -31q0 -12 3.5 -33.5t8.5 -39.5q3 -5 9 -12.5t9 -12.5q5 -14 13 -28t16 -19q10 -6 24 -11t28 -8t25 -5
t16 -2q28 0 53.5 17.5t45 44t31.5 58t12 60.5zM380 215q0 -24 -11 -46t-27.5 -39t-36.5 -27.5t-38 -10.5q-21 0 -39 8.5t-30.5 23t-20 32.5t-7.5 38q0 21 11 40t27.5 33t35 22t34.5 8q12 0 29 -5.5t33.5 -16t28 -26t11.5 -34.5z" />
    <glyph glyph-name="zerothai" unicode="&#xf0;" horiz-adv-x="429" 
d="M386 198q0 -38 -15.5 -75t-42.5 -65.5t-62.5 -46t-75.5 -17.5q-23 0 -45.5 9.5t-40.5 25.5t-29.5 36.5t-11.5 41.5q0 4 2.5 14t6 21.5t8 23t7.5 19.5q30 68 76 97t98 29q27 0 50 -8.5t39.5 -23.5t26 -35.5t9.5 -45.5zM340 189q0 13 -8 24t-20.5 19t-27.5 12.5t-29 4.5
q-21 0 -45 -17.5t-44.5 -42.5t-32.5 -52t-7 -46q17 -13 38.5 -21t31.5 -8q19 0 39.5 9.5t38.5 24t32 32t21 32.5q3 7 8 13t5 16z" />
    <glyph glyph-name="zerothai" unicode="&#xe50;" horiz-adv-x="429" 
d="M386 198q0 -38 -15.5 -75t-42.5 -65.5t-62.5 -46t-75.5 -17.5q-23 0 -45.5 9.5t-40.5 25.5t-29.5 36.5t-11.5 41.5q0 4 2.5 14t6 21.5t8 23t7.5 19.5q30 68 76 97t98 29q27 0 50 -8.5t39.5 -23.5t26 -35.5t9.5 -45.5zM340 189q0 13 -8 24t-20.5 19t-27.5 12.5t-29 4.5
q-21 0 -45 -17.5t-44.5 -42.5t-32.5 -52t-7 -46q17 -13 38.5 -21t31.5 -8q19 0 39.5 9.5t38.5 24t32 32t21 32.5q3 7 8 13t5 16z" />
    <glyph glyph-name="onethai" unicode="&#xf1;" horiz-adv-x="459" 
d="M377 206q0 -4 -2.5 -13.5t-6 -20.5t-7.5 -23t-7 -22q-1 -3 -12.5 -20t-28.5 -41t-38 -51t-40.5 -50t-36 -38t-24.5 -15t-16 3t-20 3v29q24 18 41.5 35.5t32 34.5t27 35t24.5 38q-12 -4 -27 -8.5t-29.5 -8.5t-26 -7t-16.5 -3q-9 0 -21 7t-22.5 17.5t-17.5 21.5t-7 19
q0 4 2.5 13t6 19.5t8.5 20.5t11 17q16 20 35.5 39t41 33.5t45 23.5t48.5 9q9 0 18.5 0.5t16.5 -2.5q8 -5 20.5 -15.5t15.5 -21.5t7.5 -29.5t4.5 -28.5zM330 212q0 9 -9.5 21t-26.5 12q-9 0 -21.5 -4t-24.5 -10t-22 -13t-14 -13q-4 -2 -10.5 -4.5t-9.5 -4.5q-5 -9 -12 -20
t-14.5 -21.5t-12.5 -19t-5 -12.5q0 -10 4 -12t8 -6q14 3 30.5 10t29.5 17.5t19.5 23.5t1.5 28q4 0 5 0.5t2 1.5t2.5 1.5t6.5 0.5t10.5 -4.5t10.5 -11t8 -14.5t3 -15q0 -10 -1 -11.5t1 -5.5q5 10 12 22.5t13.5 25t11 23t4.5 15.5z" />
    <glyph glyph-name="onethai" unicode="&#xe51;" horiz-adv-x="459" 
d="M377 206q0 -4 -2.5 -13.5t-6 -20.5t-7.5 -23t-7 -22q-1 -3 -12.5 -20t-28.5 -41t-38 -51t-40.5 -50t-36 -38t-24.5 -15t-16 3t-20 3v29q24 18 41.5 35.5t32 34.5t27 35t24.5 38q-12 -4 -27 -8.5t-29.5 -8.5t-26 -7t-16.5 -3q-9 0 -21 7t-22.5 17.5t-17.5 21.5t-7 19
q0 4 2.5 13t6 19.5t8.5 20.5t11 17q16 20 35.5 39t41 33.5t45 23.5t48.5 9q9 0 18.5 0.5t16.5 -2.5q8 -5 20.5 -15.5t15.5 -21.5t7.5 -29.5t4.5 -28.5zM330 212q0 9 -9.5 21t-26.5 12q-9 0 -21.5 -4t-24.5 -10t-22 -13t-14 -13q-4 -2 -10.5 -4.5t-9.5 -4.5q-5 -9 -12 -20
t-14.5 -21.5t-12.5 -19t-5 -12.5q0 -10 4 -12t8 -6q14 3 30.5 10t29.5 17.5t19.5 23.5t1.5 28q4 0 5 0.5t2 1.5t2.5 1.5t6.5 0.5t10.5 -4.5t10.5 -11t8 -14.5t3 -15q0 -10 -1 -11.5t1 -5.5q5 10 12 22.5t13.5 25t11 23t4.5 15.5z" />
    <glyph glyph-name="twothai" unicode="&#xf2;" horiz-adv-x="489" 
d="M379 267q0 -8 -3 -9.5t-5 -4.5q-2 -7 -4 -16t0 -18q3 -16 -5 -38.5t-23.5 -46.5t-36 -48t-41.5 -43t-40.5 -30.5t-32.5 -11.5h-10t-6 1q-10 5 -22 23t-15 38q-1 8 -1.5 18.5l-1 21t-0.5 19.5v13q0 30 4 66.5t9.5 73t11.5 71t11 61.5q3 -1 7.5 -5.5t8.5 -10t6.5 -10.5
t2.5 -8q0 -4 -3 -17.5t-6 -29t-6 -29t-3 -17.5q0 -8 4 -13t7 -11q17 18 21.5 28.5t6.5 15.5t6.5 6.5t21.5 1.5t24 -6t17 -20q1 0 2 -1t2 -1.5t3 -2.5q15 13 21 22t10 13.5t8 6.5t15 2q10 0 17 -6.5t11 -15.5t5.5 -18t1.5 -14zM331 233q-3 3 -8 3.5t-8 -3.5q-6 -7 -16 -13.5
t-18 -6.5q-10 0 -22 11t-22 19q0 -3 -1.5 -19t-6 -34t-12 -32.5t-20.5 -14.5q-8 0 -13 4t-8 4q-3 -14 -4 -27.5t-1 -21.5v-8.5t1.5 -18.5t5.5 -18.5t12 -8.5t24 13.5t32 30t28 30t12 14.5q8 12 15 26.5t14 25.5q3 6 8 20.5t8 24.5z" />
    <glyph glyph-name="twothai" unicode="&#xe52;" horiz-adv-x="489" 
d="M379 267q0 -8 -3 -9.5t-5 -4.5q-2 -7 -4 -16t0 -18q3 -16 -5 -38.5t-23.5 -46.5t-36 -48t-41.5 -43t-40.5 -30.5t-32.5 -11.5h-10t-6 1q-10 5 -22 23t-15 38q-1 8 -1.5 18.5l-1 21t-0.5 19.5v13q0 30 4 66.5t9.5 73t11.5 71t11 61.5q3 -1 7.5 -5.5t8.5 -10t6.5 -10.5
t2.5 -8q0 -4 -3 -17.5t-6 -29t-6 -29t-3 -17.5q0 -8 4 -13t7 -11q17 18 21.5 28.5t6.5 15.5t6.5 6.5t21.5 1.5t24 -6t17 -20q1 0 2 -1t2 -1.5t3 -2.5q15 13 21 22t10 13.5t8 6.5t15 2q10 0 17 -6.5t11 -15.5t5.5 -18t1.5 -14zM331 233q-3 3 -8 3.5t-8 -3.5q-6 -7 -16 -13.5
t-18 -6.5q-10 0 -22 11t-22 19q0 -3 -1.5 -19t-6 -34t-12 -32.5t-20.5 -14.5q-8 0 -13 4t-8 4q-3 -14 -4 -27.5t-1 -21.5v-8.5t1.5 -18.5t5.5 -18.5t12 -8.5t24 13.5t32 30t28 30t12 14.5q8 12 15 26.5t14 25.5q3 6 8 20.5t8 24.5z" />
    <glyph glyph-name="threethai" unicode="&#xf3;" horiz-adv-x="471" 
d="M413 223q0 -20 -8.5 -53.5t-19.5 -68t-21.5 -62.5t-14.5 -37q-12 3 -26.5 15.5t-14.5 21.5t10 21t15 24q11 31 15.5 62t12.5 63l-9 9q-14 -12 -28.5 -29t-28 -33t-24 -27t-15.5 -11q-13 0 -21 12t-12 27t-5 27.5t-1 13.5q-2 5 -3 8t-5 7t-2.5 4.5t-8.5 0.5
q-9 0 -19.5 -5.5t-17.5 -13.5q6 -10 13 -15.5t13.5 -11.5t11 -14t4.5 -22q0 -8 -3.5 -15.5t-3.5 -15.5q0 -22 -9.5 -48t-28.5 -48q-2 -1 -2.5 -4t-10.5 -3q-17 0 -29.5 13.5t-21 30.5t-13 32.5t-4.5 20.5q0 16 8 48t23 64t37 56t50 24q20 0 31.5 -9t19 -20t12.5 -20t11 -9
q4 0 10.5 6.5t15 16.5t17.5 20t18 18q5 5 14 6.5t19 1.5q12 0 21.5 -10.5t15.5 -24t9.5 -26.5t3.5 -18zM149 160q-4 -5 -11.5 -12.5t-7.5 -17.5v-49q13 16 16.5 40.5t2.5 38.5z" />
    <glyph glyph-name="threethai" unicode="&#xe53;" horiz-adv-x="471" 
d="M413 223q0 -20 -8.5 -53.5t-19.5 -68t-21.5 -62.5t-14.5 -37q-12 3 -26.5 15.5t-14.5 21.5t10 21t15 24q11 31 15.5 62t12.5 63l-9 9q-14 -12 -28.5 -29t-28 -33t-24 -27t-15.5 -11q-13 0 -21 12t-12 27t-5 27.5t-1 13.5q-2 5 -3 8t-5 7t-2.5 4.5t-8.5 0.5
q-9 0 -19.5 -5.5t-17.5 -13.5q6 -10 13 -15.5t13.5 -11.5t11 -14t4.5 -22q0 -8 -3.5 -15.5t-3.5 -15.5q0 -22 -9.5 -48t-28.5 -48q-2 -1 -2.5 -4t-10.5 -3q-17 0 -29.5 13.5t-21 30.5t-13 32.5t-4.5 20.5q0 16 8 48t23 64t37 56t50 24q20 0 31.5 -9t19 -20t12.5 -20t11 -9
q4 0 10.5 6.5t15 16.5t17.5 20t18 18q5 5 14 6.5t19 1.5q12 0 21.5 -10.5t15.5 -24t9.5 -26.5t3.5 -18zM149 160q-4 -5 -11.5 -12.5t-7.5 -17.5v-49q13 16 16.5 40.5t2.5 38.5z" />
    <glyph glyph-name="fourthai" unicode="&#xf4;" horiz-adv-x="470" 
d="M444 413q0 -11 -19.5 -26t-42.5 -29t-43 -24t-21 -11q-8 -7 -23.5 -19t-30.5 -24.5t-26 -23t-11 -14.5t2 -12.5t5 -18.5t6.5 -20t6.5 -17t15 -14t14 -15q4 -8 4 -25q0 -24 -12.5 -45t-31.5 -37.5t-41 -26t-40 -9.5q-22 0 -36.5 17t-23.5 38t-13 40.5t-4 24.5q0 14 7.5 33
t18.5 39t24 38.5t24 31.5q5 5 14 6.5t14 6.5q23 17 43 39.5t45 39.5q16 11 39.5 25t45 26t38.5 20t22 8h25q0 -5 3 -9t3 -13zM222 111q-9 7 -19.5 16t-21 16.5t-19 12.5t-12.5 5q-5 0 -10.5 -7.5t-9.5 -17.5t-6.5 -19.5t-2.5 -13.5q0 -2 2 -8.5t6.5 -14.5t10.5 -14t15 -6
q5 0 14.5 6t20 14t20 17t12.5 14z" />
    <glyph glyph-name="fourthai" unicode="&#xe54;" horiz-adv-x="470" 
d="M444 413q0 -11 -19.5 -26t-42.5 -29t-43 -24t-21 -11q-8 -7 -23.5 -19t-30.5 -24.5t-26 -23t-11 -14.5t2 -12.5t5 -18.5t6.5 -20t6.5 -17t15 -14t14 -15q4 -8 4 -25q0 -24 -12.5 -45t-31.5 -37.5t-41 -26t-40 -9.5q-22 0 -36.5 17t-23.5 38t-13 40.5t-4 24.5q0 14 7.5 33
t18.5 39t24 38.5t24 31.5q5 5 14 6.5t14 6.5q23 17 43 39.5t45 39.5q16 11 39.5 25t45 26t38.5 20t22 8h25q0 -5 3 -9t3 -13zM222 111q-9 7 -19.5 16t-21 16.5t-19 12.5t-12.5 5q-5 0 -10.5 -7.5t-9.5 -17.5t-6.5 -19.5t-2.5 -13.5q0 -2 2 -8.5t6.5 -14.5t10.5 -14t15 -6
q5 0 14.5 6t20 14t20 17t12.5 14z" />
    <glyph glyph-name="fivethai" unicode="&#xf5;" horiz-adv-x="464" 
d="M532 428q0 -12 -4 -18.5t-10.5 -11.5t-14.5 -9.5t-16 -10.5q-28 -22 -64.5 -35.5t-64.5 -30.5t-49 -33.5t-45 -34.5q7 -9 13.5 -22.5t6.5 -20.5t-5 -16.5t-11 -18.5q4 -3 10 -9.5t12 -14t10 -15.5t4 -14q0 -10 -5 -19t-11.5 -16.5t-13 -13t-10.5 -8.5q-20 -14 -38 -27.5
t-38 -21.5q-6 -2 -17 -3.5t-19 -1.5q-16 0 -27 8t-17.5 19.5t-9.5 25t-3 24.5l5 5q-1 6 -2.5 12t-0.5 11q5 30 23 58t44.5 54.5t57.5 51.5t62 49q-5 10 -14 19.5t-9 17.5q0 7 3.5 11t8.5 6q5 3 13 3t23 -8t22 -8q16 0 43.5 10t55.5 23.5t51 26.5t29 19h17q3 -3 4 -3.5
t1 -8.5zM256 119q-9 7 -19.5 16t-21 16t-19 12t-12.5 5q-7 0 -16 -11t-17.5 -25.5t-14.5 -30t-6 -24.5q0 -3 0.5 -8t2.5 -10t6.5 -9t12.5 -4t25 8.5t34 20t30.5 24t14.5 20.5z" />
    </font>
</defs>
</svg>
